<svg width="260" height="90" viewBox="0 0 260 90" fill="none" xmlns="http://www.w3.org/2000/svg">
<g filter="url(#filter0_d)">
<rect x="25" y="21" width="210" height="40" rx="20" fill="white"/>
</g>
<rect x="25" y="21" width="40" height="40" rx="20" fill="#00CAFF"/>
<path d="M84.312 44.956V47.836H83.196V46H76.284L76.272 47.836H75.156L75.168 44.956H75.576C76.104 44.924 76.476 44.508 76.692 43.708C76.908 42.9 77.04 41.764 77.088 40.3L77.172 37.6H83.076V44.956H84.312ZM78.144 40.408C78.104 41.592 78.008 42.572 77.856 43.348C77.712 44.124 77.476 44.66 77.148 44.956H81.888V38.644H78.204L78.144 40.408ZM91.0381 39.64L87.9541 46.636C87.6821 47.284 87.3621 47.74 86.9941 48.004C86.6341 48.268 86.1981 48.4 85.6861 48.4C85.3741 48.4 85.0701 48.348 84.7741 48.244C84.4861 48.148 84.2461 48.004 84.0541 47.812L84.5461 46.948C84.8741 47.26 85.2541 47.416 85.6861 47.416C85.9661 47.416 86.1981 47.34 86.3821 47.188C86.5741 47.044 86.7461 46.792 86.8981 46.432L87.1021 45.988L84.2941 39.64H85.4941L87.7141 44.728L89.9101 39.64H91.0381ZM101.278 39.64V46H92.2176V39.64H93.3696V44.992H96.1776V39.64H97.3296V44.992H100.126V39.64H101.278ZM105.782 39.58C106.662 39.58 107.334 39.796 107.798 40.228C108.27 40.66 108.506 41.304 108.506 42.16V46H107.414V45.16C107.222 45.456 106.946 45.684 106.586 45.844C106.234 45.996 105.814 46.072 105.326 46.072C104.614 46.072 104.042 45.9 103.61 45.556C103.186 45.212 102.974 44.76 102.974 44.2C102.974 43.64 103.178 43.192 103.586 42.856C103.994 42.512 104.642 42.34 105.53 42.34H107.354V42.112C107.354 41.616 107.21 41.236 106.922 40.972C106.634 40.708 106.21 40.576 105.65 40.576C105.274 40.576 104.906 40.64 104.546 40.768C104.186 40.888 103.882 41.052 103.634 41.26L103.154 40.396C103.482 40.132 103.874 39.932 104.33 39.796C104.786 39.652 105.27 39.58 105.782 39.58ZM105.518 45.184C105.958 45.184 106.338 45.088 106.658 44.896C106.978 44.696 107.21 44.416 107.354 44.056V43.168H105.578C104.602 43.168 104.114 43.496 104.114 44.152C104.114 44.472 104.238 44.724 104.486 44.908C104.734 45.092 105.078 45.184 105.518 45.184ZM110.581 39.64H111.733V42.34H115.357V39.64H116.509V46H115.357V43.336H111.733V46H110.581V39.64ZM121.989 39.856C122.581 39.856 123.109 39.988 123.573 40.252C124.037 40.516 124.397 40.884 124.653 41.356C124.917 41.82 125.049 42.352 125.049 42.952C125.049 43.568 124.909 44.116 124.629 44.596C124.357 45.068 123.969 45.436 123.465 45.7C122.969 45.964 122.401 46.096 121.761 46.096C120.681 46.096 119.845 45.728 119.253 44.992C118.669 44.248 118.377 43.204 118.377 41.86C118.377 40.556 118.645 39.536 119.181 38.8C119.717 38.056 120.537 37.564 121.641 37.324L124.545 36.676L124.713 37.732L122.037 38.308C121.205 38.492 120.585 38.804 120.177 39.244C119.769 39.684 119.537 40.316 119.481 41.14C119.753 40.732 120.105 40.416 120.537 40.192C120.969 39.968 121.453 39.856 121.989 39.856ZM121.785 45.136C122.193 45.136 122.553 45.044 122.865 44.86C123.185 44.676 123.433 44.424 123.609 44.104C123.785 43.776 123.873 43.404 123.873 42.988C123.873 42.356 123.681 41.848 123.297 41.464C122.913 41.08 122.409 40.888 121.785 40.888C121.161 40.888 120.653 41.08 120.261 41.464C119.877 41.848 119.685 42.356 119.685 42.988C119.685 43.404 119.773 43.776 119.949 44.104C120.133 44.424 120.385 44.676 120.705 44.86C121.025 45.044 121.385 45.136 121.785 45.136ZM132.442 42.856C132.442 42.944 132.434 43.06 132.418 43.204H127.258C127.33 43.764 127.574 44.216 127.99 44.56C128.414 44.896 128.938 45.064 129.562 45.064C130.322 45.064 130.934 44.808 131.398 44.296L132.034 45.04C131.746 45.376 131.386 45.632 130.954 45.808C130.53 45.984 130.054 46.072 129.526 46.072C128.854 46.072 128.258 45.936 127.738 45.664C127.218 45.384 126.814 44.996 126.526 44.5C126.246 44.004 126.106 43.444 126.106 42.82C126.106 42.204 126.242 41.648 126.514 41.152C126.794 40.656 127.174 40.272 127.654 40C128.142 39.72 128.69 39.58 129.298 39.58C129.906 39.58 130.446 39.72 130.918 40C131.398 40.272 131.77 40.656 132.034 41.152C132.306 41.648 132.442 42.216 132.442 42.856ZM129.298 40.552C128.746 40.552 128.282 40.72 127.906 41.056C127.538 41.392 127.322 41.832 127.258 42.376H131.338C131.274 41.84 131.054 41.404 130.678 41.068C130.31 40.724 129.85 40.552 129.298 40.552ZM134.493 44.428C134.717 44.428 134.901 44.508 135.045 44.668C135.197 44.82 135.273 45.012 135.273 45.244C135.273 45.364 135.257 45.48 135.225 45.592C135.201 45.704 135.149 45.876 135.069 46.108L134.505 47.776H133.749L134.193 45.988C134.041 45.932 133.917 45.84 133.821 45.712C133.733 45.576 133.689 45.42 133.689 45.244C133.689 45.004 133.765 44.808 133.917 44.656C134.069 44.504 134.261 44.428 134.493 44.428ZM145.847 39.64L142.763 46.636C142.491 47.284 142.171 47.74 141.803 48.004C141.443 48.268 141.007 48.4 140.495 48.4C140.183 48.4 139.879 48.348 139.583 48.244C139.295 48.148 139.055 48.004 138.863 47.812L139.355 46.948C139.683 47.26 140.063 47.416 140.495 47.416C140.775 47.416 141.007 47.34 141.191 47.188C141.383 47.044 141.555 46.792 141.707 46.432L141.911 45.988L139.103 39.64H140.303L142.523 44.728L144.719 39.64H145.847ZM152.146 39.64V46H150.994V40.648H148.258L148.186 42.064C148.146 42.92 148.07 43.636 147.958 44.212C147.846 44.78 147.662 45.236 147.406 45.58C147.15 45.924 146.794 46.096 146.338 46.096C146.13 46.096 145.894 46.06 145.63 45.988L145.702 45.016C145.806 45.04 145.902 45.052 145.99 45.052C146.31 45.052 146.55 44.912 146.71 44.632C146.87 44.352 146.974 44.02 147.022 43.636C147.07 43.252 147.114 42.704 147.154 41.992L147.262 39.64H152.146ZM154.626 46.072C154.402 46.072 154.21 45.996 154.05 45.844C153.89 45.684 153.81 45.484 153.81 45.244C153.81 45.012 153.89 44.82 154.05 44.668C154.21 44.508 154.402 44.428 154.626 44.428C154.85 44.428 155.038 44.504 155.19 44.656C155.342 44.808 155.418 45.004 155.418 45.244C155.418 45.484 155.338 45.684 155.178 45.844C155.026 45.996 154.842 46.072 154.626 46.072ZM157.285 37.6H163.621V38.62H158.473V41.02H161.089C162.089 41.02 162.849 41.228 163.369 41.644C163.889 42.06 164.149 42.66 164.149 43.444C164.149 44.268 163.865 44.9 163.297 45.34C162.737 45.78 161.933 46 160.885 46H157.285V37.6ZM160.837 45.052C161.525 45.052 162.049 44.92 162.409 44.656C162.769 44.392 162.949 44.004 162.949 43.492C162.949 42.476 162.245 41.968 160.837 41.968H158.473V45.052H160.837ZM168.594 46.072C167.962 46.072 167.394 45.932 166.89 45.652C166.386 45.372 165.99 44.988 165.702 44.5C165.422 44.004 165.282 43.444 165.282 42.82C165.282 42.196 165.422 41.64 165.702 41.152C165.99 40.656 166.386 40.272 166.89 40C167.394 39.72 167.962 39.58 168.594 39.58C169.226 39.58 169.79 39.72 170.286 40C170.79 40.272 171.182 40.656 171.462 41.152C171.75 41.64 171.894 42.196 171.894 42.82C171.894 43.444 171.75 44.004 171.462 44.5C171.182 44.988 170.79 45.372 170.286 45.652C169.79 45.932 169.226 46.072 168.594 46.072ZM168.594 45.064C169.002 45.064 169.366 44.972 169.686 44.788C170.014 44.596 170.27 44.332 170.454 43.996C170.638 43.652 170.73 43.26 170.73 42.82C170.73 42.38 170.638 41.992 170.454 41.656C170.27 41.312 170.014 41.048 169.686 40.864C169.366 40.68 169.002 40.588 168.594 40.588C168.186 40.588 167.818 40.68 167.49 40.864C167.17 41.048 166.914 41.312 166.722 41.656C166.538 41.992 166.446 42.38 166.446 42.82C166.446 43.26 166.538 43.652 166.722 43.996C166.914 44.332 167.17 44.596 167.49 44.788C167.818 44.972 168.186 45.064 168.594 45.064ZM177.318 46L175.482 43.564L173.622 46H172.338L174.846 42.748L172.458 39.64H173.742L175.494 41.932L177.234 39.64H178.494L176.094 42.748L178.626 46H177.318ZM184.473 40.648H182.145V46H180.993V40.648H178.665V39.64H184.473V40.648ZM187.919 39.58C188.799 39.58 189.471 39.796 189.935 40.228C190.407 40.66 190.643 41.304 190.643 42.16V46H189.551V45.16C189.359 45.456 189.083 45.684 188.723 45.844C188.371 45.996 187.951 46.072 187.463 46.072C186.751 46.072 186.179 45.9 185.747 45.556C185.323 45.212 185.111 44.76 185.111 44.2C185.111 43.64 185.315 43.192 185.723 42.856C186.131 42.512 186.779 42.34 187.667 42.34H189.491V42.112C189.491 41.616 189.347 41.236 189.059 40.972C188.771 40.708 188.347 40.576 187.787 40.576C187.411 40.576 187.043 40.64 186.683 40.768C186.323 40.888 186.019 41.052 185.771 41.26L185.291 40.396C185.619 40.132 186.011 39.932 186.467 39.796C186.923 39.652 187.407 39.58 187.919 39.58ZM187.655 45.184C188.095 45.184 188.475 45.088 188.795 44.896C189.115 44.696 189.347 44.416 189.491 44.056V43.168H187.715C186.739 43.168 186.251 43.496 186.251 44.152C186.251 44.472 186.375 44.724 186.623 44.908C186.871 45.092 187.215 45.184 187.655 45.184ZM196.09 39.58C196.706 39.58 197.258 39.716 197.746 39.988C198.234 40.26 198.614 40.64 198.886 41.128C199.166 41.616 199.306 42.18 199.306 42.82C199.306 43.46 199.166 44.028 198.886 44.524C198.614 45.012 198.234 45.392 197.746 45.664C197.258 45.936 196.706 46.072 196.09 46.072C195.634 46.072 195.214 45.984 194.83 45.808C194.454 45.632 194.134 45.376 193.87 45.04V48.328H192.718V39.64H193.822V40.648C194.078 40.296 194.402 40.032 194.794 39.856C195.186 39.672 195.618 39.58 196.09 39.58ZM195.994 45.064C196.402 45.064 196.766 44.972 197.086 44.788C197.414 44.596 197.67 44.332 197.854 43.996C198.046 43.652 198.142 43.26 198.142 42.82C198.142 42.38 198.046 41.992 197.854 41.656C197.67 41.312 197.414 41.048 197.086 40.864C196.766 40.68 196.402 40.588 195.994 40.588C195.594 40.588 195.23 40.684 194.902 40.876C194.582 41.06 194.326 41.32 194.134 41.656C193.95 41.992 193.858 42.38 193.858 42.82C193.858 43.26 193.95 43.652 194.134 43.996C194.318 44.332 194.574 44.596 194.902 44.788C195.23 44.972 195.594 45.064 195.994 45.064ZM206.878 41.128C207.702 41.208 208.33 41.464 208.762 41.896C209.194 42.32 209.41 42.864 209.41 43.528C209.41 44.008 209.29 44.444 209.05 44.836C208.81 45.22 208.45 45.528 207.97 45.76C207.498 45.984 206.918 46.096 206.23 46.096C205.63 46.096 205.054 46.008 204.502 45.832C203.95 45.648 203.498 45.396 203.146 45.076L203.698 44.128C203.986 44.4 204.354 44.62 204.802 44.788C205.25 44.948 205.726 45.028 206.23 45.028C206.854 45.028 207.338 44.896 207.682 44.632C208.034 44.368 208.21 44.004 208.21 43.54C208.21 43.076 208.038 42.716 207.694 42.46C207.35 42.204 206.83 42.076 206.134 42.076H205.462V41.236L207.574 38.644H203.53V37.6H209.074V38.416L206.878 41.128ZM216.509 37.6V38.416L213.113 46H211.841L215.165 38.644H211.325V40.144H210.173V37.6H216.509Z" fill="#262626"/>
<path d="M51.75 39.5C51.75 44.75 45 49.25 45 49.25C45 49.25 38.25 44.75 38.25 39.5C38.25 37.7098 38.9612 35.9929 40.227 34.727C41.4929 33.4612 43.2098 32.75 45 32.75C46.7902 32.75 48.5071 33.4612 49.773 34.727C51.0388 35.9929 51.75 37.7098 51.75 39.5Z" stroke="white" stroke-width="1.5" stroke-linecap="round" stroke-linejoin="round"/>
<path d="M45 41.75C46.2426 41.75 47.25 40.7426 47.25 39.5C47.25 38.2574 46.2426 37.25 45 37.25C43.7574 37.25 42.75 38.2574 42.75 39.5C42.75 40.7426 43.7574 41.75 45 41.75Z" stroke="white" stroke-width="1.5" stroke-linecap="round" stroke-linejoin="round"/>
<defs>
<filter id="filter0_d" x="0" y="0" width="260" height="90" filterUnits="userSpaceOnUse" color-interpolation-filters="sRGB">
<feFlood flood-opacity="0" result="BackgroundImageFix"/>
<feColorMatrix in="SourceAlpha" type="matrix" values="0 0 0 0 0 0 0 0 0 0 0 0 0 0 0 0 0 0 127 0"/>
<feOffset dy="4"/>
<feGaussianBlur stdDeviation="12.5"/>
<feColorMatrix type="matrix" values="0 0 0 0 0 0 0 0 0 0 0 0 0 0 0 0 0 0 0.15 0"/>
<feBlend mode="normal" in2="BackgroundImageFix" result="effect1_dropShadow"/>
<feBlend mode="normal" in="SourceGraphic" in2="effect1_dropShadow" result="shape"/>
</filter>
</defs>
</svg>
