<svg width="36" height="36" viewBox="0 0 36 36" fill="none" xmlns="http://www.w3.org/2000/svg">
<path d="M9 0C7.7625 0 6.75 1.0125 6.75 2.25V33.75C6.75 34.9875 7.7625 36 9 36H31.5C32.7375 36 33.75 34.9875 33.75 33.75V9L24.75 0H9Z" fill="#E2E5E7"/>
<path d="M27 9H33.75L24.75 0V6.75C24.75 7.9875 25.7625 9 27 9Z" fill="#B0B7BD"/>
<path d="M33.75 15.75L27 9H33.75V15.75Z" fill="#CAD1D8"/>
<path d="M29.25 29.25C29.25 29.8687 28.7437 30.375 28.125 30.375H3.375C2.75625 30.375 2.25 29.8687 2.25 29.25V18C2.25 17.3812 2.75625 16.875 3.375 16.875H28.125C28.7437 16.875 29.25 17.3812 29.25 18V29.25Z" fill="#2A9DF4"/>
<path d="M7.1543 21.3156C7.1543 21.0186 7.3883 20.6946 7.76517 20.6946H9.84305C11.013 20.6946 12.066 21.4776 12.066 22.9783C12.066 24.4003 11.013 25.1923 9.84305 25.1923H8.34117V26.3803C8.34117 26.7763 8.08917 27.0002 7.76517 27.0002C7.46817 27.0002 7.1543 26.7763 7.1543 26.3803V21.3156ZM8.34117 21.8275V24.0685H9.84305C10.446 24.0685 10.923 23.5363 10.923 22.9783C10.923 22.3495 10.446 21.8275 9.84305 21.8275H8.34117Z" fill="white"/>
<path d="M13.828 27.0004C13.531 27.0004 13.207 26.8384 13.207 26.4435V21.3338C13.207 21.0109 13.531 20.7758 13.828 20.7758H15.8879C19.9986 20.7758 19.9086 27.0004 15.9689 27.0004H13.828ZM14.395 21.8738V25.9035H15.8879C18.3168 25.9035 18.4248 21.8738 15.8879 21.8738H14.395Z" fill="white"/>
<path d="M21.3662 21.9453V23.3752H23.6601C23.9841 23.3752 24.3081 23.6992 24.3081 24.013C24.3081 24.31 23.9841 24.553 23.6601 24.553H21.3662V26.4419C21.3662 26.7569 21.1423 26.9988 20.8273 26.9988C20.4313 26.9988 20.1895 26.7569 20.1895 26.4419V21.3322C20.1895 21.0093 20.4325 20.7742 20.8273 20.7742H23.9852C24.3812 20.7742 24.6152 21.0093 24.6152 21.3322C24.6152 21.6202 24.3812 21.9442 23.9852 21.9442H21.3662V21.9453Z" fill="white"/>
<path d="M28.125 30.375H6.75V31.5H28.125C28.7437 31.5 29.25 30.9937 29.25 30.375V29.25C29.25 29.8688 28.7437 30.375 28.125 30.375Z" fill="#CAD1D8"/>
</svg>
