<svg width="124" height="124" viewBox="0 0 124 124" fill="none" xmlns="http://www.w3.org/2000/svg">
<path d="M109.941 88.7029L77.5012 32.5149C78.396 31.6357 78.9533 30.4134 78.9533 29.0625V21.7969C81.6242 21.7969 83.7971 19.624 83.7971 16.9531V14.5312C85.1344 14.5312 86.2189 13.447 86.2189 12.1094C86.2189 10.7718 85.1344 9.6875 83.7971 9.6875V7.26562C83.7971 4.59478 81.6242 2.42188 78.9533 2.42188H69.2573C67.2336 0.901906 64.7204 0 62.0002 0C59.2799 0 56.7668 0.901906 54.7431 2.42188H45.0471C42.3762 2.42188 40.2033 4.59478 40.2033 7.26562V16.9531C40.2033 19.624 42.3762 21.7969 45.0471 21.7969V29.0625C45.0471 30.4134 45.6043 31.6355 46.4992 32.5149L40.8008 42.385C40.1319 43.5434 40.5288 45.0246 41.6872 45.6933C42.0687 45.9134 42.485 46.018 42.8957 46.018C43.7327 46.018 44.547 45.5838 44.9955 44.8069L51.289 33.9062H54.7346V37.6255L22.4486 93.5464C22.1279 94.102 21.605 94.5006 20.9765 94.6692C20.3486 94.8372 19.6961 94.7539 19.1403 94.4328C18.5847 94.1119 18.1861 93.5892 18.0175 92.9608C17.8489 92.3323 17.933 91.6801 18.2539 91.1245L34.0956 63.6859C34.7645 62.5275 34.3676 61.0463 33.2092 60.3776C32.0506 59.7084 30.5693 60.1056 29.9009 61.264L14.0592 88.7029C13.0914 90.3788 12.8357 92.3364 13.3389 94.2146C13.8422 96.0927 15.0422 97.6602 16.7184 98.6277C17.8598 99.2867 19.1071 99.5999 20.3391 99.5999C22.8518 99.5999 25.2991 98.2966 26.6432 95.9685L36.2927 79.2551L54.7346 92.2407V116.734C54.7346 120.741 57.9939 124 62.0002 124C66.0065 124 69.2658 120.741 69.2658 116.734V92.2405L87.7074 79.2551L97.3569 95.9685C98.3244 97.6447 99.8919 98.8447 101.77 99.3482C102.399 99.5168 103.037 99.6001 103.671 99.6001C104.928 99.6001 106.167 99.2714 107.282 98.628C108.958 97.6602 110.158 96.093 110.661 94.2148C111.165 92.3364 110.909 90.3788 109.941 88.7029V88.7029ZM78.9533 16.9531H73.0955C73.746 15.4688 74.1096 13.8311 74.1096 12.1094C74.1096 10.3877 73.746 8.74999 73.0955 7.26562H78.9533V16.9531ZM69.2658 12.1094C69.2658 16.1156 66.0065 19.375 62.0002 19.375C57.9939 19.375 54.7346 16.1156 54.7346 12.1094C54.7346 8.10311 57.9939 4.84375 62.0002 4.84375C66.0065 4.84375 69.2658 8.10311 69.2658 12.1094ZM45.0471 7.26562H50.9049C50.2543 8.74999 49.8908 10.3877 49.8908 12.1094C49.8908 13.8311 50.2543 15.4688 50.9049 16.9531H45.0471V7.26562ZM54.7428 21.7969C56.7668 23.3168 59.2799 24.2188 62.0002 24.2188C64.7204 24.2188 67.2336 23.3168 69.2576 21.7969H74.1096V29.0625H49.8908V21.7969H54.7428ZM38.7245 75.0432L54.7346 47.313V86.3164L38.7245 75.0432ZM62.0002 119.156C60.6648 119.156 59.5783 118.07 59.5783 116.734V33.9062H64.4221V116.734C64.4221 118.07 63.3356 119.156 62.0002 119.156ZM69.2658 86.3164V47.3133L85.2756 75.0432L69.2658 86.3164ZM105.983 92.9608C105.814 93.5892 105.415 94.1119 104.86 94.4328C103.703 95.1002 102.219 94.7028 101.552 93.5464L69.2658 37.6258V33.9062H72.7114L105.747 91.1247C106.067 91.6803 106.151 92.3325 105.983 92.9608V92.9608Z" fill="#1BC2EE"/>
<path d="M37.4485 55.4568C38.7858 55.4568 39.8704 54.3725 39.8704 53.0349C39.8704 51.6973 38.7858 50.6131 37.4485 50.6131H37.4468C36.1094 50.6131 35.0259 51.6973 35.0259 53.0349C35.0259 54.3725 36.1111 55.4568 37.4485 55.4568Z" fill="#1BC2EE"/>
</svg>
