<svg width="124" height="124" viewBox="0 0 124 124" fill="none" xmlns="http://www.w3.org/2000/svg">
<g clip-path="url(#clip0)">
<path d="M67.9499 3.21367L64.2526 1.364C61.1908 -0.167927 57.4668 1.07185 55.9343 4.13333L55.0105 5.98093C53.6847 5.31286 52.1002 5.42061 50.8771 6.262C44.5697 3.4224 18.4057 -7.00186 1.5458 7.40487C0.218812 8.42361 -0.346295 10.1527 0.122953 11.7585C0.5922 13.3643 1.99946 14.517 3.6662 14.6609C16.885 15.4058 29.813 18.8389 41.6598 24.7504C41.7539 26.208 42.6124 27.5069 43.9166 28.1645L11.9639 92.0493C10.6154 94.6942 10.7887 97.859 12.4178 100.341C14.047 102.823 16.8819 104.24 19.8448 104.055C22.8078 103.869 25.4438 102.109 26.7509 99.4439L58.7036 35.5611C60.0102 36.2222 61.5711 36.1306 62.7915 35.3214C74.6257 41.2538 85.1255 49.5378 93.6489 59.6667C94.7646 60.9122 96.5301 61.3456 98.0957 60.7582C99.6613 60.1709 100.706 58.6831 100.727 57.0111C102.143 34.8833 78.1199 20.1996 72.0605 16.864C72.0012 15.3763 71.1329 14.0401 69.7975 13.3817L70.7233 11.5341C71.4594 10.063 71.5806 8.35975 71.0605 6.79925C70.5403 5.23874 69.4213 3.9489 67.9499 3.21367ZM59.6315 5.99333C59.8752 5.49936 60.306 5.1231 60.8283 4.9481C61.3506 4.7731 61.9211 4.81384 62.4133 5.06127L66.1105 6.92127C66.6009 7.16647 66.9737 7.59647 67.147 8.11662C67.3202 8.63678 67.2797 9.20446 67.0343 9.69473L66.1085 11.5403L58.7077 7.83267L59.6315 5.99333ZM4.2304 10.54C18.5379 -1.6802 41.7797 6.8758 48.5025 9.75467L42.9866 20.7989C30.8764 14.8419 17.7018 11.3545 4.2304 10.54ZM23.0536 97.5901C22.0108 99.5901 19.557 100.385 17.5396 99.3759C15.5223 98.3669 14.6863 95.9269 15.6611 93.8928L47.6139 30.0142L55.0063 33.7135L23.0536 97.5901ZM60.5533 31.8639L58.7057 30.9401L45.7683 24.4673L53.1649 9.68233L67.9499 17.0769L60.5533 31.8659V31.8639ZM96.6021 56.7486C87.8733 46.4603 77.1852 38.0111 65.1599 31.8928L70.6799 20.8465C77.0205 24.4941 97.807 37.9419 96.6021 56.7486Z" fill="#2A9DF4"/>
<path d="M121.28 20.7741C117.301 22.2512 114.051 25.2149 112.214 29.0408C109.905 29.3239 105.476 30.3614 103.55 34.2075C103.22 34.8696 103.269 35.6579 103.678 36.2741C108.403 44.5401 109.088 54.513 105.538 63.3475C105.322 63.9368 105.381 64.5921 105.7 65.1331C106.218 66.0135 110.536 73.8813 102.277 78.8371C101.827 79.1063 101.497 79.5374 101.355 80.042C100.514 82.62 98.644 84.7353 96.1887 85.8865C92.9937 87.11 88.8149 86.1428 83.7722 82.9932C83.4421 82.7817 83.0586 82.6684 82.6666 82.6667C82.493 82.6667 65.8604 82.8589 58.7387 98.7391C52.9196 97.0882 46.7585 99.8767 44.1584 105.338C39.3306 105.274 24.5126 106.297 20.7286 121.433C20.5746 122.05 20.7135 122.704 21.105 123.205C21.4965 123.707 22.0971 124 22.7332 124H119.867C122.149 124 124 122.149 124 119.867V22.7333C123.999 22.0694 123.68 21.4461 123.141 21.058C122.602 20.6699 121.91 20.5643 121.28 20.7741ZM119.867 119.867H25.5708C30.3572 108.087 44.5965 109.449 45.2434 109.521C46.1658 109.622 47.0422 109.095 47.3865 108.233C48.1973 105.938 49.9319 104.086 52.1699 103.127C54.4079 102.168 56.9451 102.19 59.1665 103.187C59.6828 103.394 60.261 103.384 60.7702 103.16C61.2793 102.935 61.6765 102.515 61.8718 101.994C64.9894 93.3474 72.9507 87.3829 82.1251 86.8207C88.0998 90.4249 93.3264 91.4087 97.6685 89.7368C101.091 88.2705 103.761 85.4614 105.051 81.9681C111.784 77.5641 112.836 70.4651 109.725 63.9199C113.156 54.5089 112.474 44.0896 107.847 35.2057C109.488 33.8531 111.54 33.0988 113.667 33.0667C114.556 33.0669 115.347 32.4974 115.628 31.6531C116.417 29.418 117.903 27.4953 119.867 26.1681V119.867Z" fill="#2A9DF4"/>
<path d="M105.104 100.111L101.167 98.8714C98.9926 98.1811 96.6697 99.3836 95.9781 101.558L94.738 105.499C94.049 107.673 95.2514 109.995 97.4247 110.687C101.674 112.03 101.779 112.133 102.616 112.133C104.415 112.126 106.003 110.956 106.543 109.24L107.783 105.299C108.473 103.127 107.274 100.807 105.104 100.111ZM102.624 107.994L98.6833 106.754L99.9233 102.813L103.864 104.053L102.624 107.994Z" fill="#2A9DF4"/>
<path d="M78.6345 105.166C77.9428 102.993 75.6214 101.791 73.4472 102.48L69.5081 103.72C67.3347 104.412 66.1324 106.733 66.8214 108.907L68.0614 112.846C68.7531 115.021 71.076 116.223 73.2508 115.533L77.192 114.293C79.3653 113.601 80.5676 111.28 79.8786 109.106L78.6345 105.166ZM71.9984 111.6L70.7584 107.661L74.6996 106.421L75.9396 110.362L71.9984 111.6Z" fill="#2A9DF4"/>
<path d="M86.7999 95.0667C85.6586 95.0667 84.7333 95.9919 84.7333 97.1333V99.2C84.7333 100.341 85.6586 101.267 86.7999 101.267C87.9413 101.267 88.8666 100.341 88.8666 99.2V97.1333C88.8666 95.9919 87.9413 95.0667 86.7999 95.0667Z" fill="#2A9DF4"/>
<path d="M52.2722 110.139L50.2055 112.206C49.4223 113.016 49.4335 114.305 50.2307 115.103C51.0279 115.9 52.3169 115.911 53.1278 115.128L55.1944 113.061C55.9777 112.25 55.9665 110.961 55.1693 110.164C54.3721 109.367 53.0831 109.356 52.2722 110.139Z" fill="#2A9DF4"/>
<path d="M113.061 87.4055C112.25 86.6223 110.961 86.6335 110.164 87.4307C109.367 88.2279 109.356 89.5169 110.139 90.3278C112.329 92.5205 112.592 93 113.667 93C114.502 92.9998 115.256 92.4963 115.575 91.7241C115.895 90.952 115.719 90.0632 115.128 89.4722L113.061 87.4055Z" fill="#2A9DF4"/>
<path d="M68.2 69.8203C68.2 76.2166 72.3684 80.1205 79.1781 77.8803C81.41 77.3721 83.2933 75.8837 84.3034 73.8296C85.5248 70.8763 83.8901 67.6523 82.4434 64.8065C79.3062 58.6417 68.2 63.7257 68.2 69.8203ZM80.4842 72.2589C79.9365 73.5795 75.5635 75.2039 73.7944 73.9123C72.7187 72.8362 72.1824 71.3343 72.3333 69.8203C72.3333 67.6069 77.8678 64.9347 78.7565 66.6893C79.7981 68.7394 80.9802 71.0623 80.4842 72.2589Z" fill="#2A9DF4"/>
</g>
<defs>
<clipPath id="clip0">
<rect width="124" height="124" fill="white"/>
</clipPath>
</defs>
</svg>
