<svg width="124" height="124" viewBox="0 0 124 124" fill="none" xmlns="http://www.w3.org/2000/svg">
<g clip-path="url(#clip0)">
<path d="M98.3254 25.0466C98.3254 28.7097 101.305 31.6897 104.969 31.6897C108.632 31.6897 111.613 28.7097 111.613 25.0466C111.613 21.3835 108.632 18.4035 104.969 18.4035C101.305 18.4035 98.3254 21.3835 98.3254 25.0466ZM107.979 25.0466C107.979 26.7069 106.629 28.0569 104.969 28.0569C103.308 28.0569 101.957 26.7069 101.957 25.0466C101.957 23.3863 103.308 22.0363 104.969 22.0363C106.629 22.0363 107.979 23.3863 107.979 25.0466Z" fill="#1BC2EE"/>
<path d="M12.7594 44.939L11.924 45.1415C10.9486 45.377 10.3488 46.3581 10.5844 47.3325C10.785 48.165 11.5285 48.7242 12.3478 48.7242C12.4897 48.7242 12.6326 48.7071 12.7754 48.6731L13.6117 48.4706C14.5871 48.236 15.1869 47.2549 14.9513 46.2796C14.7158 45.3042 13.7347 44.7053 12.7594 44.939Z" fill="#1BC2EE"/>
<path d="M118.385 29.457C119.389 29.457 120.202 28.6444 120.202 27.6406V11.4935C120.202 10.9174 119.928 10.3762 119.465 10.0328L106.049 0.114474C105.406 -0.361387 104.53 -0.361387 103.889 0.114474L90.472 10.0328C90.0085 10.3762 89.7351 10.9174 89.7351 11.4935V15.6968L30.0178 32.9054C29.0538 33.1825 28.4975 34.1891 28.7757 35.1532C29.0529 36.1172 30.0604 36.6725 31.0235 36.3963L89.7351 19.4772V29.6216C67.4897 36.032 24.5459 48.4063 13.7345 51.5226C11.1527 52.2662 8.44611 50.7705 7.70157 48.1887C7.34207 46.9371 7.48965 45.6211 8.11972 44.4812C8.74884 43.3421 9.78476 42.5162 11.0354 42.1558L24.9092 38.1578C25.8732 37.8797 26.4295 36.8731 26.1513 35.909C25.8742 34.945 24.8666 34.3897 23.9035 34.6669L10.0298 38.6649C7.84631 39.294 6.03937 40.7358 4.94006 42.7244C3.84076 44.7129 3.58249 47.0109 4.21161 49.1944C5.28442 52.9171 8.69397 55.3465 12.3892 55.3455C12.3996 55.3455 12.411 55.3446 12.4214 55.3446V121.941C12.4214 122.944 13.235 123.758 14.2378 123.758C15.2406 123.758 16.0542 122.944 16.0542 121.941V54.6341L50.6501 44.6647L41.4432 120.125H32.8248C31.8219 120.125 31.0083 120.938 31.0083 121.941C31.0083 122.945 31.8219 123.758 32.8248 123.758H100.36C101.364 123.758 102.176 122.945 102.176 121.941C102.176 120.938 101.364 120.125 100.36 120.125H91.7416L81.4515 35.7898L89.7351 33.402V38.5987C89.7351 39.1748 90.0085 39.7169 90.472 40.0593L103.152 49.4347V62.1126H100.142C99.1378 62.1126 98.3251 62.9262 98.3251 63.929V81.7081C98.3251 82.7109 99.1378 83.5245 100.142 83.5245H109.795C110.799 83.5245 111.611 82.7109 111.611 81.7081V63.929C111.611 62.9262 110.799 62.1126 109.795 62.1126H106.785V49.4347L119.465 40.0593C119.928 39.7169 120.202 39.1748 120.202 38.5987V33.7549C120.202 32.7521 119.389 31.9385 118.385 31.9385C117.381 31.9385 116.569 32.7521 116.569 33.7549V37.6829L104.968 46.2597L93.3679 37.6829V12.4102L104.968 3.83338L116.569 12.4102V27.6406C116.569 28.6444 117.382 29.457 118.385 29.457V29.457ZM54.5819 61.3842L66.5919 49.289L78.6029 61.3842H54.5819ZM77.83 65.017L66.5919 74.1018L55.3548 65.017H77.83ZM51.6246 66.6735L63.7027 76.4376L48.9813 88.3389L51.6246 66.6735ZM51.7712 90.7541L66.5919 78.7725L81.4136 90.7541H51.7712ZM80.6133 94.387L66.5919 103.854L52.5706 94.387H80.6133ZM48.0778 95.737L63.3461 106.046L45.3362 118.206L48.0778 95.737ZM66.5919 108.238L84.1969 120.125H48.987L66.5919 108.238ZM69.8378 106.046L85.1061 95.7379L87.8477 118.206L69.8378 106.046ZM69.4812 76.4376L81.5603 66.6735L84.2035 88.3389L69.4812 76.4376ZM69.1519 46.711L78.0325 37.7671L80.5215 58.161L69.1519 46.711ZM72.2417 38.4435L66.5919 44.133L63.4558 40.9751L72.2417 38.4435ZM59.4758 42.1217L64.0329 46.711L52.6633 58.161L54.4438 43.572L59.4758 42.1217ZM107.979 79.8916H101.958V65.7454H107.979V79.8916Z" fill="#1BC2EE"/>
</g>
<defs>
<clipPath id="clip0">
<rect width="124" height="124" fill="white"/>
</clipPath>
</defs>
</svg>
