<svg width="36" height="36" viewBox="0 0 36 36" fill="none" xmlns="http://www.w3.org/2000/svg">
<path d="M9 0C7.7625 0 6.75 1.0125 6.75 2.25V33.75C6.75 34.9875 7.7625 36 9 36H31.5C32.7375 36 33.75 34.9875 33.75 33.75V9L24.75 0H9Z" fill="#E2E5E7"/>
<path d="M27 9H33.75L24.75 0V6.75C24.75 7.9875 25.7625 9 27 9Z" fill="#B0B7BD"/>
<path d="M33.75 15.75L27 9H33.75V15.75Z" fill="#CAD1D8"/>
<path d="M29.25 29.25C29.25 29.8688 28.7438 30.375 28.125 30.375H3.375C2.75625 30.375 2.25 29.8688 2.25 29.25V18C2.25 17.3812 2.75625 16.875 3.375 16.875H28.125C28.7438 16.875 29.25 17.3812 29.25 18V29.25Z" fill="#50BEE8"/>
<path d="M6.50918 27.0001C6.21218 27.0001 5.88818 26.837 5.88818 26.4421V21.3335C5.88818 21.0095 6.21218 20.7755 6.50918 20.7755H8.56906C12.6798 20.7755 12.5887 27.0001 8.64893 27.0001H6.50918V27.0001ZM7.07618 21.8723V25.9021H8.56906C10.9979 25.9021 11.1048 21.8723 8.56906 21.8723H7.07618Z" fill="white"/>
<path d="M16.031 27.09C14.3672 27.162 12.6392 26.055 12.6392 23.8512C12.6392 21.6383 14.366 20.5504 16.031 20.5504C17.6049 20.6303 19.2508 21.7193 19.2508 23.8512C19.2508 25.9842 17.6049 27.09 16.031 27.09ZM15.932 21.7204C14.924 21.7204 13.8272 22.4314 13.8272 23.8523C13.8272 25.2653 14.9252 25.9853 15.932 25.9853C16.967 25.9853 18.0729 25.2653 18.0729 23.8523C18.0729 22.4303 16.967 21.7204 15.932 21.7204Z" fill="white"/>
<path d="M20.3096 23.8422C20.3096 22.1063 21.3986 20.6134 23.4675 20.6134C24.2505 20.6134 24.8715 20.8474 25.5273 21.4144C25.7703 21.6383 25.7973 22.0343 25.5543 22.2863C25.3113 22.5012 24.9423 22.4753 24.7263 22.2593C24.3585 21.8723 23.9805 21.7654 23.4675 21.7654C22.0826 21.7654 21.4177 22.7464 21.4177 23.8433C21.4177 24.9593 22.0736 25.9842 23.4675 25.9842C23.9805 25.9842 24.4575 25.776 24.8715 25.4082C25.1493 25.1922 25.5363 25.299 25.6983 25.5162C25.8423 25.7142 25.9132 26.0472 25.5993 26.361C24.9693 26.9472 24.2145 27.0642 23.4663 27.0642C21.2906 27.0642 20.3096 25.578 20.3096 23.8422Z" fill="white"/>
<path d="M28.125 30.375H6.75V31.5H28.125C28.7438 31.5 29.25 30.9938 29.25 30.375V29.25C29.25 29.8688 28.7438 30.375 28.125 30.375Z" fill="#CAD1D8"/>
</svg>
