<svg width="36" height="36" viewBox="0 0 36 36" fill="none" xmlns="http://www.w3.org/2000/svg">
<path d="M9 0C7.7625 0 6.75 1.0125 6.75 2.25V33.75C6.75 34.9875 7.7625 36 9 36H31.5C32.7375 36 33.75 34.9875 33.75 33.75V9L24.75 0H9Z" fill="#E2E5E7"/>
<path d="M27 9H33.75L24.75 0V6.75C24.75 7.9875 25.7625 9 27 9Z" fill="#B0B7BD"/>
<path d="M33.75 15.75L27 9H33.75V15.75Z" fill="#CAD1D8"/>
<path d="M29.25 29.25C29.25 29.8688 28.7438 30.375 28.125 30.375H3.375C2.75625 30.375 2.25 29.8688 2.25 29.25V18C2.25 17.3812 2.75625 16.875 3.375 16.875H28.125C28.7438 16.875 29.25 17.3812 29.25 18V29.25Z" fill="#F15642"/>
<path d="M7.41504 21.3153C7.41504 21.0183 7.64904 20.6943 8.02591 20.6943H10.1038C11.2738 20.6943 12.3268 21.4773 12.3268 22.9781C12.3268 24.4001 11.2738 25.1921 10.1038 25.1921H8.60192V26.3801C8.60192 26.7761 8.35104 27 8.02704 27C7.73004 27 7.41616 26.7761 7.41616 26.3801V21.3153H7.41504V21.3153ZM8.60192 21.8272V24.0682H10.1038C10.7068 24.0682 11.1838 23.5361 11.1838 22.9781C11.1838 22.3492 10.7068 21.8272 10.1038 21.8272H8.60192Z" fill="white"/>
<path d="M13.4731 21.3153C13.4731 21.0183 13.7071 20.6943 14.0851 20.6943H16.163C17.333 20.6943 18.386 21.4773 18.386 22.9781C18.386 24.4001 17.333 25.1921 16.163 25.1921H14.6611V26.3801C14.6611 26.7761 14.4091 27 14.0851 27C13.7881 27 13.4731 26.7761 13.4731 26.3801V21.3153V21.3153ZM14.66 21.8272V24.0682H16.1619C16.7649 24.0682 17.2419 23.5361 17.2419 22.9781C17.2419 22.3492 16.7649 21.8272 16.1619 21.8272H14.66Z" fill="white"/>
<path d="M21.2122 21.9004H19.6395C18.8565 21.9004 18.8565 20.7495 19.6395 20.7495H23.8931C24.6941 20.7495 24.6941 21.9004 23.8931 21.9004H22.4002V26.4431C22.4002 27.225 21.2122 27.2441 21.2122 26.4431V21.9004Z" fill="white"/>
<path d="M28.125 30.375H6.75V31.5H28.125C28.7438 31.5 29.25 30.9938 29.25 30.375V29.25C29.25 29.8688 28.7438 30.375 28.125 30.375Z" fill="#CAD1D8"/>
</svg>
