<svg width="443" height="61" viewBox="0 0 443 61" fill="none" xmlns="http://www.w3.org/2000/svg">
<path d="M14.7087 10.5998C17.0973 10.5998 19.1716 11.0021 20.9316 11.8067C22.6916 12.5861 24.0493 13.7176 25.0047 15.201C25.9602 16.6593 26.4379 18.3816 26.4379 20.3679C26.4379 22.3542 25.9602 24.0765 25.0047 25.5348C24.0493 26.9931 22.6916 28.1245 20.9316 28.9291C19.1716 29.7085 17.0973 30.0982 14.7087 30.0982H10.1075V37H2.64002V10.5998H14.7087ZM14.2561 24.2148C15.7898 24.2148 16.9464 23.8879 17.7258 23.2342C18.5053 22.5553 18.895 21.5999 18.895 20.3679C18.895 19.1359 18.5053 18.1805 17.7258 17.5016C16.9464 16.8227 15.7898 16.4833 14.2561 16.4833H10.1075V24.2148H14.2561ZM50.3692 23.2342C51.8778 23.7622 53.0595 24.5919 53.9144 25.7234C54.7693 26.8296 55.1967 28.1748 55.1967 29.7588C55.1967 32.072 54.2664 33.8571 52.4058 35.1143C50.5452 36.3714 47.8549 37 44.3349 37H30.0788V10.5998H43.5806C46.9498 10.5998 49.5144 11.2284 51.2744 12.4856C53.0344 13.7176 53.9144 15.3896 53.9144 17.5016C53.9144 18.7587 53.6001 19.8902 52.9715 20.8959C52.3681 21.8765 51.5007 22.6559 50.3692 23.2342ZM37.4709 15.993V21.0845H42.6C45.1143 21.0845 46.3715 20.2296 46.3715 18.5199C46.3715 16.8353 45.1143 15.993 42.6 15.993H37.4709ZM43.7315 31.6068C46.3463 31.6068 47.6538 30.7142 47.6538 28.9291C47.6538 27.1439 46.3463 26.2514 43.7315 26.2514H37.4709V31.6068H43.7315ZM72.3777 37.528C69.5868 37.528 67.0725 36.9371 64.8348 35.7554C62.6222 34.5737 60.8748 32.9394 59.5925 30.8525C58.3353 28.7657 57.7068 26.4148 57.7068 23.7999C57.7068 21.185 58.3353 18.8342 59.5925 16.7473C60.8748 14.6604 62.6222 13.0261 64.8348 11.8444C67.0725 10.6627 69.5868 10.0718 72.3777 10.0718C75.1686 10.0718 77.6703 10.6627 79.8829 11.8444C82.1206 13.0261 83.8681 14.6604 85.1252 16.7473C86.4075 18.8342 87.0487 21.185 87.0487 23.7999C87.0487 26.4148 86.4075 28.7657 85.1252 30.8525C83.8681 32.9394 82.1206 34.5737 79.8829 35.7554C77.6703 36.9371 75.1686 37.528 72.3777 37.528ZM72.3777 31.3428C73.7103 31.3428 74.9172 31.0285 75.9983 30.4C77.0795 29.7714 77.9343 28.8914 78.5629 27.7599C79.1915 26.6034 79.5058 25.2834 79.5058 23.7999C79.5058 22.3165 79.1915 21.009 78.5629 19.8776C77.9343 18.721 77.0795 17.8284 75.9983 17.1999C74.9172 16.5713 73.7103 16.257 72.3777 16.257C71.0451 16.257 69.8383 16.5713 68.7571 17.1999C67.676 17.8284 66.8211 18.721 66.1925 19.8776C65.564 21.009 65.2497 22.3165 65.2497 23.7999C65.2497 25.2834 65.564 26.6034 66.1925 27.7599C66.8211 28.8914 67.676 29.7714 68.7571 30.4C69.8383 31.0285 71.0451 31.3428 72.3777 31.3428ZM90.2037 23.4982H101.216V29.0045H90.2037V23.4982ZM126.851 31.2297V37H105.655V10.5998H126.36V16.3702H113.047V20.8205H124.776V26.4022H113.047V31.2297H126.851ZM130.995 10.5998H138.462V37H130.995V10.5998ZM149.394 16.521H141.286V10.5998H164.933V16.521H156.862V37H149.394V16.521ZM167.715 10.5998H175.182V37H167.715V10.5998Z" fill="white"/>
<path d="M5.40331 50.3484H2.61929V49.0284H9.74734V50.3484H6.96332V57.4285H5.40331V50.3484ZM27.2243 55.4845H23.0243L22.1963 57.4285H20.5883L24.3683 49.0284H25.9043L29.6963 57.4285H28.0643L27.2243 55.4845ZM26.7083 54.2604L25.1243 50.5884L23.5523 54.2604H26.7083ZM43.5285 57.5485C42.9925 57.5485 42.4965 57.4445 42.0405 57.2365C41.5925 57.0205 41.2245 56.7205 40.9365 56.3365L41.8245 55.2685C42.2885 55.9085 42.8445 56.2285 43.4925 56.2285C44.3645 56.2285 44.8005 55.7125 44.8005 54.6804V50.3364H41.8125V49.0284H46.3605V54.5964C46.3605 55.5805 46.1205 56.3205 45.6405 56.8165C45.1605 57.3045 44.4565 57.5485 43.5285 57.5485ZM59.8287 49.0284H61.3887V57.4285H59.8287V49.0284ZM77.8329 53.9124L76.5009 55.2805V57.4285H74.9408V49.0284H76.5009V53.3364L80.6529 49.0284H82.4049L78.8769 52.7844L82.6209 57.4285H80.7969L77.8329 53.9124ZM94.9632 49.0284H96.5232V57.4285H94.9632V49.0284ZM112.679 57.5485C112.031 57.5485 111.403 57.4565 110.795 57.2725C110.195 57.0885 109.719 56.8445 109.367 56.5405L109.907 55.3285C110.251 55.6005 110.671 55.8245 111.167 56.0005C111.671 56.1685 112.175 56.2525 112.679 56.2525C113.303 56.2525 113.767 56.1525 114.071 55.9525C114.383 55.7525 114.539 55.4885 114.539 55.1605C114.539 54.9205 114.451 54.7244 114.275 54.5724C114.107 54.4124 113.891 54.2884 113.627 54.2004C113.363 54.1124 113.003 54.0124 112.547 53.9004C111.907 53.7484 111.387 53.5964 110.987 53.4444C110.595 53.2924 110.255 53.0564 109.967 52.7364C109.687 52.4084 109.547 51.9684 109.547 51.4164C109.547 50.9524 109.671 50.5324 109.919 50.1564C110.175 49.7724 110.555 49.4684 111.059 49.2444C111.571 49.0204 112.195 48.9084 112.931 48.9084C113.443 48.9084 113.947 48.9724 114.443 49.1004C114.939 49.2284 115.367 49.4124 115.727 49.6524L115.235 50.8644C114.867 50.6484 114.483 50.4844 114.083 50.3724C113.683 50.2604 113.295 50.2044 112.919 50.2044C112.303 50.2044 111.843 50.3084 111.539 50.5164C111.243 50.7244 111.095 51.0004 111.095 51.3444C111.095 51.5844 111.179 51.7804 111.347 51.9324C111.523 52.0844 111.743 52.2044 112.007 52.2924C112.271 52.3804 112.631 52.4804 113.087 52.5924C113.711 52.7364 114.223 52.8884 114.623 53.0484C115.023 53.2004 115.363 53.4364 115.643 53.7564C115.931 54.0764 116.075 54.5084 116.075 55.0525C116.075 55.5165 115.947 55.9365 115.691 56.3125C115.443 56.6885 115.063 56.9885 114.551 57.2125C114.039 57.4365 113.415 57.5485 112.679 57.5485ZM130.489 50.3484H127.705V49.0284H134.833V50.3484H132.049V57.4285H130.489V50.3484ZM152.31 55.4845H148.11L147.282 57.4285H145.674L149.454 49.0284H150.99L154.782 57.4285H153.15L152.31 55.4845ZM151.794 54.2604L150.21 50.5884L148.638 54.2604H151.794ZM174.595 49.0284V57.4285H173.311L168.679 51.7404V57.4285H167.13V49.0284H168.415L173.047 54.7164V49.0284H174.595Z" fill="white"/>
<path d="M205.832 12.3V20H204.754V13.257H200.288V20H199.199V12.3H205.832ZM211.698 20.088C210.921 20.088 210.221 19.9193 209.597 19.582C208.974 19.2373 208.483 18.7643 208.123 18.163C207.771 17.5617 207.595 16.8907 207.595 16.15C207.595 15.4093 207.771 14.7383 208.123 14.137C208.483 13.5357 208.974 13.0663 209.597 12.729C210.221 12.3843 210.921 12.212 211.698 12.212C212.468 12.212 213.165 12.3843 213.788 12.729C214.412 13.0663 214.899 13.5357 215.251 14.137C215.603 14.731 215.779 15.402 215.779 16.15C215.779 16.898 215.603 17.5727 215.251 18.174C214.899 18.768 214.412 19.2373 213.788 19.582C213.165 19.9193 212.468 20.088 211.698 20.088ZM211.698 19.109C212.263 19.109 212.769 18.9807 213.216 18.724C213.671 18.4673 214.027 18.1153 214.283 17.668C214.547 17.2133 214.679 16.7073 214.679 16.15C214.679 15.5927 214.547 15.0903 214.283 14.643C214.027 14.1883 213.671 13.8327 213.216 13.576C212.769 13.3193 212.263 13.191 211.698 13.191C211.134 13.191 210.62 13.3193 210.158 13.576C209.704 13.8327 209.344 14.1883 209.08 14.643C208.824 15.0903 208.695 15.5927 208.695 16.15C208.695 16.7073 208.824 17.2133 209.08 17.668C209.344 18.1153 209.704 18.4673 210.158 18.724C210.62 18.9807 211.134 19.109 211.698 19.109ZM220.56 12.3C221.558 12.3 222.342 12.5383 222.914 13.015C223.486 13.4917 223.772 14.148 223.772 14.984C223.772 15.82 223.486 16.4763 222.914 16.953C222.342 17.4297 221.558 17.668 220.56 17.668H218.657V20H217.557V12.3H220.56ZM220.527 16.711C221.224 16.711 221.756 16.5643 222.122 16.271C222.489 15.9703 222.672 15.5413 222.672 14.984C222.672 14.4267 222.489 14.0013 222.122 13.708C221.756 13.4073 221.224 13.257 220.527 13.257H218.657V16.711H220.527ZM230.346 13.257H227.706V20H226.628V13.257H223.999V12.3H230.346V13.257ZM236.302 18.075H232.21L231.363 20H230.23L233.717 12.3H234.806L238.304 20H237.149L236.302 18.075ZM235.917 17.195L234.256 13.422L232.595 17.195H235.917ZM245.957 12.3V20H244.879V13.257H241.469L241.392 15.512C241.355 16.5753 241.267 17.437 241.128 18.097C240.996 18.757 240.783 19.2557 240.49 19.593C240.196 19.923 239.8 20.088 239.302 20.088C239.074 20.088 238.843 20.0587 238.609 20L238.686 19.021C238.803 19.0503 238.92 19.065 239.038 19.065C239.353 19.065 239.606 18.9403 239.797 18.691C239.987 18.4343 240.13 18.053 240.226 17.547C240.321 17.041 240.383 16.3737 240.413 15.545L240.534 12.3H245.957ZM248.355 12.3H249.444V18.24L253.998 12.3H255.01V20H253.932V14.071L249.367 20H248.355V12.3ZM260.805 12.3L262.818 15.116L264.831 12.3H266.118L263.511 15.996L266.327 20H265.029L262.818 16.931L260.618 20H259.353L262.158 16.04L259.54 12.3H260.805ZM266.8 19.043V21.683H265.777V20H265.029V19.043H266.8ZM274.22 12.3L270.799 18.647C270.527 19.153 270.208 19.5307 269.842 19.78C269.475 20.0293 269.075 20.154 268.643 20.154C268.305 20.154 267.961 20.077 267.609 19.923L267.895 19.043C268.166 19.1383 268.408 19.186 268.621 19.186C269.105 19.186 269.504 18.9293 269.82 18.416L269.996 18.141L266.894 12.3H268.071L270.568 17.184L273.131 12.3H274.22ZM278.045 16.612H276.439V20H275.361V12.3H276.439V15.644H278.067L280.487 12.3H281.664L278.914 16.029L281.796 20H280.542L278.045 16.612ZM282.313 19.043V21.683H281.29V20H280.542V19.043H282.313ZM289.764 12.3L286.343 18.647C286.071 19.153 285.752 19.5307 285.386 19.78C285.019 20.0293 284.619 20.154 284.187 20.154C283.849 20.154 283.505 20.077 283.153 19.923L283.439 19.043C283.71 19.1383 283.952 19.186 284.165 19.186C284.649 19.186 285.048 18.9293 285.364 18.416L285.54 18.141L282.438 12.3H283.615L286.112 17.184L288.675 12.3H289.764ZM293.589 16.612H291.983V20H290.905V12.3H291.983V15.644H293.611L296.031 12.3H297.208L294.458 16.029L297.34 20H296.086L293.589 16.612ZM297.857 19.043V21.683H296.834V20H296.086V19.043H297.857ZM298.951 12.3H300.04V18.24L304.594 12.3H305.606V20H304.528V14.071L299.963 20H298.951V12.3ZM310.961 12.3H316.769V13.235H312.05V15.435H314.448C315.364 15.435 316.061 15.6257 316.538 16.007C317.014 16.3883 317.253 16.9383 317.253 17.657C317.253 18.4123 316.992 18.9917 316.472 19.395C315.958 19.7983 315.221 20 314.261 20H310.961V12.3ZM314.217 19.131C314.847 19.131 315.328 19.01 315.658 18.768C315.988 18.526 316.153 18.1703 316.153 17.701C316.153 16.7697 315.507 16.304 314.217 16.304H312.05V19.131H314.217ZM324.595 19.043V20H319.007V12.3H324.441V13.257H320.107V15.622H323.968V16.557H320.107V19.043H324.595ZM332.944 12.3V20H331.844V16.568H327.422V20H326.322V12.3H327.422V15.611H331.844V12.3H332.944ZM340.933 19.043V20H335.345V12.3H340.779V13.257H336.445V15.622H340.306V16.557H336.445V19.043H340.933ZM351.121 16.139C351.121 17.1583 350.765 17.9577 350.054 18.537C349.342 19.1163 348.338 19.428 347.04 19.472V20.286H346.017V19.472C344.719 19.4207 343.71 19.1053 342.992 18.526C342.28 17.9467 341.925 17.151 341.925 16.139C341.925 15.1197 342.28 14.3203 342.992 13.741C343.71 13.1617 344.719 12.8463 346.017 12.795V12.014H347.04V12.795C348.33 12.8463 349.331 13.1653 350.043 13.752C350.761 14.3313 351.121 15.127 351.121 16.139ZM347.04 18.614C348.022 18.5553 348.77 18.317 349.284 17.899C349.804 17.4737 350.065 16.8833 350.065 16.128C350.065 15.3873 349.801 14.808 349.273 14.39C348.752 13.9647 348.008 13.7227 347.04 13.664V18.614ZM342.992 16.139C342.992 16.887 343.252 17.4737 343.773 17.899C344.301 18.317 345.049 18.5553 346.017 18.614V13.664C345.034 13.7227 344.282 13.961 343.762 14.379C343.248 14.797 342.992 15.3837 342.992 16.139ZM358.4 19.043V20H352.812V12.3H358.246V13.257H353.912V15.622H357.773V16.557H353.912V19.043H358.4ZM365.419 13.257H362.779V20H361.701V13.257H359.072V12.3H365.419V13.257ZM370.091 20.088C369.321 20.088 368.625 19.9193 368.001 19.582C367.385 19.2373 366.901 18.768 366.549 18.174C366.197 17.5727 366.021 16.898 366.021 16.15C366.021 15.402 366.197 14.731 366.549 14.137C366.901 13.5357 367.389 13.0663 368.012 12.729C368.636 12.3843 369.332 12.212 370.102 12.212C370.704 12.212 371.254 12.3147 371.752 12.52C372.251 12.718 372.676 13.015 373.028 13.411L372.313 14.104C371.734 13.4953 371.012 13.191 370.146 13.191C369.574 13.191 369.057 13.3193 368.595 13.576C368.133 13.8327 367.77 14.1883 367.506 14.643C367.25 15.0903 367.121 15.5927 367.121 16.15C367.121 16.7073 367.25 17.2133 367.506 17.668C367.77 18.1153 368.133 18.4673 368.595 18.724C369.057 18.9807 369.574 19.109 370.146 19.109C371.004 19.109 371.727 18.801 372.313 18.185L373.028 18.878C372.676 19.274 372.247 19.5747 371.741 19.78C371.243 19.9853 370.693 20.088 370.091 20.088ZM374.544 12.3H375.633V18.24L380.187 12.3H381.199V20H380.121V14.071L375.556 20H374.544V12.3ZM386.602 12.3C387.6 12.3 388.384 12.5383 388.956 13.015C389.528 13.4917 389.814 14.148 389.814 14.984C389.814 15.82 389.528 16.4763 388.956 16.953C388.384 17.4297 387.6 17.668 386.602 17.668H384.699V20H383.599V12.3H386.602ZM386.569 16.711C387.266 16.711 387.798 16.5643 388.164 16.271C388.531 15.9703 388.714 15.5413 388.714 14.984C388.714 14.4267 388.531 14.0013 388.164 13.708C387.798 13.4073 387.266 13.257 386.569 13.257H384.699V16.711H386.569ZM391.345 12.3H392.434V18.24L396.988 12.3H398V20H396.922V14.071L392.357 20H391.345V12.3ZM392.863 10.628H396.449V11.288H392.863V10.628ZM206.536 37.043V39.683H205.513V38H199.177L199.166 39.683H198.143L198.154 37.043H198.528C199.012 37.0137 199.353 36.6323 199.551 35.899C199.749 35.1583 199.87 34.117 199.914 32.775L199.991 30.3H205.403V37.043H206.536ZM200.882 32.874C200.845 33.9593 200.757 34.8577 200.618 35.569C200.486 36.2803 200.27 36.7717 199.969 37.043H204.314V31.257H200.937L200.882 32.874ZM213.077 36.075H208.985L208.138 38H207.005L210.492 30.3H211.581L215.079 38H213.924L213.077 36.075ZM212.692 35.195L211.031 31.422L209.37 35.195H212.692ZM219.411 30.3C220.408 30.3 221.193 30.5383 221.765 31.015C222.337 31.4917 222.623 32.148 222.623 32.984C222.623 33.82 222.337 34.4763 221.765 34.953C221.193 35.4297 220.408 35.668 219.411 35.668H217.508V38H216.408V30.3H219.411ZM219.378 34.711C220.075 34.711 220.606 34.5643 220.973 34.271C221.34 33.9703 221.523 33.5413 221.523 32.984C221.523 32.4267 221.34 32.0013 220.973 31.708C220.606 31.4073 220.075 31.257 219.378 31.257H217.508V34.711H219.378ZM234.552 37.043V39.683H233.529V38H227.193L227.182 39.683H226.159L226.17 37.043H226.544C227.028 37.0137 227.369 36.6323 227.567 35.899C227.765 35.1583 227.886 34.117 227.93 32.775L228.007 30.3H233.419V37.043H234.552ZM228.898 32.874C228.861 33.9593 228.773 34.8577 228.634 35.569C228.502 36.2803 228.285 36.7717 227.985 37.043H232.33V31.257H228.953L228.898 32.874ZM239.52 38.088C238.743 38.088 238.043 37.9193 237.419 37.582C236.796 37.2373 236.305 36.7643 235.945 36.163C235.593 35.5617 235.417 34.8907 235.417 34.15C235.417 33.4093 235.593 32.7383 235.945 32.137C236.305 31.5357 236.796 31.0663 237.419 30.729C238.043 30.3843 238.743 30.212 239.52 30.212C240.29 30.212 240.987 30.3843 241.61 30.729C242.234 31.0663 242.721 31.5357 243.073 32.137C243.425 32.731 243.601 33.402 243.601 34.15C243.601 34.898 243.425 35.5727 243.073 36.174C242.721 36.768 242.234 37.2373 241.61 37.582C240.987 37.9193 240.29 38.088 239.52 38.088ZM239.52 37.109C240.085 37.109 240.591 36.9807 241.038 36.724C241.493 36.4673 241.849 36.1153 242.105 35.668C242.369 35.2133 242.501 34.7073 242.501 34.15C242.501 33.5927 242.369 33.0903 242.105 32.643C241.849 32.1883 241.493 31.8327 241.038 31.576C240.591 31.3193 240.085 31.191 239.52 31.191C238.956 31.191 238.442 31.3193 237.98 31.576C237.526 31.8327 237.166 32.1883 236.902 32.643C236.646 33.0903 236.517 33.5927 236.517 34.15C236.517 34.7073 236.646 35.2133 236.902 35.668C237.166 36.1153 237.526 36.4673 237.98 36.724C238.442 36.9807 238.956 37.109 239.52 37.109ZM245.38 30.3H246.469V36.24L251.023 30.3H252.035V38H250.957V32.071L246.392 38H245.38V30.3ZM257.438 30.3C258.436 30.3 259.22 30.5383 259.792 31.015C260.364 31.4917 260.65 32.148 260.65 32.984C260.65 33.82 260.364 34.4763 259.792 34.953C259.22 35.4297 258.436 35.668 257.438 35.668H255.535V38H254.435V30.3H257.438ZM257.405 34.711C258.102 34.711 258.634 34.5643 259 34.271C259.367 33.9703 259.55 33.5413 259.55 32.984C259.55 32.4267 259.367 32.0013 259 31.708C258.634 31.4073 258.102 31.257 257.405 31.257H255.535V34.711H257.405ZM266.799 36.075H262.707L261.86 38H260.727L264.214 30.3H265.303L268.801 38H267.646L266.799 36.075ZM266.414 35.195L264.753 31.422L263.092 35.195H266.414ZM270.13 30.3H271.219V36.24L275.773 30.3H276.785V38H275.707V32.071L271.142 38H270.13V30.3ZM287.43 31.257H284.79V38H283.712V31.257H281.083V30.3H287.43V31.257ZM293.386 36.075H289.294L288.447 38H287.314L290.801 30.3H291.89L295.388 38H294.233L293.386 36.075ZM293.001 35.195L291.34 31.422L289.679 35.195H293.001ZM306.364 30.3V38H296.717V30.3H297.806V37.043H301.007V30.3H302.085V37.043H305.286V30.3H306.364ZM313.764 36.075H309.672L308.825 38H307.692L311.179 30.3H312.268L315.766 38H314.611L313.764 36.075ZM313.379 35.195L311.718 31.422L310.057 35.195H313.379ZM317.095 30.3H322.903V31.235H318.184V33.435H320.582C321.498 33.435 322.195 33.6257 322.672 34.007C323.148 34.3883 323.387 34.9383 323.387 35.657C323.387 36.4123 323.126 36.9917 322.606 37.395C322.092 37.7983 321.355 38 320.395 38H317.095V30.3ZM320.351 37.131C320.981 37.131 321.462 37.01 321.792 36.768C322.122 36.526 322.287 36.1703 322.287 35.701C322.287 34.7697 321.641 34.304 320.351 34.304H318.184V37.131H320.351ZM325.14 30.3H330.948V31.235H326.229V33.435H328.627C329.544 33.435 330.241 33.6257 330.717 34.007C331.194 34.3883 331.432 34.9383 331.432 35.657C331.432 36.4123 331.172 36.9917 330.651 37.395C330.138 37.7983 329.401 38 328.44 38H325.14V30.3ZM328.396 37.131C329.027 37.131 329.507 37.01 329.837 36.768C330.167 36.526 330.332 36.1703 330.332 35.701C330.332 34.7697 329.687 34.304 328.396 34.304H326.229V37.131H328.396ZM339.231 30.3L335.81 36.647C335.539 37.153 335.22 37.5307 334.853 37.78C334.487 38.0293 334.087 38.154 333.654 38.154C333.317 38.154 332.972 38.077 332.62 37.923L332.906 37.043C333.178 37.1383 333.42 37.186 333.632 37.186C334.116 37.186 334.516 36.9293 334.831 36.416L335.007 36.141L331.905 30.3H333.082L335.579 35.184L338.142 30.3H339.231ZM343.73 38.088C342.96 38.088 342.263 37.9193 341.64 37.582C341.024 37.2373 340.54 36.768 340.188 36.174C339.836 35.5727 339.66 34.898 339.66 34.15C339.66 33.402 339.836 32.731 340.188 32.137C340.54 31.5357 341.028 31.0663 341.651 30.729C342.274 30.3843 342.971 30.212 343.741 30.212C344.342 30.212 344.892 30.3147 345.391 30.52C345.89 30.718 346.315 31.015 346.667 31.411L345.952 32.104C345.373 31.4953 344.65 31.191 343.785 31.191C343.213 31.191 342.696 31.3193 342.234 31.576C341.772 31.8327 341.409 32.1883 341.145 32.643C340.888 33.0903 340.76 33.5927 340.76 34.15C340.76 34.7073 340.888 35.2133 341.145 35.668C341.409 36.1153 341.772 36.4673 342.234 36.724C342.696 36.9807 343.213 37.109 343.785 37.109C344.643 37.109 345.365 36.801 345.952 36.185L346.667 36.878C346.315 37.274 345.886 37.5747 345.38 37.78C344.881 37.9853 344.331 38.088 343.73 38.088ZM348.182 30.3H349.271V36.24L353.825 30.3H354.837V38H353.759V32.071L349.194 38H348.182V30.3ZM369.839 30.3V38H360.192V30.3H361.281V37.043H364.482V30.3H365.56V37.043H368.761V30.3H369.839ZM377.239 36.075H373.147L372.3 38H371.167L374.654 30.3H375.743L379.241 38H378.086L377.239 36.075ZM376.854 35.195L375.193 31.422L373.532 35.195H376.854ZM388.955 34.139C388.955 35.1583 388.599 35.9577 387.888 36.537C387.176 37.1163 386.172 37.428 384.874 37.472V38.286H383.851V37.472C382.553 37.4207 381.544 37.1053 380.826 36.526C380.114 35.9467 379.759 35.151 379.759 34.139C379.759 33.1197 380.114 32.3203 380.826 31.741C381.544 31.1617 382.553 30.8463 383.851 30.795V30.014H384.874V30.795C386.164 30.8463 387.165 31.1653 387.877 31.752C388.595 32.3313 388.955 33.127 388.955 34.139ZM384.874 36.614C385.856 36.5553 386.604 36.317 387.118 35.899C387.638 35.4737 387.899 34.8833 387.899 34.128C387.899 33.3873 387.635 32.808 387.107 32.39C386.586 31.9647 385.842 31.7227 384.874 31.664V36.614ZM380.826 34.139C380.826 34.887 381.086 35.4737 381.607 35.899C382.135 36.317 382.883 36.5553 383.851 36.614V31.664C382.868 31.7227 382.116 31.961 381.596 32.379C381.082 32.797 380.826 33.3837 380.826 34.139ZM399.138 34.139C399.138 35.1583 398.783 35.9577 398.071 36.537C397.36 37.1163 396.355 37.428 395.057 37.472V38.286H394.034V37.472C392.736 37.4207 391.728 37.1053 391.009 36.526C390.298 35.9467 389.942 35.151 389.942 34.139C389.942 33.1197 390.298 32.3203 391.009 31.741C391.728 31.1617 392.736 30.8463 394.034 30.795V30.014H395.057V30.795C396.348 30.8463 397.349 31.1653 398.06 31.752C398.779 32.3313 399.138 33.127 399.138 34.139ZM395.057 36.614C396.04 36.5553 396.788 36.317 397.301 35.899C397.822 35.4737 398.082 34.8833 398.082 34.128C398.082 33.3873 397.818 32.808 397.29 32.39C396.77 31.9647 396.025 31.7227 395.057 31.664V36.614ZM391.009 34.139C391.009 34.887 391.27 35.4737 391.79 35.899C392.318 36.317 393.066 36.5553 394.034 36.614V31.664C393.052 31.7227 392.3 31.961 391.779 32.379C391.266 32.797 391.009 33.3837 391.009 34.139ZM404.295 38.088C403.518 38.088 402.817 37.9193 402.194 37.582C401.571 37.2373 401.079 36.7643 400.72 36.163C400.368 35.5617 400.192 34.8907 400.192 34.15C400.192 33.4093 400.368 32.7383 400.72 32.137C401.079 31.5357 401.571 31.0663 402.194 30.729C402.817 30.3843 403.518 30.212 404.295 30.212C405.065 30.212 405.762 30.3843 406.385 30.729C407.008 31.0663 407.496 31.5357 407.848 32.137C408.2 32.731 408.376 33.402 408.376 34.15C408.376 34.898 408.2 35.5727 407.848 36.174C407.496 36.768 407.008 37.2373 406.385 37.582C405.762 37.9193 405.065 38.088 404.295 38.088ZM404.295 37.109C404.86 37.109 405.366 36.9807 405.813 36.724C406.268 36.4673 406.623 36.1153 406.88 35.668C407.144 35.2133 407.276 34.7073 407.276 34.15C407.276 33.5927 407.144 33.0903 406.88 32.643C406.623 32.1883 406.268 31.8327 405.813 31.576C405.366 31.3193 404.86 31.191 404.295 31.191C403.73 31.191 403.217 31.3193 402.755 31.576C402.3 31.8327 401.941 32.1883 401.677 32.643C401.42 33.0903 401.292 33.5927 401.292 34.15C401.292 34.7073 401.42 35.2133 401.677 35.668C401.941 36.1153 402.3 36.4673 402.755 36.724C403.217 36.9807 403.73 37.109 404.295 37.109ZM418.646 34.139C418.646 35.1583 418.29 35.9577 417.579 36.537C416.868 37.1163 415.863 37.428 414.565 37.472V38.286H413.542V37.472C412.244 37.4207 411.236 37.1053 410.517 36.526C409.806 35.9467 409.45 35.151 409.45 34.139C409.45 33.1197 409.806 32.3203 410.517 31.741C411.236 31.1617 412.244 30.8463 413.542 30.795V30.014H414.565V30.795C415.856 30.8463 416.857 31.1653 417.568 31.752C418.287 32.3313 418.646 33.127 418.646 34.139ZM414.565 36.614C415.548 36.5553 416.296 36.317 416.809 35.899C417.33 35.4737 417.59 34.8833 417.59 34.128C417.59 33.3873 417.326 32.808 416.798 32.39C416.277 31.9647 415.533 31.7227 414.565 31.664V36.614ZM410.517 34.139C410.517 34.887 410.777 35.4737 411.298 35.899C411.826 36.317 412.574 36.5553 413.542 36.614V31.664C412.559 31.7227 411.808 31.961 411.287 32.379C410.774 32.797 410.517 33.3837 410.517 34.139ZM420.338 30.3H421.427V36.24L425.981 30.3H426.993V38H425.915V32.071L421.35 38H420.338V30.3ZM435.036 30.3V38H433.958V35.756H431.835C431.703 35.756 431.604 35.7523 431.538 35.745L429.998 38H428.832L430.537 35.558C429.987 35.3747 429.566 35.0703 429.272 34.645C428.979 34.2123 428.832 33.688 428.832 33.072C428.832 32.1993 429.111 31.521 429.668 31.037C430.233 30.5457 430.992 30.3 431.945 30.3H435.036ZM429.943 33.061C429.943 33.633 430.108 34.073 430.438 34.381C430.776 34.6817 431.271 34.832 431.923 34.832H433.958V31.257H431.989C431.329 31.257 430.823 31.411 430.471 31.719C430.119 32.027 429.943 32.4743 429.943 33.061ZM442.73 31.257H440.09V38H439.012V31.257H436.383V30.3H442.73V31.257ZM202.642 56.088C201.872 56.088 201.175 55.9193 200.552 55.582C199.936 55.2373 199.452 54.768 199.1 54.174C198.748 53.5727 198.572 52.898 198.572 52.15C198.572 51.402 198.748 50.731 199.1 50.137C199.452 49.5357 199.94 49.0663 200.563 48.729C201.186 48.3843 201.883 48.212 202.653 48.212C203.254 48.212 203.804 48.3147 204.303 48.52C204.802 48.718 205.227 49.015 205.579 49.411L204.864 50.104C204.285 49.4953 203.562 49.191 202.697 49.191C202.125 49.191 201.608 49.3193 201.146 49.576C200.684 49.8327 200.321 50.1883 200.057 50.643C199.8 51.0903 199.672 51.5927 199.672 52.15C199.672 52.7073 199.8 53.2133 200.057 53.668C200.321 54.1153 200.684 54.4673 201.146 54.724C201.608 54.9807 202.125 55.109 202.697 55.109C203.555 55.109 204.277 54.801 204.864 54.185L205.579 54.878C205.227 55.274 204.798 55.5747 204.292 55.78C203.793 55.9853 203.243 56.088 202.642 56.088ZM210.398 56.088C209.621 56.088 208.921 55.9193 208.297 55.582C207.674 55.2373 207.183 54.7643 206.823 54.163C206.471 53.5617 206.295 52.8907 206.295 52.15C206.295 51.4093 206.471 50.7383 206.823 50.137C207.183 49.5357 207.674 49.0663 208.297 48.729C208.921 48.3843 209.621 48.212 210.398 48.212C211.168 48.212 211.865 48.3843 212.488 48.729C213.112 49.0663 213.599 49.5357 213.951 50.137C214.303 50.731 214.479 51.402 214.479 52.15C214.479 52.898 214.303 53.5727 213.951 54.174C213.599 54.768 213.112 55.2373 212.488 55.582C211.865 55.9193 211.168 56.088 210.398 56.088ZM210.398 55.109C210.963 55.109 211.469 54.9807 211.916 54.724C212.371 54.4673 212.727 54.1153 212.983 53.668C213.247 53.2133 213.379 52.7073 213.379 52.15C213.379 51.5927 213.247 51.0903 212.983 50.643C212.727 50.1883 212.371 49.8327 211.916 49.576C211.469 49.3193 210.963 49.191 210.398 49.191C209.834 49.191 209.32 49.3193 208.858 49.576C208.404 49.8327 208.044 50.1883 207.78 50.643C207.524 51.0903 207.395 51.5927 207.395 52.15C207.395 52.7073 207.524 53.2133 207.78 53.668C208.044 54.1153 208.404 54.4673 208.858 54.724C209.32 54.9807 209.834 55.109 210.398 55.109ZM216.418 48.3L218.431 51.116L220.444 48.3H221.731L219.124 51.996L221.94 56H220.642L218.431 52.931L216.231 56H214.966L217.771 52.04L215.153 48.3H216.418ZM222.413 55.043V57.683H221.39V56H220.642V55.043H222.413ZM228.374 54.075H224.282L223.435 56H222.302L225.789 48.3H226.878L230.376 56H229.221L228.374 54.075ZM227.989 53.195L226.328 49.422L224.667 53.195H227.989ZM231.705 48.3H232.794V54.24L237.348 48.3H238.36V56H237.282V50.071L232.717 56H231.705V48.3ZM243.715 48.3H244.804V54.24L249.358 48.3H250.37V56H249.292V50.071L244.727 56H243.715V48.3ZM256.213 56.088C255.443 56.088 254.747 55.9193 254.123 55.582C253.507 55.2373 253.023 54.768 252.671 54.174C252.319 53.5727 252.143 52.898 252.143 52.15C252.143 51.402 252.319 50.731 252.671 50.137C253.023 49.5357 253.511 49.0663 254.134 48.729C254.758 48.3843 255.454 48.212 256.224 48.212C256.826 48.212 257.376 48.3147 257.874 48.52C258.373 48.718 258.798 49.015 259.15 49.411L258.435 50.104C257.856 49.4953 257.134 49.191 256.268 49.191C255.696 49.191 255.179 49.3193 254.717 49.576C254.255 49.8327 253.892 50.1883 253.628 50.643C253.372 51.0903 253.243 51.5927 253.243 52.15C253.243 52.7073 253.372 53.2133 253.628 53.668C253.892 54.1153 254.255 54.4673 254.717 54.724C255.179 54.9807 255.696 55.109 256.268 55.109C257.126 55.109 257.849 54.801 258.435 54.185L259.15 54.878C258.798 55.274 258.369 55.5747 257.863 55.78C257.365 55.9853 256.815 56.088 256.213 56.088ZM265.871 49.257H263.231V56H262.153V49.257H259.524V48.3H265.871V49.257ZM267.208 48.3H268.297V54.24L272.851 48.3H273.863V56H272.785V50.071L268.22 56H267.208V48.3ZM276.703 48.3L278.716 51.116L280.729 48.3H282.016L279.409 51.996L282.225 56H280.927L278.716 52.931L276.516 56H275.251L278.056 52.04L275.438 48.3H276.703ZM286.356 48.3C287.354 48.3 288.138 48.5383 288.71 49.015C289.282 49.4917 289.568 50.148 289.568 50.984C289.568 51.82 289.282 52.4763 288.71 52.953C288.138 53.4297 287.354 53.668 286.356 53.668H284.453V56H283.353V48.3H286.356ZM286.323 52.711C287.02 52.711 287.552 52.5643 287.918 52.271C288.285 51.9703 288.468 51.5413 288.468 50.984C288.468 50.4267 288.285 50.0013 287.918 49.708C287.552 49.4073 287.02 49.257 286.323 49.257H284.453V52.711H286.323ZM294.671 56.088C293.894 56.088 293.193 55.9193 292.57 55.582C291.947 55.2373 291.455 54.7643 291.096 54.163C290.744 53.5617 290.568 52.8907 290.568 52.15C290.568 51.4093 290.744 50.7383 291.096 50.137C291.455 49.5357 291.947 49.0663 292.57 48.729C293.193 48.3843 293.894 48.212 294.671 48.212C295.441 48.212 296.138 48.3843 296.761 48.729C297.384 49.0663 297.872 49.5357 298.224 50.137C298.576 50.731 298.752 51.402 298.752 52.15C298.752 52.898 298.576 53.5727 298.224 54.174C297.872 54.768 297.384 55.2373 296.761 55.582C296.138 55.9193 295.441 56.088 294.671 56.088ZM294.671 55.109C295.236 55.109 295.742 54.9807 296.189 54.724C296.644 54.4673 296.999 54.1153 297.256 53.668C297.52 53.2133 297.652 52.7073 297.652 52.15C297.652 51.5927 297.52 51.0903 297.256 50.643C296.999 50.1883 296.644 49.8327 296.189 49.576C295.742 49.3193 295.236 49.191 294.671 49.191C294.106 49.191 293.593 49.3193 293.131 49.576C292.676 49.8327 292.317 50.1883 292.053 50.643C291.796 51.0903 291.668 51.5927 291.668 52.15C291.668 52.7073 291.796 53.2133 292.053 53.668C292.317 54.1153 292.676 54.4673 293.131 54.724C293.593 54.9807 294.106 55.109 294.671 55.109ZM306.067 48.3V56H304.978V52.953C304.164 53.2683 303.412 53.426 302.723 53.426C301.784 53.426 301.055 53.1987 300.534 52.744C300.021 52.2893 299.764 51.6403 299.764 50.797V48.3H300.842V50.676C300.842 51.248 301.014 51.688 301.359 51.996C301.711 52.304 302.206 52.458 302.844 52.458C303.555 52.458 304.267 52.2967 304.978 51.974V48.3H306.067ZM307.233 55.043V57.683H306.221V56H304.978V55.043H307.233Z" fill="white"/>
</svg>
