<svg width="451" height="61" viewBox="0 0 451 61" fill="none" xmlns="http://www.w3.org/2000/svg">
<path d="M14.7087 10.5998C17.0973 10.5998 19.1716 11.0021 20.9316 11.8067C22.6916 12.5861 24.0493 13.7176 25.0047 15.201C25.9602 16.6593 26.4379 18.3816 26.4379 20.3679C26.4379 22.3542 25.9602 24.0765 25.0047 25.5348C24.0493 26.9931 22.6916 28.1245 20.9316 28.9291C19.1716 29.7085 17.0973 30.0982 14.7087 30.0982H10.1075V37H2.64002V10.5998H14.7087ZM14.2561 24.2148C15.7898 24.2148 16.9464 23.8879 17.7258 23.2342C18.5053 22.5553 18.895 21.5999 18.895 20.3679C18.895 19.1359 18.5053 18.1805 17.7258 17.5016C16.9464 16.8227 15.7898 16.4833 14.2561 16.4833H10.1075V24.2148H14.2561ZM50.3692 23.2342C51.8778 23.7622 53.0595 24.5919 53.9144 25.7234C54.7693 26.8296 55.1967 28.1748 55.1967 29.7588C55.1967 32.072 54.2664 33.8571 52.4058 35.1143C50.5452 36.3714 47.8549 37 44.3349 37H30.0788V10.5998H43.5806C46.9498 10.5998 49.5144 11.2284 51.2744 12.4856C53.0344 13.7176 53.9144 15.3896 53.9144 17.5016C53.9144 18.7587 53.6001 19.8902 52.9715 20.8959C52.3681 21.8765 51.5007 22.6559 50.3692 23.2342ZM37.4709 15.993V21.0845H42.6C45.1143 21.0845 46.3715 20.2296 46.3715 18.5199C46.3715 16.8353 45.1143 15.993 42.6 15.993H37.4709ZM43.7315 31.6068C46.3463 31.6068 47.6538 30.7142 47.6538 28.9291C47.6538 27.1439 46.3463 26.2514 43.7315 26.2514H37.4709V31.6068H43.7315ZM72.3777 37.528C69.5868 37.528 67.0725 36.9371 64.8348 35.7554C62.6222 34.5737 60.8748 32.9394 59.5925 30.8525C58.3353 28.7657 57.7068 26.4148 57.7068 23.7999C57.7068 21.185 58.3353 18.8342 59.5925 16.7473C60.8748 14.6604 62.6222 13.0261 64.8348 11.8444C67.0725 10.6627 69.5868 10.0718 72.3777 10.0718C75.1686 10.0718 77.6703 10.6627 79.8829 11.8444C82.1206 13.0261 83.8681 14.6604 85.1252 16.7473C86.4075 18.8342 87.0487 21.185 87.0487 23.7999C87.0487 26.4148 86.4075 28.7657 85.1252 30.8525C83.8681 32.9394 82.1206 34.5737 79.8829 35.7554C77.6703 36.9371 75.1686 37.528 72.3777 37.528ZM72.3777 31.3428C73.7103 31.3428 74.9172 31.0285 75.9983 30.4C77.0795 29.7714 77.9343 28.8914 78.5629 27.7599C79.1915 26.6034 79.5058 25.2834 79.5058 23.7999C79.5058 22.3165 79.1915 21.009 78.5629 19.8776C77.9343 18.721 77.0795 17.8284 75.9983 17.1999C74.9172 16.5713 73.7103 16.257 72.3777 16.257C71.0451 16.257 69.8383 16.5713 68.7571 17.1999C67.676 17.8284 66.8211 18.721 66.1925 19.8776C65.564 21.009 65.2497 22.3165 65.2497 23.7999C65.2497 25.2834 65.564 26.6034 66.1925 27.7599C66.8211 28.8914 67.676 29.7714 68.7571 30.4C69.8383 31.0285 71.0451 31.3428 72.3777 31.3428ZM90.2037 23.4982H101.216V29.0045H90.2037V23.4982ZM126.851 31.2297V37H105.655V10.5998H126.36V16.3702H113.047V20.8205H124.776V26.4022H113.047V31.2297H126.851Z" fill="#0032A4"/>
<path d="M130.995 10.5998H138.462V37H130.995V10.5998Z" fill="#0063A5"/>
<path d="M149.394 16.521H141.286V10.5998H164.933V16.521H156.862V37H149.394V16.521Z" fill="#00A5E2"/>
<path d="M167.715 10.5998H175.182V37H167.715V10.5998Z" fill="#00CAFF"/>
<path d="M5.40331 50.3484H2.61929V49.0284H9.74734V50.3484H6.96332V57.4285H5.40331V50.3484ZM27.2243 55.4845H23.0243L22.1963 57.4285H20.5883L24.3683 49.0284H25.9043L29.6963 57.4285H28.0643L27.2243 55.4845ZM26.7083 54.2604L25.1243 50.5884L23.5523 54.2604H26.7083ZM43.5285 57.5485C42.9925 57.5485 42.4965 57.4445 42.0405 57.2365C41.5925 57.0205 41.2245 56.7205 40.9365 56.3365L41.8245 55.2685C42.2885 55.9085 42.8445 56.2285 43.4925 56.2285C44.3645 56.2285 44.8005 55.7125 44.8005 54.6804V50.3364H41.8125V49.0284H46.3605V54.5964C46.3605 55.5805 46.1205 56.3205 45.6405 56.8165C45.1605 57.3045 44.4565 57.5485 43.5285 57.5485ZM59.8287 49.0284H61.3887V57.4285H59.8287V49.0284ZM77.8329 53.9124L76.5009 55.2805V57.4285H74.9408V49.0284H76.5009V53.3364L80.6529 49.0284H82.4049L78.8769 52.7844L82.6209 57.4285H80.7969L77.8329 53.9124ZM94.9632 49.0284H96.5232V57.4285H94.9632V49.0284ZM112.679 57.5485C112.031 57.5485 111.403 57.4565 110.795 57.2725C110.195 57.0885 109.719 56.8445 109.367 56.5405L109.907 55.3285C110.251 55.6005 110.671 55.8245 111.167 56.0005C111.671 56.1685 112.175 56.2525 112.679 56.2525C113.303 56.2525 113.767 56.1525 114.071 55.9525C114.383 55.7525 114.539 55.4885 114.539 55.1605C114.539 54.9205 114.451 54.7244 114.275 54.5724C114.107 54.4124 113.891 54.2884 113.627 54.2004C113.363 54.1124 113.003 54.0124 112.547 53.9004C111.907 53.7484 111.387 53.5964 110.987 53.4444C110.595 53.2924 110.255 53.0564 109.967 52.7364C109.687 52.4084 109.547 51.9684 109.547 51.4164C109.547 50.9524 109.671 50.5324 109.919 50.1564C110.175 49.7724 110.555 49.4684 111.059 49.2444C111.571 49.0204 112.195 48.9084 112.931 48.9084C113.443 48.9084 113.947 48.9724 114.443 49.1004C114.939 49.2284 115.367 49.4124 115.727 49.6524L115.235 50.8644C114.867 50.6484 114.483 50.4844 114.083 50.3724C113.683 50.2604 113.295 50.2044 112.919 50.2044C112.303 50.2044 111.843 50.3084 111.539 50.5164C111.243 50.7244 111.095 51.0004 111.095 51.3444C111.095 51.5844 111.179 51.7804 111.347 51.9324C111.523 52.0844 111.743 52.2044 112.007 52.2924C112.271 52.3804 112.631 52.4804 113.087 52.5924C113.711 52.7364 114.223 52.8884 114.623 53.0484C115.023 53.2004 115.363 53.4364 115.643 53.7564C115.931 54.0764 116.075 54.5084 116.075 55.0525C116.075 55.5165 115.947 55.9365 115.691 56.3125C115.443 56.6885 115.063 56.9885 114.551 57.2125C114.039 57.4365 113.415 57.5485 112.679 57.5485ZM130.489 50.3484H127.705V49.0284H134.833V50.3484H132.049V57.4285H130.489V50.3484ZM152.31 55.4845H148.11L147.282 57.4285H145.674L149.454 49.0284H150.99L154.782 57.4285H153.15L152.31 55.4845ZM151.794 54.2604L150.21 50.5884L148.638 54.2604H151.794ZM174.595 49.0284V57.4285H173.311L168.679 51.7404V57.4285H167.13V49.0284H168.415L173.047 54.7164V49.0284H174.595Z" fill="black"/>
<path d="M205.832 12.3V20H204.754V13.257H200.288V20H199.199V12.3H205.832ZM211.698 20.088C210.921 20.088 210.221 19.9193 209.597 19.582C208.974 19.2373 208.483 18.7643 208.123 18.163C207.771 17.5617 207.595 16.8907 207.595 16.15C207.595 15.4093 207.771 14.7383 208.123 14.137C208.483 13.5357 208.974 13.0663 209.597 12.729C210.221 12.3843 210.921 12.212 211.698 12.212C212.468 12.212 213.165 12.3843 213.788 12.729C214.412 13.0663 214.899 13.5357 215.251 14.137C215.603 14.731 215.779 15.402 215.779 16.15C215.779 16.898 215.603 17.5727 215.251 18.174C214.899 18.768 214.412 19.2373 213.788 19.582C213.165 19.9193 212.468 20.088 211.698 20.088ZM211.698 19.109C212.263 19.109 212.769 18.9807 213.216 18.724C213.671 18.4673 214.027 18.1153 214.283 17.668C214.547 17.2133 214.679 16.7073 214.679 16.15C214.679 15.5927 214.547 15.0903 214.283 14.643C214.027 14.1883 213.671 13.8327 213.216 13.576C212.769 13.3193 212.263 13.191 211.698 13.191C211.134 13.191 210.62 13.3193 210.158 13.576C209.704 13.8327 209.344 14.1883 209.08 14.643C208.824 15.0903 208.695 15.5927 208.695 16.15C208.695 16.7073 208.824 17.2133 209.08 17.668C209.344 18.1153 209.704 18.4673 210.158 18.724C210.62 18.9807 211.134 19.109 211.698 19.109ZM220.56 12.3C221.558 12.3 222.342 12.5383 222.914 13.015C223.486 13.4917 223.772 14.148 223.772 14.984C223.772 15.82 223.486 16.4763 222.914 16.953C222.342 17.4297 221.558 17.668 220.56 17.668H218.657V20H217.557V12.3H220.56ZM220.527 16.711C221.224 16.711 221.756 16.5643 222.122 16.271C222.489 15.9703 222.672 15.5413 222.672 14.984C222.672 14.4267 222.489 14.0013 222.122 13.708C221.756 13.4073 221.224 13.257 220.527 13.257H218.657V16.711H220.527ZM230.346 13.257H227.706V20H226.628V13.257H223.999V12.3H230.346V13.257ZM236.302 18.075H232.21L231.363 20H230.23L233.717 12.3H234.806L238.304 20H237.149L236.302 18.075ZM235.917 17.195L234.256 13.422L232.595 17.195H235.917ZM245.957 12.3V20H244.879V13.257H241.469L241.392 15.512C241.355 16.5753 241.267 17.437 241.128 18.097C240.996 18.757 240.783 19.2557 240.49 19.593C240.196 19.923 239.8 20.088 239.302 20.088C239.074 20.088 238.843 20.0587 238.609 20L238.686 19.021C238.803 19.0503 238.92 19.065 239.038 19.065C239.353 19.065 239.606 18.9403 239.797 18.691C239.987 18.4343 240.13 18.053 240.226 17.547C240.321 17.041 240.383 16.3737 240.413 15.545L240.534 12.3H245.957ZM251.309 12.3H257.117V13.235H252.398V15.435H254.796C255.713 15.435 256.41 15.6257 256.886 16.007C257.363 16.3883 257.601 16.9383 257.601 17.657C257.601 18.4123 257.341 18.9917 256.82 19.395C256.307 19.7983 255.57 20 254.609 20H251.309V12.3ZM254.565 19.131C255.196 19.131 255.676 19.01 256.006 18.768C256.336 18.526 256.501 18.1703 256.501 17.701C256.501 16.7697 255.856 16.304 254.565 16.304H252.398V19.131H254.565ZM264.943 19.043V20H259.355V12.3H264.789V13.257H260.455V15.622H264.316V16.557H260.455V19.043H264.943ZM273.293 12.3V20H272.193V16.568H267.771V20H266.671V12.3H267.771V15.611H272.193V12.3H273.293ZM281.282 19.043V20H275.694V12.3H281.128V13.257H276.794V15.622H280.655V16.557H276.794V19.043H281.282ZM291.469 16.139C291.469 17.1583 291.114 17.9577 290.402 18.537C289.691 19.1163 288.686 19.428 287.388 19.472V20.286H286.365V19.472C285.067 19.4207 284.059 19.1053 283.34 18.526C282.629 17.9467 282.273 17.151 282.273 16.139C282.273 15.1197 282.629 14.3203 283.34 13.741C284.059 13.1617 285.067 12.8463 286.365 12.795V12.014H287.388V12.795C288.679 12.8463 289.68 13.1653 290.391 13.752C291.11 14.3313 291.469 15.127 291.469 16.139ZM287.388 18.614C288.371 18.5553 289.119 18.317 289.632 17.899C290.153 17.4737 290.413 16.8833 290.413 16.128C290.413 15.3873 290.149 14.808 289.621 14.39C289.101 13.9647 288.356 13.7227 287.388 13.664V18.614ZM283.34 16.139C283.34 16.887 283.601 17.4737 284.121 17.899C284.649 18.317 285.397 18.5553 286.365 18.614V13.664C285.383 13.7227 284.631 13.961 284.11 14.379C283.597 14.797 283.34 15.3837 283.34 16.139ZM293.161 12.3H294.25V18.24L298.804 12.3H299.816V20H298.738V14.071L294.173 20H293.161V12.3ZM309.873 19.043V21.749H308.85V20H302.217V12.3H303.306V19.043H307.596V12.3H308.685V19.043H309.873ZM311.337 12.3H312.426V18.24L316.98 12.3H317.992V20H316.914V14.071L312.349 20H311.337V12.3ZM325.397 18.075H321.305L320.458 20H319.325L322.812 12.3H323.901L327.399 20H326.244L325.397 18.075ZM325.012 17.195L323.351 13.422L321.69 17.195H325.012ZM331.731 12.3C332.729 12.3 333.513 12.5383 334.085 13.015C334.657 13.4917 334.943 14.148 334.943 14.984C334.943 15.82 334.657 16.4763 334.085 16.953C333.513 17.4297 332.729 17.668 331.731 17.668H329.828V20H328.728V12.3H331.731ZM331.698 16.711C332.395 16.711 332.927 16.5643 333.293 16.271C333.66 15.9703 333.843 15.5413 333.843 14.984C333.843 14.4267 333.66 14.0013 333.293 13.708C332.927 13.4073 332.395 13.257 331.698 13.257H329.828V16.711H331.698ZM343.095 12.3V20H341.995V16.568H337.573V20H336.473V12.3H337.573V15.611H341.995V12.3H343.095ZM348.962 20.088C348.185 20.088 347.484 19.9193 346.861 19.582C346.238 19.2373 345.746 18.7643 345.387 18.163C345.035 17.5617 344.859 16.8907 344.859 16.15C344.859 15.4093 345.035 14.7383 345.387 14.137C345.746 13.5357 346.238 13.0663 346.861 12.729C347.484 12.3843 348.185 12.212 348.962 12.212C349.732 12.212 350.429 12.3843 351.052 12.729C351.675 13.0663 352.163 13.5357 352.515 14.137C352.867 14.731 353.043 15.402 353.043 16.15C353.043 16.898 352.867 17.5727 352.515 18.174C352.163 18.768 351.675 19.2373 351.052 19.582C350.429 19.9193 349.732 20.088 348.962 20.088ZM348.962 19.109C349.527 19.109 350.033 18.9807 350.48 18.724C350.935 18.4673 351.29 18.1153 351.547 17.668C351.811 17.2133 351.943 16.7073 351.943 16.15C351.943 15.5927 351.811 15.0903 351.547 14.643C351.29 14.1883 350.935 13.8327 350.48 13.576C350.033 13.3193 349.527 13.191 348.962 13.191C348.397 13.191 347.884 13.3193 347.422 13.576C346.967 13.8327 346.608 14.1883 346.344 14.643C346.087 15.0903 345.959 15.5927 345.959 16.15C345.959 16.7073 346.087 17.2133 346.344 17.668C346.608 18.1153 346.967 18.4673 347.422 18.724C347.884 18.9807 348.397 19.109 348.962 19.109ZM359.859 13.257H355.899L355.91 20H354.821V12.3H359.87L359.859 13.257ZM363.679 20.088C362.901 20.088 362.201 19.9193 361.578 19.582C360.954 19.2373 360.463 18.7643 360.104 18.163C359.752 17.5617 359.576 16.8907 359.576 16.15C359.576 15.4093 359.752 14.7383 360.104 14.137C360.463 13.5357 360.954 13.0663 361.578 12.729C362.201 12.3843 362.901 12.212 363.679 12.212C364.449 12.212 365.145 12.3843 365.769 12.729C366.392 13.0663 366.88 13.5357 367.232 14.137C367.584 14.731 367.76 15.402 367.76 16.15C367.76 16.898 367.584 17.5727 367.232 18.174C366.88 18.768 366.392 19.2373 365.769 19.582C365.145 19.9193 364.449 20.088 363.679 20.088ZM363.679 19.109C364.243 19.109 364.749 18.9807 365.197 18.724C365.651 18.4673 366.007 18.1153 366.264 17.668C366.528 17.2133 366.66 16.7073 366.66 16.15C366.66 15.5927 366.528 15.0903 366.264 14.643C366.007 14.1883 365.651 13.8327 365.197 13.576C364.749 13.3193 364.243 13.191 363.679 13.191C363.114 13.191 362.601 13.3193 362.139 13.576C361.684 13.8327 361.325 14.1883 361.061 14.643C360.804 15.0903 360.676 15.5927 360.676 16.15C360.676 16.7073 360.804 17.2133 361.061 17.668C361.325 18.1153 361.684 18.4673 362.139 18.724C362.601 18.9807 363.114 19.109 363.679 19.109ZM379.125 12.3V20H378.047V13.257H373.581V20H372.492V12.3H379.125ZM384.529 12.3C385.526 12.3 386.311 12.5383 386.883 13.015C387.455 13.4917 387.741 14.148 387.741 14.984C387.741 15.82 387.455 16.4763 386.883 16.953C386.311 17.4297 385.526 17.668 384.529 17.668H382.626V20H381.526V12.3H384.529ZM384.496 16.711C385.193 16.711 385.724 16.5643 386.091 16.271C386.458 15.9703 386.641 15.5413 386.641 14.984C386.641 14.4267 386.458 14.0013 386.091 13.708C385.724 13.4073 385.193 13.257 384.496 13.257H382.626V16.711H384.496ZM393.89 18.075H389.798L388.951 20H387.818L391.305 12.3H392.394L395.892 20H394.737L393.89 18.075ZM393.505 17.195L391.844 13.422L390.183 17.195H393.505ZM402.016 16.007C402.537 16.1317 402.929 16.3553 403.193 16.678C403.465 16.9933 403.6 17.4003 403.6 17.899C403.6 18.5663 403.355 19.0833 402.863 19.45C402.379 19.8167 401.672 20 400.74 20H397.22V12.3H400.531C401.375 12.3 402.031 12.4723 402.5 12.817C402.977 13.1543 403.215 13.642 403.215 14.28C403.215 14.698 403.109 15.0537 402.896 15.347C402.691 15.6403 402.398 15.8603 402.016 16.007ZM398.309 15.688H400.454C400.99 15.688 401.397 15.5817 401.675 15.369C401.961 15.1563 402.104 14.8447 402.104 14.434C402.104 14.0233 401.961 13.7117 401.675 13.499C401.389 13.279 400.982 13.169 400.454 13.169H398.309V15.688ZM400.718 19.131C401.899 19.131 402.489 18.691 402.489 17.811C402.489 17.371 402.339 17.0483 402.038 16.843C401.745 16.6303 401.305 16.524 400.718 16.524H398.309V19.131H400.718ZM410.443 18.075H406.351L405.504 20H404.371L407.858 12.3H408.947L412.445 20H411.29L410.443 18.075ZM410.058 17.195L408.397 13.422L406.736 17.195H410.058ZM203.995 34.007C204.516 34.1317 204.908 34.3553 205.172 34.678C205.443 34.9933 205.579 35.4003 205.579 35.899C205.579 36.5663 205.333 37.0833 204.842 37.45C204.358 37.8167 203.65 38 202.719 38H199.199V30.3H202.51C203.353 30.3 204.01 30.4723 204.479 30.817C204.956 31.1543 205.194 31.642 205.194 32.28C205.194 32.698 205.088 33.0537 204.875 33.347C204.67 33.6403 204.376 33.8603 203.995 34.007ZM200.288 33.688H202.433C202.968 33.688 203.375 33.5817 203.654 33.369C203.94 33.1563 204.083 32.8447 204.083 32.434C204.083 32.0233 203.94 31.7117 203.654 31.499C203.368 31.279 202.961 31.169 202.433 31.169H200.288V33.688ZM202.697 37.131C203.878 37.131 204.468 36.691 204.468 35.811C204.468 35.371 204.318 35.0483 204.017 34.843C203.724 34.6303 203.284 34.524 202.697 34.524H200.288V37.131H202.697ZM213.374 30.3C214.371 30.3 215.156 30.5383 215.728 31.015C216.3 31.4917 216.586 32.148 216.586 32.984C216.586 33.82 216.3 34.4763 215.728 34.953C215.156 35.4297 214.371 35.668 213.374 35.668H211.471V38H210.371V30.3H213.374ZM213.341 34.711C214.038 34.711 214.569 34.5643 214.936 34.271C215.303 33.9703 215.486 33.5413 215.486 32.984C215.486 32.4267 215.303 32.0013 214.936 31.708C214.569 31.4073 214.038 31.257 213.341 31.257H211.471V34.711H213.341ZM222.734 36.075H218.642L217.795 38H216.662L220.149 30.3H221.238L224.736 38H223.581L222.734 36.075ZM222.349 35.195L220.688 31.422L219.027 35.195H222.349ZM233.204 38L233.193 32.39L230.41 37.065H229.904L227.121 32.423V38H226.065V30.3H226.967L230.179 35.712L233.347 30.3H234.249L234.26 38H233.204ZM239.341 34.612H237.735V38H236.657V30.3H237.735V33.644H239.363L241.783 30.3H242.96L240.21 34.029L243.092 38H241.838L239.341 34.612ZM249.117 36.075H245.025L244.178 38H243.045L246.532 30.3H247.621L251.119 38H249.964L249.117 36.075ZM248.732 35.195L247.071 31.422L245.41 35.195H248.732ZM252.523 30.3L254.536 33.116L256.549 30.3H257.836L255.229 33.996L258.045 38H256.747L254.536 34.931L252.336 38H251.071L253.876 34.04L251.258 30.3H252.523ZM262.385 30.3H263.474V36.24L268.028 30.3H269.04V38H267.962V32.071L263.397 38H262.385V30.3ZM278.062 30.3V38H276.962V34.568H272.54V38H271.44V30.3H272.54V33.611H276.962V30.3H278.062ZM280.464 30.3H281.553V36.24L286.107 30.3H287.119V38H286.041V32.071L281.476 38H280.464V30.3ZM297.175 37.043V39.749H296.152V38H289.519V30.3H290.608V37.043H294.898V30.3H295.987V37.043H297.175ZM298.639 30.3H299.728V36.24L304.282 30.3H305.294V38H304.216V32.071L299.651 38H298.639V30.3ZM312.7 36.075H308.608L307.761 38H306.628L310.115 30.3H311.204L314.702 38H313.547L312.7 36.075ZM312.315 35.195L310.654 31.422L308.993 35.195H312.315ZM320.935 31.257H318.295V38H317.217V31.257H314.588V30.3H320.935V31.257ZM322.272 30.3H323.361V36.24L327.915 30.3H328.927V38H327.849V32.071L323.284 38H322.272V30.3ZM336.124 34.007C336.645 34.1317 337.037 34.3553 337.301 34.678C337.572 34.9933 337.708 35.4003 337.708 35.899C337.708 36.5663 337.462 37.0833 336.971 37.45C336.487 37.8167 335.779 38 334.848 38H331.328V30.3H334.639C335.482 30.3 336.139 30.4723 336.608 30.817C337.085 31.1543 337.323 31.642 337.323 32.28C337.323 32.698 337.217 33.0537 337.004 33.347C336.799 33.6403 336.505 33.8603 336.124 34.007ZM332.417 33.688H334.562C335.097 33.688 335.504 33.5817 335.783 33.369C336.069 33.1563 336.212 32.8447 336.212 32.434C336.212 32.0233 336.069 31.7117 335.783 31.499C335.497 31.279 335.09 31.169 334.562 31.169H332.417V33.688ZM334.826 37.131C336.007 37.131 336.597 36.691 336.597 35.811C336.597 35.371 336.447 35.0483 336.146 34.843C335.853 34.6303 335.413 34.524 334.826 34.524H332.417V37.131H334.826ZM342.923 32.984C343.839 32.984 344.54 33.1893 345.024 33.6C345.515 34.0107 345.761 34.6157 345.761 35.415C345.761 36.2583 345.497 36.9 344.969 37.34C344.448 37.78 343.7 38 342.725 38H339.546V30.3H340.635V32.984H342.923ZM342.681 37.131C343.319 37.131 343.806 36.988 344.144 36.702C344.488 36.4087 344.661 35.987 344.661 35.437C344.661 34.381 344.001 33.853 342.681 33.853H340.635V37.131H342.681ZM346.982 30.3H348.071V38H346.982V30.3ZM360.058 30.3V38H358.98V31.257H354.514V38H353.425V30.3H360.058ZM365.462 30.3C366.459 30.3 367.244 30.5383 367.816 31.015C368.388 31.4917 368.674 32.148 368.674 32.984C368.674 33.82 368.388 34.4763 367.816 34.953C367.244 35.4297 366.459 35.668 365.462 35.668H363.559V38H362.459V30.3H365.462ZM365.429 34.711C366.125 34.711 366.657 34.5643 367.024 34.271C367.39 33.9703 367.574 33.5413 367.574 32.984C367.574 32.4267 367.39 32.0013 367.024 31.708C366.657 31.4073 366.125 31.257 365.429 31.257H363.559V34.711H365.429ZM373.776 38.088C372.999 38.088 372.299 37.9193 371.675 37.582C371.052 37.2373 370.561 36.7643 370.201 36.163C369.849 35.5617 369.673 34.8907 369.673 34.15C369.673 33.4093 369.849 32.7383 370.201 32.137C370.561 31.5357 371.052 31.0663 371.675 30.729C372.299 30.3843 372.999 30.212 373.776 30.212C374.546 30.212 375.243 30.3843 375.866 30.729C376.49 31.0663 376.977 31.5357 377.329 32.137C377.681 32.731 377.857 33.402 377.857 34.15C377.857 34.898 377.681 35.5727 377.329 36.174C376.977 36.768 376.49 37.2373 375.866 37.582C375.243 37.9193 374.546 38.088 373.776 38.088ZM373.776 37.109C374.341 37.109 374.847 36.9807 375.294 36.724C375.749 36.4673 376.105 36.1153 376.361 35.668C376.625 35.2133 376.757 34.7073 376.757 34.15C376.757 33.5927 376.625 33.0903 376.361 32.643C376.105 32.1883 375.749 31.8327 375.294 31.576C374.847 31.3193 374.341 31.191 373.776 31.191C373.212 31.191 372.698 31.3193 372.236 31.576C371.782 31.8327 371.422 32.1883 371.158 32.643C370.902 33.0903 370.773 33.5927 370.773 34.15C370.773 34.7073 370.902 35.2133 371.158 35.668C371.422 36.1153 371.782 36.4673 372.236 36.724C372.698 36.9807 373.212 37.109 373.776 37.109ZM383.106 33.985C383.59 34.117 383.967 34.348 384.239 34.678C384.51 35.0007 384.646 35.3893 384.646 35.844C384.646 36.2987 384.499 36.6983 384.206 37.043C383.92 37.3803 383.535 37.6407 383.051 37.824C382.574 38 382.053 38.088 381.489 38.088C380.975 38.088 380.466 38.011 379.96 37.857C379.454 37.703 378.992 37.472 378.574 37.164L378.959 36.35C379.296 36.614 379.674 36.812 380.092 36.944C380.51 37.076 380.931 37.142 381.357 37.142C381.973 37.142 382.49 37.0137 382.908 36.757C383.326 36.493 383.535 36.1337 383.535 35.679C383.535 35.2903 383.377 34.9933 383.062 34.788C382.746 34.5753 382.303 34.469 381.731 34.469H380.015V33.578H381.654C382.145 33.578 382.526 33.479 382.798 33.281C383.076 33.0757 383.216 32.7933 383.216 32.434C383.216 32.0307 383.036 31.7117 382.677 31.477C382.317 31.2423 381.863 31.125 381.313 31.125C380.953 31.125 380.587 31.1763 380.213 31.279C379.846 31.3817 379.498 31.5357 379.168 31.741L378.816 30.839C379.204 30.619 379.615 30.454 380.048 30.344C380.48 30.234 380.913 30.179 381.346 30.179C381.888 30.179 382.387 30.2633 382.842 30.432C383.296 30.6007 383.656 30.8463 383.92 31.169C384.191 31.4917 384.327 31.8693 384.327 32.302C384.327 32.6907 384.217 33.0317 383.997 33.325C383.784 33.6183 383.487 33.8383 383.106 33.985ZM389.481 30.3C390.479 30.3 391.263 30.5383 391.835 31.015C392.407 31.4917 392.693 32.148 392.693 32.984C392.693 33.82 392.407 34.4763 391.835 34.953C391.263 35.4297 390.479 35.668 389.481 35.668H387.578V38H386.478V30.3H389.481ZM389.448 34.711C390.145 34.711 390.677 34.5643 391.043 34.271C391.41 33.9703 391.593 33.5413 391.593 32.984C391.593 32.4267 391.41 32.0013 391.043 31.708C390.677 31.4073 390.145 31.257 389.448 31.257H387.578V34.711H389.448ZM398.842 36.075H394.75L393.903 38H392.77L396.257 30.3H397.346L400.844 38H399.689L398.842 36.075ZM398.457 35.195L396.796 31.422L395.135 35.195H398.457ZM407.344 30.3V38H406.255V34.953C405.441 35.2683 404.69 35.426 404 35.426C403.062 35.426 402.332 35.1987 401.811 34.744C401.298 34.2893 401.041 33.6403 401.041 32.797V30.3H402.119V32.676C402.119 33.248 402.292 33.688 402.636 33.996C402.988 34.304 403.483 34.458 404.121 34.458C404.833 34.458 405.544 34.2967 406.255 33.974V30.3H407.344ZM416.368 30.3V38H415.268V34.568H410.846V38H409.746V30.3H410.846V33.611H415.268V30.3H416.368ZM422.234 38.088C421.457 38.088 420.757 37.9193 420.133 37.582C419.51 37.2373 419.019 36.7643 418.659 36.163C418.307 35.5617 418.131 34.8907 418.131 34.15C418.131 33.4093 418.307 32.7383 418.659 32.137C419.019 31.5357 419.51 31.0663 420.133 30.729C420.757 30.3843 421.457 30.212 422.234 30.212C423.004 30.212 423.701 30.3843 424.324 30.729C424.948 31.0663 425.435 31.5357 425.787 32.137C426.139 32.731 426.315 33.402 426.315 34.15C426.315 34.898 426.139 35.5727 425.787 36.174C425.435 36.768 424.948 37.2373 424.324 37.582C423.701 37.9193 423.004 38.088 422.234 38.088ZM422.234 37.109C422.799 37.109 423.305 36.9807 423.752 36.724C424.207 36.4673 424.563 36.1153 424.819 35.668C425.083 35.2133 425.215 34.7073 425.215 34.15C425.215 33.5927 425.083 33.0903 424.819 32.643C424.563 32.1883 424.207 31.8327 423.752 31.576C423.305 31.3193 422.799 31.191 422.234 31.191C421.67 31.191 421.156 31.3193 420.694 31.576C420.24 31.8327 419.88 32.1883 419.616 32.643C419.36 33.0903 419.231 33.5927 419.231 34.15C419.231 34.7073 419.36 35.2133 419.616 35.668C419.88 36.1153 420.24 36.4673 420.694 36.724C421.156 36.9807 421.67 37.109 422.234 37.109ZM431.537 38.088C430.767 38.088 430.07 37.9193 429.447 37.582C428.831 37.2373 428.347 36.768 427.995 36.174C427.643 35.5727 427.467 34.898 427.467 34.15C427.467 33.402 427.643 32.731 427.995 32.137C428.347 31.5357 428.834 31.0663 429.458 30.729C430.081 30.3843 430.778 30.212 431.548 30.212C432.149 30.212 432.699 30.3147 433.198 30.52C433.696 30.718 434.122 31.015 434.474 31.411L433.759 32.104C433.179 31.4953 432.457 31.191 431.592 31.191C431.02 31.191 430.503 31.3193 430.041 31.576C429.579 31.8327 429.216 32.1883 428.952 32.643C428.695 33.0903 428.567 33.5927 428.567 34.15C428.567 34.7073 428.695 35.2133 428.952 35.668C429.216 36.1153 429.579 36.4673 430.041 36.724C430.503 36.9807 431.02 37.109 431.592 37.109C432.45 37.109 433.172 36.801 433.759 36.185L434.474 36.878C434.122 37.274 433.693 37.5747 433.187 37.78C432.688 37.9853 432.138 38.088 431.537 38.088ZM441.194 31.257H438.554V38H437.476V31.257H434.847V30.3H441.194V31.257ZM442.531 30.3H443.62V36.24L448.174 30.3H449.186V38H448.108V32.071L443.543 38H442.531V30.3ZM206.536 55.043V57.683H205.513V56H199.177L199.166 57.683H198.143L198.154 55.043H198.528C199.012 55.0137 199.353 54.6323 199.551 53.899C199.749 53.1583 199.87 52.117 199.914 50.775L199.991 48.3H205.403V55.043H206.536ZM200.882 50.874C200.845 51.9593 200.757 52.8577 200.618 53.569C200.486 54.2803 200.27 54.7717 199.969 55.043H204.314V49.257H200.937L200.882 50.874ZM211.505 56.088C210.727 56.088 210.027 55.9193 209.404 55.582C208.78 55.2373 208.289 54.7643 207.93 54.163C207.578 53.5617 207.402 52.8907 207.402 52.15C207.402 51.4093 207.578 50.7383 207.93 50.137C208.289 49.5357 208.78 49.0663 209.404 48.729C210.027 48.3843 210.727 48.212 211.505 48.212C212.275 48.212 212.971 48.3843 213.595 48.729C214.218 49.0663 214.706 49.5357 215.058 50.137C215.41 50.731 215.586 51.402 215.586 52.15C215.586 52.898 215.41 53.5727 215.058 54.174C214.706 54.768 214.218 55.2373 213.595 55.582C212.971 55.9193 212.275 56.088 211.505 56.088ZM211.505 55.109C212.069 55.109 212.575 54.9807 213.023 54.724C213.477 54.4673 213.833 54.1153 214.09 53.668C214.354 53.2133 214.486 52.7073 214.486 52.15C214.486 51.5927 214.354 51.0903 214.09 50.643C213.833 50.1883 213.477 49.8327 213.023 49.576C212.575 49.3193 212.069 49.191 211.505 49.191C210.94 49.191 210.427 49.3193 209.965 49.576C209.51 49.8327 209.151 50.1883 208.887 50.643C208.63 51.0903 208.502 51.5927 208.502 52.15C208.502 52.7073 208.63 53.2133 208.887 53.668C209.151 54.1153 209.51 54.4673 209.965 54.724C210.427 54.9807 210.94 55.109 211.505 55.109ZM217.364 48.3H223.172V49.235H218.453V51.435H220.851C221.768 51.435 222.464 51.6257 222.941 52.007C223.418 52.3883 223.656 52.9383 223.656 53.657C223.656 54.4123 223.396 54.9917 222.875 55.395C222.362 55.7983 221.625 56 220.664 56H217.364V48.3ZM220.62 55.131C221.251 55.131 221.731 55.01 222.061 54.768C222.391 54.526 222.556 54.1703 222.556 53.701C222.556 52.7697 221.911 52.304 220.62 52.304H218.453V55.131H220.62ZM228.787 50.984C229.704 50.984 230.404 51.1893 230.888 51.6C231.379 52.0107 231.625 52.6157 231.625 53.415C231.625 54.2583 231.361 54.9 230.833 55.34C230.312 55.78 229.564 56 228.589 56H225.41V48.3H226.499V50.984H228.787ZM228.545 55.131C229.183 55.131 229.671 54.988 230.008 54.702C230.353 54.4087 230.525 53.987 230.525 53.437C230.525 52.381 229.865 51.853 228.545 51.853H226.499V55.131H228.545ZM232.846 48.3H233.935V56H232.846V48.3ZM241.131 52.007C241.651 52.1317 242.044 52.3553 242.308 52.678C242.579 52.9933 242.715 53.4003 242.715 53.899C242.715 54.5663 242.469 55.0833 241.978 55.45C241.494 55.8167 240.786 56 239.855 56H236.335V48.3H239.646C240.489 48.3 241.145 48.4723 241.615 48.817C242.091 49.1543 242.33 49.642 242.33 50.28C242.33 50.698 242.223 51.0537 242.011 51.347C241.805 51.6403 241.512 51.8603 241.131 52.007ZM237.424 51.688H239.569C240.104 51.688 240.511 51.5817 240.79 51.369C241.076 51.1563 241.219 50.8447 241.219 50.434C241.219 50.0233 241.076 49.7117 240.79 49.499C240.504 49.279 240.097 49.169 239.569 49.169H237.424V51.688ZM239.833 55.131C241.013 55.131 241.604 54.691 241.604 53.811C241.604 53.371 241.453 53.0483 241.153 52.843C240.859 52.6303 240.419 52.524 239.833 52.524H237.424V55.131H239.833ZM249.558 54.075H245.466L244.619 56H243.486L246.973 48.3H248.062L251.56 56H250.405L249.558 54.075ZM249.173 53.195L247.512 49.422L245.851 53.195H249.173ZM259.268 48.212C260.009 48.212 260.676 48.3843 261.27 48.729C261.864 49.0663 262.33 49.5357 262.667 50.137C263.012 50.731 263.184 51.402 263.184 52.15C263.184 52.898 263.012 53.5727 262.667 54.174C262.33 54.768 261.864 55.2373 261.27 55.582C260.676 55.9193 260.009 56.088 259.268 56.088C258.579 56.088 257.952 55.9377 257.387 55.637C256.823 55.3363 256.364 54.922 256.012 54.394C255.66 53.866 255.451 53.2647 255.385 52.59H253.977V56H252.888V48.3H253.977V51.6H255.396C255.477 50.9473 255.693 50.3643 256.045 49.851C256.405 49.3377 256.863 48.938 257.42 48.652C257.978 48.3587 258.594 48.212 259.268 48.212ZM259.268 55.098C259.796 55.098 260.273 54.9733 260.698 54.724C261.131 54.4673 261.468 54.1153 261.71 53.668C261.96 53.2207 262.084 52.7147 262.084 52.15C262.084 51.5853 261.96 51.0793 261.71 50.632C261.468 50.1847 261.131 49.8363 260.698 49.587C260.273 49.3303 259.796 49.202 259.268 49.202C258.748 49.202 258.275 49.3303 257.849 49.587C257.424 49.8363 257.087 50.1847 256.837 50.632C256.595 51.0793 256.474 51.5853 256.474 52.15C256.474 52.7147 256.595 53.2207 256.837 53.668C257.087 54.1153 257.424 54.4673 257.849 54.724C258.275 54.9733 258.748 55.098 259.268 55.098ZM274.62 48.3V56H264.973V48.3H266.062V55.043H269.263V48.3H270.341V55.043H273.542V48.3H274.62ZM275.775 55.043V57.683H274.763V56H273.52V55.043H275.775ZM277.295 48.3H278.384V54.24L282.938 48.3H283.95V56H282.872V50.071L278.307 56H277.295V48.3ZM286.79 48.3L288.803 51.116L290.816 48.3H292.103L289.496 51.996L292.312 56H291.014L288.803 52.931L286.603 56H285.338L288.143 52.04L285.525 48.3H286.79ZM300.117 56.088C299.34 56.088 298.639 55.9193 298.016 55.582C297.393 55.2373 296.901 54.7643 296.542 54.163C296.19 53.5617 296.014 52.8907 296.014 52.15C296.014 51.4093 296.19 50.7383 296.542 50.137C296.901 49.5357 297.393 49.0663 298.016 48.729C298.639 48.3843 299.34 48.212 300.117 48.212C300.887 48.212 301.584 48.3843 302.207 48.729C302.83 49.0663 303.318 49.5357 303.67 50.137C304.022 50.731 304.198 51.402 304.198 52.15C304.198 52.898 304.022 53.5727 303.67 54.174C303.318 54.768 302.83 55.2373 302.207 55.582C301.584 55.9193 300.887 56.088 300.117 56.088ZM300.117 55.109C300.682 55.109 301.188 54.9807 301.635 54.724C302.09 54.4673 302.445 54.1153 302.702 53.668C302.966 53.2133 303.098 52.7073 303.098 52.15C303.098 51.5927 302.966 51.0903 302.702 50.643C302.445 50.1883 302.09 49.8327 301.635 49.576C301.188 49.3193 300.682 49.191 300.117 49.191C299.552 49.191 299.039 49.3193 298.577 49.576C298.122 49.8327 297.763 50.1883 297.499 50.643C297.242 51.0903 297.114 51.5927 297.114 52.15C297.114 52.7073 297.242 53.2133 297.499 53.668C297.763 54.1153 298.122 54.4673 298.577 54.724C299.039 54.9807 299.552 55.109 300.117 55.109ZM311.16 49.257H308.52V56H307.442V49.257H304.813V48.3H311.16V49.257ZM315.5 48.3C316.497 48.3 317.282 48.5383 317.854 49.015C318.426 49.4917 318.712 50.148 318.712 50.984C318.712 51.82 318.426 52.4763 317.854 52.953C317.282 53.4297 316.497 53.668 315.5 53.668H313.597V56H312.497V48.3H315.5ZM315.467 52.711C316.164 52.711 316.695 52.5643 317.062 52.271C317.429 51.9703 317.612 51.5413 317.612 50.984C317.612 50.4267 317.429 50.0013 317.062 49.708C316.695 49.4073 316.164 49.257 315.467 49.257H313.597V52.711H315.467ZM324.86 54.075H320.768L319.921 56H318.788L322.275 48.3H323.364L326.862 56H325.707L324.86 54.075ZM324.475 53.195L322.814 49.422L321.153 53.195H324.475ZM331.527 56.088C330.757 56.088 330.06 55.9193 329.437 55.582C328.821 55.2373 328.337 54.768 327.985 54.174C327.633 53.5727 327.457 52.898 327.457 52.15C327.457 51.402 327.633 50.731 327.985 50.137C328.337 49.5357 328.824 49.0663 329.448 48.729C330.071 48.3843 330.768 48.212 331.538 48.212C332.139 48.212 332.689 48.3147 333.188 48.52C333.686 48.718 334.112 49.015 334.464 49.411L333.749 50.104C333.169 49.4953 332.447 49.191 331.582 49.191C331.01 49.191 330.493 49.3193 330.031 49.576C329.569 49.8327 329.206 50.1883 328.942 50.643C328.685 51.0903 328.557 51.5927 328.557 52.15C328.557 52.7073 328.685 53.2133 328.942 53.668C329.206 54.1153 329.569 54.4673 330.031 54.724C330.493 54.9807 331.01 55.109 331.582 55.109C332.44 55.109 333.162 54.801 333.749 54.185L334.464 54.878C334.112 55.274 333.683 55.5747 333.177 55.78C332.678 55.9853 332.128 56.088 331.527 56.088ZM342.078 48.3V56H341V49.257H337.59L337.513 51.512C337.476 52.5753 337.388 53.437 337.249 54.097C337.117 54.757 336.904 55.2557 336.611 55.593C336.318 55.923 335.922 56.088 335.423 56.088C335.196 56.088 334.965 56.0587 334.73 56L334.807 55.021C334.924 55.0503 335.042 55.065 335.159 55.065C335.474 55.065 335.727 54.9403 335.918 54.691C336.109 54.4343 336.252 54.053 336.347 53.547C336.442 53.041 336.505 52.3737 336.534 51.545L336.655 48.3H342.078ZM350.064 55.043V56H344.476V48.3H349.91V49.257H345.576V51.622H349.437V52.557H345.576V55.043H350.064ZM351.792 48.3H352.881V54.24L357.435 48.3H358.447V56H357.369V50.071L352.804 56H351.792V48.3ZM355.103 47.761C354.501 47.761 354.036 47.6327 353.706 47.376C353.383 47.112 353.218 46.738 353.211 46.254H353.992C353.999 46.54 354.098 46.7637 354.289 46.925C354.487 47.079 354.758 47.156 355.103 47.156C355.433 47.156 355.697 47.079 355.895 46.925C356.1 46.7637 356.206 46.54 356.214 46.254H356.984C356.976 46.7307 356.808 47.101 356.478 47.365C356.155 47.629 355.697 47.761 355.103 47.761Z" fill="black"/>
</svg>
