<svg width="410" height="61" viewBox="0 0 410 61" fill="none" xmlns="http://www.w3.org/2000/svg">
<path d="M14.7087 10.5998C17.0973 10.5998 19.1716 11.0021 20.9316 11.8067C22.6916 12.5861 24.0493 13.7176 25.0047 15.201C25.9602 16.6593 26.4379 18.3816 26.4379 20.3679C26.4379 22.3542 25.9602 24.0765 25.0047 25.5348C24.0493 26.9931 22.6916 28.1245 20.9316 28.9291C19.1716 29.7085 17.0973 30.0982 14.7087 30.0982H10.1075V37H2.64002V10.5998H14.7087ZM14.2561 24.2148C15.7898 24.2148 16.9464 23.8879 17.7258 23.2342C18.5053 22.5553 18.895 21.5999 18.895 20.3679C18.895 19.1359 18.5053 18.1805 17.7258 17.5016C16.9464 16.8227 15.7898 16.4833 14.2561 16.4833H10.1075V24.2148H14.2561ZM50.3692 23.2342C51.8778 23.7622 53.0595 24.5919 53.9144 25.7234C54.7693 26.8296 55.1967 28.1748 55.1967 29.7588C55.1967 32.072 54.2664 33.8571 52.4058 35.1143C50.5452 36.3714 47.8549 37 44.3349 37H30.0788V10.5998H43.5806C46.9498 10.5998 49.5144 11.2284 51.2744 12.4856C53.0344 13.7176 53.9144 15.3896 53.9144 17.5016C53.9144 18.7587 53.6001 19.8902 52.9715 20.8959C52.3681 21.8765 51.5007 22.6559 50.3692 23.2342ZM37.4709 15.993V21.0845H42.6C45.1143 21.0845 46.3715 20.2296 46.3715 18.5199C46.3715 16.8353 45.1143 15.993 42.6 15.993H37.4709ZM43.7315 31.6068C46.3463 31.6068 47.6538 30.7142 47.6538 28.9291C47.6538 27.1439 46.3463 26.2514 43.7315 26.2514H37.4709V31.6068H43.7315ZM72.3777 37.528C69.5868 37.528 67.0725 36.9371 64.8348 35.7554C62.6222 34.5737 60.8748 32.9394 59.5925 30.8525C58.3353 28.7657 57.7068 26.4148 57.7068 23.7999C57.7068 21.185 58.3353 18.8342 59.5925 16.7473C60.8748 14.6604 62.6222 13.0261 64.8348 11.8444C67.0725 10.6627 69.5868 10.0718 72.3777 10.0718C75.1686 10.0718 77.6703 10.6627 79.8829 11.8444C82.1206 13.0261 83.8681 14.6604 85.1252 16.7473C86.4075 18.8342 87.0487 21.185 87.0487 23.7999C87.0487 26.4148 86.4075 28.7657 85.1252 30.8525C83.8681 32.9394 82.1206 34.5737 79.8829 35.7554C77.6703 36.9371 75.1686 37.528 72.3777 37.528ZM72.3777 31.3428C73.7103 31.3428 74.9172 31.0285 75.9983 30.4C77.0795 29.7714 77.9343 28.8914 78.5629 27.7599C79.1915 26.6034 79.5058 25.2834 79.5058 23.7999C79.5058 22.3165 79.1915 21.009 78.5629 19.8776C77.9343 18.721 77.0795 17.8284 75.9983 17.1999C74.9172 16.5713 73.7103 16.257 72.3777 16.257C71.0451 16.257 69.8383 16.5713 68.7571 17.1999C67.676 17.8284 66.8211 18.721 66.1925 19.8776C65.564 21.009 65.2497 22.3165 65.2497 23.7999C65.2497 25.2834 65.564 26.6034 66.1925 27.7599C66.8211 28.8914 67.676 29.7714 68.7571 30.4C69.8383 31.0285 71.0451 31.3428 72.3777 31.3428ZM90.2037 23.4982H101.216V29.0045H90.2037V23.4982ZM126.851 31.2297V37H105.655V10.5998H126.36V16.3702H113.047V20.8205H124.776V26.4022H113.047V31.2297H126.851Z" fill="#0032A4"/>
<path d="M130.995 10.5998H138.462V37H130.995V10.5998Z" fill="#0063A5"/>
<path d="M149.394 16.521H141.286V10.5998H164.933V16.521H156.862V37H149.394V16.521Z" fill="#00A5E2"/>
<path d="M167.715 10.5998H175.182V37H167.715V10.5998Z" fill="#00CAFF"/>
<path d="M5.40331 50.3484H2.61929V49.0284H9.74734V50.3484H6.96332V57.4285H5.40331V50.3484ZM27.2243 55.4845H23.0243L22.1963 57.4285H20.5883L24.3683 49.0284H25.9043L29.6963 57.4285H28.0643L27.2243 55.4845ZM26.7083 54.2604L25.1243 50.5884L23.5523 54.2604H26.7083ZM43.5285 57.5485C42.9925 57.5485 42.4965 57.4445 42.0405 57.2365C41.5925 57.0205 41.2245 56.7205 40.9365 56.3365L41.8245 55.2685C42.2885 55.9085 42.8445 56.2285 43.4925 56.2285C44.3645 56.2285 44.8005 55.7125 44.8005 54.6804V50.3364H41.8125V49.0284H46.3605V54.5964C46.3605 55.5805 46.1205 56.3205 45.6405 56.8165C45.1605 57.3045 44.4565 57.5485 43.5285 57.5485ZM59.8287 49.0284H61.3887V57.4285H59.8287V49.0284ZM77.8329 53.9124L76.5009 55.2805V57.4285H74.9408V49.0284H76.5009V53.3364L80.6529 49.0284H82.4049L78.8769 52.7844L82.6209 57.4285H80.7969L77.8329 53.9124ZM94.9632 49.0284H96.5232V57.4285H94.9632V49.0284ZM112.679 57.5485C112.031 57.5485 111.403 57.4565 110.795 57.2725C110.195 57.0885 109.719 56.8445 109.367 56.5405L109.907 55.3285C110.251 55.6005 110.671 55.8245 111.167 56.0005C111.671 56.1685 112.175 56.2525 112.679 56.2525C113.303 56.2525 113.767 56.1525 114.071 55.9525C114.383 55.7525 114.539 55.4885 114.539 55.1605C114.539 54.9205 114.451 54.7244 114.275 54.5724C114.107 54.4124 113.891 54.2884 113.627 54.2004C113.363 54.1124 113.003 54.0124 112.547 53.9004C111.907 53.7484 111.387 53.5964 110.987 53.4444C110.595 53.2924 110.255 53.0564 109.967 52.7364C109.687 52.4084 109.547 51.9684 109.547 51.4164C109.547 50.9524 109.671 50.5324 109.919 50.1564C110.175 49.7724 110.555 49.4684 111.059 49.2444C111.571 49.0204 112.195 48.9084 112.931 48.9084C113.443 48.9084 113.947 48.9724 114.443 49.1004C114.939 49.2284 115.367 49.4124 115.727 49.6524L115.235 50.8644C114.867 50.6484 114.483 50.4844 114.083 50.3724C113.683 50.2604 113.295 50.2044 112.919 50.2044C112.303 50.2044 111.843 50.3084 111.539 50.5164C111.243 50.7244 111.095 51.0004 111.095 51.3444C111.095 51.5844 111.179 51.7804 111.347 51.9324C111.523 52.0844 111.743 52.2044 112.007 52.2924C112.271 52.3804 112.631 52.4804 113.087 52.5924C113.711 52.7364 114.223 52.8884 114.623 53.0484C115.023 53.2004 115.363 53.4364 115.643 53.7564C115.931 54.0764 116.075 54.5084 116.075 55.0525C116.075 55.5165 115.947 55.9365 115.691 56.3125C115.443 56.6885 115.063 56.9885 114.551 57.2125C114.039 57.4365 113.415 57.5485 112.679 57.5485ZM130.489 50.3484H127.705V49.0284H134.833V50.3484H132.049V57.4285H130.489V50.3484ZM152.31 55.4845H148.11L147.282 57.4285H145.674L149.454 49.0284H150.99L154.782 57.4285H153.15L152.31 55.4845ZM151.794 54.2604L150.21 50.5884L148.638 54.2604H151.794ZM174.595 49.0284V57.4285H173.311L168.679 51.7404V57.4285H167.13V49.0284H168.415L173.047 54.7164V49.0284H174.595Z" fill="black"/>
<path d="M202.158 12.3C203.155 12.3 203.94 12.5383 204.512 13.015C205.084 13.4917 205.37 14.148 205.37 14.984C205.37 15.82 205.084 16.4763 204.512 16.953C203.94 17.4297 203.155 17.668 202.158 17.668H200.255V20H199.155V12.3H202.158ZM202.125 16.711C202.822 16.711 203.353 16.5643 203.72 16.271C204.087 15.9703 204.27 15.5413 204.27 14.984C204.27 14.4267 204.087 14.0013 203.72 13.708C203.353 13.4073 202.822 13.257 202.125 13.257H200.255V16.711H202.125ZM210.569 20.088C209.792 20.088 209.092 19.9193 208.468 19.582C207.845 19.2373 207.354 18.7643 206.994 18.163C206.642 17.5617 206.466 16.8907 206.466 16.15C206.466 15.4093 206.642 14.7383 206.994 14.137C207.354 13.5357 207.845 13.0663 208.468 12.729C209.092 12.3843 209.792 12.212 210.569 12.212C211.339 12.212 212.036 12.3843 212.659 12.729C213.283 13.0663 213.77 13.5357 214.122 14.137C214.474 14.731 214.65 15.402 214.65 16.15C214.65 16.898 214.474 17.5727 214.122 18.174C213.77 18.768 213.283 19.2373 212.659 19.582C212.036 19.9193 211.339 20.088 210.569 20.088ZM210.569 19.109C211.134 19.109 211.64 18.9807 212.087 18.724C212.542 18.4673 212.898 18.1153 213.154 17.668C213.418 17.2133 213.55 16.7073 213.55 16.15C213.55 15.5927 213.418 15.0903 213.154 14.643C212.898 14.1883 212.542 13.8327 212.087 13.576C211.64 13.3193 211.134 13.191 210.569 13.191C210.005 13.191 209.491 13.3193 209.029 13.576C208.575 13.8327 208.215 14.1883 207.951 14.643C207.695 15.0903 207.566 15.5927 207.566 16.15C207.566 16.7073 207.695 17.2133 207.951 17.668C208.215 18.1153 208.575 18.4673 209.029 18.724C209.491 18.9807 210.005 19.109 210.569 19.109ZM221.48 20L219.819 17.635C219.613 17.6497 219.452 17.657 219.335 17.657H217.432V20H216.332V12.3H219.335C220.332 12.3 221.117 12.5383 221.689 13.015C222.261 13.4917 222.547 14.148 222.547 14.984C222.547 15.578 222.4 16.084 222.107 16.502C221.813 16.92 221.395 17.2243 220.853 17.415L222.679 20H221.48ZM219.302 16.722C219.998 16.722 220.53 16.5717 220.897 16.271C221.263 15.9703 221.447 15.5413 221.447 14.984C221.447 14.4267 221.263 14.0013 220.897 13.708C220.53 13.4073 219.998 13.257 219.302 13.257H217.432V16.722H219.302ZM225.746 13.257H223.106V12.3H229.475V13.257H226.835V20H225.746V13.257ZM235.192 18.075H231.1L230.253 20H229.12L232.607 12.3H233.696L237.194 20H236.039L235.192 18.075ZM234.807 17.195L233.146 13.422L231.485 17.195H234.807ZM238.343 12.3H239.443V19.043H243.612V20H238.343V12.3ZM251.304 20.088C250.527 20.088 249.826 19.9193 249.203 19.582C248.58 19.2373 248.088 18.7643 247.729 18.163C247.377 17.5617 247.201 16.8907 247.201 16.15C247.201 15.4093 247.377 14.7383 247.729 14.137C248.088 13.5357 248.58 13.0663 249.203 12.729C249.826 12.3843 250.527 12.212 251.304 12.212C252.074 12.212 252.771 12.3843 253.394 12.729C254.017 13.0663 254.505 13.5357 254.857 14.137C255.209 14.731 255.385 15.402 255.385 16.15C255.385 16.898 255.209 17.5727 254.857 18.174C254.505 18.768 254.017 19.2373 253.394 19.582C252.771 19.9193 252.074 20.088 251.304 20.088ZM251.304 19.109C251.869 19.109 252.375 18.9807 252.822 18.724C253.277 18.4673 253.632 18.1153 253.889 17.668C254.153 17.2133 254.285 16.7073 254.285 16.15C254.285 15.5927 254.153 15.0903 253.889 14.643C253.632 14.1883 253.277 13.8327 252.822 13.576C252.375 13.3193 251.869 13.191 251.304 13.191C250.739 13.191 250.226 13.3193 249.764 13.576C249.309 13.8327 248.95 14.1883 248.686 14.643C248.429 15.0903 248.301 15.5927 248.301 16.15C248.301 16.7073 248.429 17.2133 248.686 17.668C248.95 18.1153 249.309 18.4673 249.764 18.724C250.226 18.9807 250.739 19.109 251.304 19.109ZM258.166 13.257V15.941H262.027V16.887H258.166V20H257.066V12.3H262.5V13.257H258.166ZM272.184 16.007C272.631 16.1317 272.983 16.359 273.24 16.689C273.496 17.0117 273.625 17.4223 273.625 17.921C273.625 18.5883 273.372 19.1017 272.866 19.461C272.367 19.8203 271.637 20 270.677 20H267.003V12.3H270.457C271.337 12.3 272.015 12.476 272.492 12.828C272.976 13.18 273.218 13.6677 273.218 14.291C273.218 14.6943 273.122 15.0427 272.932 15.336C272.748 15.6293 272.499 15.853 272.184 16.007ZM268.103 13.191V15.655H270.358C270.922 15.655 271.355 15.5523 271.656 15.347C271.964 15.1343 272.118 14.8263 272.118 14.423C272.118 14.0197 271.964 13.7153 271.656 13.51C271.355 13.2973 270.922 13.191 270.358 13.191H268.103ZM270.633 19.109C271.256 19.109 271.725 19.0063 272.041 18.801C272.356 18.5957 272.514 18.273 272.514 17.833C272.514 16.975 271.887 16.546 270.633 16.546H268.103V19.109H270.633ZM280.916 19.043V20H275.328V12.3H280.762V13.257H276.428V15.622H280.289V16.557H276.428V19.043H280.916ZM289.319 12.3V20H288.417L283.797 14.258V20H282.697V12.3H283.599L288.219 18.042V12.3H289.319ZM297.212 19.043V20H291.624V12.3H297.058V13.257H292.724V15.622H296.585V16.557H292.724V19.043H297.212ZM300.093 13.257V15.941H303.954V16.887H300.093V20H298.993V12.3H304.427V13.257H300.093ZM305.975 12.3H307.075V20H305.975V12.3ZM312.824 20.088C312.054 20.088 311.357 19.9193 310.734 19.582C310.118 19.2373 309.634 18.768 309.282 18.174C308.93 17.5727 308.754 16.898 308.754 16.15C308.754 15.402 308.93 14.731 309.282 14.137C309.634 13.5357 310.121 13.0663 310.745 12.729C311.368 12.3843 312.065 12.212 312.835 12.212C313.436 12.212 313.986 12.3147 314.485 12.52C314.983 12.718 315.409 13.015 315.761 13.411L315.046 14.104C314.466 13.4953 313.744 13.191 312.879 13.191C312.307 13.191 311.79 13.3193 311.328 13.576C310.866 13.8327 310.503 14.1883 310.239 14.643C309.982 15.0903 309.854 15.5927 309.854 16.15C309.854 16.7073 309.982 17.2133 310.239 17.668C310.503 18.1153 310.866 18.4673 311.328 18.724C311.79 18.9807 312.307 19.109 312.879 19.109C313.737 19.109 314.459 18.801 315.046 18.185L315.761 18.878C315.409 19.274 314.98 19.5747 314.474 19.78C313.975 19.9853 313.425 20.088 312.824 20.088ZM317.33 12.3H318.43V20H317.33V12.3ZM325.641 18.075H321.549L320.702 20H319.569L323.056 12.3H324.145L327.643 20H326.488L325.641 18.075ZM325.256 17.195L323.595 13.422L321.934 17.195H325.256ZM328.792 12.3H329.892V19.043H334.061V20H328.792V12.3ZM341.753 20.088C340.976 20.088 340.275 19.9193 339.652 19.582C339.029 19.2373 338.537 18.7643 338.178 18.163C337.826 17.5617 337.65 16.8907 337.65 16.15C337.65 15.4093 337.826 14.7383 338.178 14.137C338.537 13.5357 339.029 13.0663 339.652 12.729C340.275 12.3843 340.976 12.212 341.753 12.212C342.523 12.212 343.22 12.3843 343.843 12.729C344.466 13.0663 344.954 13.5357 345.306 14.137C345.658 14.731 345.834 15.402 345.834 16.15C345.834 16.898 345.658 17.5727 345.306 18.174C344.954 18.768 344.466 19.2373 343.843 19.582C343.22 19.9193 342.523 20.088 341.753 20.088ZM341.753 19.109C342.318 19.109 342.824 18.9807 343.271 18.724C343.726 18.4673 344.081 18.1153 344.338 17.668C344.602 17.2133 344.734 16.7073 344.734 16.15C344.734 15.5927 344.602 15.0903 344.338 14.643C344.081 14.1883 343.726 13.8327 343.271 13.576C342.824 13.3193 342.318 13.191 341.753 13.191C341.188 13.191 340.675 13.3193 340.213 13.576C339.758 13.8327 339.399 14.1883 339.135 14.643C338.878 15.0903 338.75 15.5927 338.75 16.15C338.75 16.7073 338.878 17.2133 339.135 17.668C339.399 18.1153 339.758 18.4673 340.213 18.724C340.675 18.9807 341.188 19.109 341.753 19.109ZM358.147 12.3L355.573 20H354.418L352.317 13.851L350.216 20H349.039L346.465 12.3H347.598L349.677 18.559L351.844 12.3H352.856L354.979 18.592L357.102 12.3H358.147ZM366.115 12.3V20H365.213L360.593 14.258V20H359.493V12.3H360.395L365.015 18.042V12.3H366.115ZM374.008 19.043V20H368.42V12.3H373.854V13.257H369.52V15.622H373.381V16.557H369.52V19.043H374.008ZM380.937 20L379.276 17.635C379.07 17.6497 378.909 17.657 378.792 17.657H376.889V20H375.789V12.3H378.792C379.789 12.3 380.574 12.5383 381.146 13.015C381.718 13.4917 382.004 14.148 382.004 14.984C382.004 15.578 381.857 16.084 381.564 16.502C381.27 16.92 380.852 17.2243 380.31 17.415L382.136 20H380.937ZM378.759 16.722C379.455 16.722 379.987 16.5717 380.354 16.271C380.72 15.9703 380.904 15.5413 380.904 14.984C380.904 14.4267 380.72 14.0013 380.354 13.708C379.987 13.4073 379.455 13.257 378.759 13.257H376.889V16.722H378.759ZM386.025 20.088C385.446 20.088 384.885 20 384.342 19.824C383.807 19.6407 383.385 19.406 383.077 19.12L383.484 18.262C383.777 18.526 384.151 18.7423 384.606 18.911C385.068 19.0723 385.541 19.153 386.025 19.153C386.663 19.153 387.14 19.0467 387.455 18.834C387.77 18.614 387.928 18.3243 387.928 17.965C387.928 17.701 387.84 17.4883 387.664 17.327C387.495 17.1583 387.283 17.03 387.026 16.942C386.777 16.854 386.421 16.755 385.959 16.645C385.38 16.5057 384.91 16.3663 384.551 16.227C384.199 16.0877 383.895 15.875 383.638 15.589C383.389 15.2957 383.264 14.9033 383.264 14.412C383.264 14.0013 383.37 13.631 383.583 13.301C383.803 12.971 384.133 12.707 384.573 12.509C385.013 12.311 385.559 12.212 386.212 12.212C386.667 12.212 387.114 12.2707 387.554 12.388C387.994 12.5053 388.372 12.674 388.687 12.894L388.324 13.774C388.001 13.5687 387.657 13.4147 387.29 13.312C386.923 13.202 386.564 13.147 386.212 13.147C385.589 13.147 385.119 13.2607 384.804 13.488C384.496 13.7153 384.342 14.0087 384.342 14.368C384.342 14.632 384.43 14.8483 384.606 15.017C384.782 15.1783 384.998 15.3067 385.255 15.402C385.519 15.49 385.875 15.5853 386.322 15.688C386.901 15.8273 387.367 15.9667 387.719 16.106C388.071 16.2453 388.372 16.458 388.621 16.744C388.878 17.03 389.006 17.415 389.006 17.899C389.006 18.3023 388.896 18.6727 388.676 19.01C388.456 19.34 388.122 19.604 387.675 19.802C387.228 19.9927 386.678 20.088 386.025 20.088ZM397.235 12.3V20H396.135V16.568H391.713V20H390.613V12.3H391.713V15.611H396.135V12.3H397.235ZM399.54 12.3H400.64V20H399.54V12.3ZM405.948 12.3C406.945 12.3 407.73 12.5383 408.302 13.015C408.874 13.4917 409.16 14.148 409.16 14.984C409.16 15.82 408.874 16.4763 408.302 16.953C407.73 17.4297 406.945 17.668 405.948 17.668H404.045V20H402.945V12.3H405.948ZM405.915 16.711C406.612 16.711 407.143 16.5643 407.51 16.271C407.877 15.9703 408.06 15.5413 408.06 14.984C408.06 14.4267 407.877 14.0013 407.51 13.708C407.143 13.4073 406.612 13.257 405.915 13.257H404.045V16.711H405.915ZM210.034 30.3L207.46 38H206.305L204.204 31.851L202.103 38H200.926L198.352 30.3H199.485L201.564 36.559L203.731 30.3H204.743L206.866 36.592L208.989 30.3H210.034ZM211.38 30.3H212.48V38H211.38V30.3ZM216.314 31.257H213.674V30.3H220.043V31.257H217.403V38H216.314V31.257ZM227.863 30.3V38H226.763V34.568H222.341V38H221.241V30.3H222.341V33.611H226.763V30.3H227.863ZM230.168 30.3H231.268V38H230.168V30.3ZM240.195 30.3V38H239.293L234.673 32.258V38H233.573V30.3H234.475L239.095 36.042V30.3H240.195ZM251.042 37.043V38H245.454V30.3H250.888V31.257H246.554V33.622H250.415V34.557H246.554V37.043H251.042ZM257.577 38L255.267 34.821L252.99 38H251.725L254.618 34.051L251.901 30.3H253.155L255.311 33.259L257.445 30.3H258.644L255.927 34.018L258.842 38H257.577ZM261.334 31.257H258.694V30.3H265.063V31.257H262.423V38H261.334V31.257ZM271.409 38L269.748 35.635C269.543 35.6497 269.382 35.657 269.264 35.657H267.361V38H266.261V30.3H269.264C270.262 30.3 271.046 30.5383 271.618 31.015C272.19 31.4917 272.476 32.148 272.476 32.984C272.476 33.578 272.33 34.084 272.036 34.502C271.743 34.92 271.325 35.2243 270.782 35.415L272.608 38H271.409ZM269.231 34.722C269.928 34.722 270.46 34.5717 270.826 34.271C271.193 33.9703 271.376 33.5413 271.376 32.984C271.376 32.4267 271.193 32.0013 270.826 31.708C270.46 31.4073 269.928 31.257 269.231 31.257H267.361V34.722H269.231ZM279.16 36.075H275.068L274.221 38H273.088L276.575 30.3H277.664L281.162 38H280.007L279.16 36.075ZM278.775 35.195L277.114 31.422L275.453 35.195H278.775ZM285.646 38.088C284.876 38.088 284.179 37.9193 283.556 37.582C282.94 37.2373 282.456 36.768 282.104 36.174C281.752 35.5727 281.576 34.898 281.576 34.15C281.576 33.402 281.752 32.731 282.104 32.137C282.456 31.5357 282.944 31.0663 283.567 30.729C284.19 30.3843 284.887 30.212 285.657 30.212C286.258 30.212 286.808 30.3147 287.307 30.52C287.806 30.718 288.231 31.015 288.583 31.411L287.868 32.104C287.289 31.4953 286.566 31.191 285.701 31.191C285.129 31.191 284.612 31.3193 284.15 31.576C283.688 31.8327 283.325 32.1883 283.061 32.643C282.804 33.0903 282.676 33.5927 282.676 34.15C282.676 34.7073 282.804 35.2133 283.061 35.668C283.325 36.1153 283.688 36.4673 284.15 36.724C284.612 36.9807 285.129 37.109 285.701 37.109C286.559 37.109 287.281 36.801 287.868 36.185L288.583 36.878C288.231 37.274 287.802 37.5747 287.296 37.78C286.797 37.9853 286.247 38.088 285.646 38.088ZM291.595 31.257H288.955V30.3H295.324V31.257H292.684V38H291.595V31.257ZM296.522 30.3H297.622V38H296.522V30.3ZM306.54 30.3L303.163 38H302.074L298.686 30.3H299.874L302.646 36.625L305.44 30.3H306.54ZM313.11 37.043V38H307.522V30.3H312.956V31.257H308.622V33.622H312.483V34.557H308.622V37.043H313.11ZM317.845 30.3H318.945V38H317.845V30.3ZM327.873 30.3V38H326.971L322.351 32.258V38H321.251V30.3H322.153L326.773 36.042V30.3H327.873ZM330.177 30.3H333.422C334.236 30.3 334.959 30.4613 335.589 30.784C336.22 31.1067 336.708 31.5613 337.052 32.148C337.404 32.7273 337.58 33.3947 337.58 34.15C337.58 34.9053 337.404 35.5763 337.052 36.163C336.708 36.7423 336.22 37.1933 335.589 37.516C334.959 37.8387 334.236 38 333.422 38H330.177V30.3ZM333.356 37.043C333.98 37.043 334.526 36.922 334.995 36.68C335.472 36.438 335.839 36.1007 336.095 35.668C336.352 35.228 336.48 34.722 336.48 34.15C336.48 33.578 336.352 33.0757 336.095 32.643C335.839 32.203 335.472 31.862 334.995 31.62C334.526 31.378 333.98 31.257 333.356 31.257H331.277V37.043H333.356ZM342.455 38.088C341.429 38.088 340.629 37.7947 340.057 37.208C339.485 36.6213 339.199 35.778 339.199 34.678V30.3H340.299V34.634C340.299 36.284 341.022 37.109 342.466 37.109C343.17 37.109 343.709 36.9073 344.083 36.504C344.457 36.0933 344.644 35.47 344.644 34.634V30.3H345.711V34.678C345.711 35.7853 345.425 36.6323 344.853 37.219C344.281 37.7983 343.482 38.088 342.455 38.088ZM350.211 38.088C349.631 38.088 349.07 38 348.528 37.824C347.992 37.6407 347.571 37.406 347.263 37.12L347.67 36.262C347.963 36.526 348.337 36.7423 348.792 36.911C349.254 37.0723 349.727 37.153 350.211 37.153C350.849 37.153 351.325 37.0467 351.641 36.834C351.956 36.614 352.114 36.3243 352.114 35.965C352.114 35.701 352.026 35.4883 351.85 35.327C351.681 35.1583 351.468 35.03 351.212 34.942C350.962 34.854 350.607 34.755 350.145 34.645C349.565 34.5057 349.096 34.3663 348.737 34.227C348.385 34.0877 348.08 33.875 347.824 33.589C347.574 33.2957 347.45 32.9033 347.45 32.412C347.45 32.0013 347.556 31.631 347.769 31.301C347.989 30.971 348.319 30.707 348.759 30.509C349.199 30.311 349.745 30.212 350.398 30.212C350.852 30.212 351.3 30.2707 351.74 30.388C352.18 30.5053 352.557 30.674 352.873 30.894L352.51 31.774C352.187 31.5687 351.842 31.4147 351.476 31.312C351.109 31.202 350.75 31.147 350.398 31.147C349.774 31.147 349.305 31.2607 348.99 31.488C348.682 31.7153 348.528 32.0087 348.528 32.368C348.528 32.632 348.616 32.8483 348.792 33.017C348.968 33.1783 349.184 33.3067 349.441 33.402C349.705 33.49 350.06 33.5853 350.508 33.688C351.087 33.8273 351.553 33.9667 351.905 34.106C352.257 34.2453 352.557 34.458 352.807 34.744C353.063 35.03 353.192 35.415 353.192 35.899C353.192 36.3023 353.082 36.6727 352.862 37.01C352.642 37.34 352.308 37.604 351.861 37.802C351.413 37.9927 350.863 38.088 350.211 38.088ZM356.22 31.257H353.58V30.3H359.949V31.257H357.309V38H356.22V31.257ZM366.295 38L364.634 35.635C364.429 35.6497 364.268 35.657 364.15 35.657H362.247V38H361.147V30.3H364.15C365.148 30.3 365.932 30.5383 366.504 31.015C367.076 31.4917 367.362 32.148 367.362 32.984C367.362 33.578 367.216 34.084 366.922 34.502C366.629 34.92 366.211 35.2243 365.668 35.415L367.494 38H366.295ZM364.117 34.722C364.814 34.722 365.346 34.5717 365.712 34.271C366.079 33.9703 366.262 33.5413 366.262 32.984C366.262 32.4267 366.079 32.0013 365.712 31.708C365.346 31.4073 364.814 31.257 364.117 31.257H362.247V34.722H364.117ZM369.139 30.3H370.239V38H369.139V30.3ZM378.133 37.043V38H372.545V30.3H377.979V31.257H373.645V33.622H377.506V34.557H373.645V37.043H378.133ZM382.158 38.088C381.578 38.088 381.017 38 380.475 37.824C379.939 37.6407 379.518 37.406 379.21 37.12L379.617 36.262C379.91 36.526 380.284 36.7423 380.739 36.911C381.201 37.0723 381.674 37.153 382.158 37.153C382.796 37.153 383.272 37.0467 383.588 36.834C383.903 36.614 384.061 36.3243 384.061 35.965C384.061 35.701 383.973 35.4883 383.797 35.327C383.628 35.1583 383.415 35.03 383.159 34.942C382.909 34.854 382.554 34.755 382.092 34.645C381.512 34.5057 381.043 34.3663 380.684 34.227C380.332 34.0877 380.027 33.875 379.771 33.589C379.521 33.2957 379.397 32.9033 379.397 32.412C379.397 32.0013 379.503 31.631 379.716 31.301C379.936 30.971 380.266 30.707 380.706 30.509C381.146 30.311 381.692 30.212 382.345 30.212C382.799 30.212 383.247 30.2707 383.687 30.388C384.127 30.5053 384.504 30.674 384.82 30.894L384.457 31.774C384.134 31.5687 383.789 31.4147 383.423 31.312C383.056 31.202 382.697 31.147 382.345 31.147C381.721 31.147 381.252 31.2607 380.937 31.488C380.629 31.7153 380.475 32.0087 380.475 32.368C380.475 32.632 380.563 32.8483 380.739 33.017C380.915 33.1783 381.131 33.3067 381.388 33.402C381.652 33.49 382.007 33.5853 382.455 33.688C383.034 33.8273 383.5 33.9667 383.852 34.106C384.204 34.2453 384.504 34.458 384.754 34.744C385.01 35.03 385.139 35.415 385.139 35.899C385.139 36.3023 385.029 36.6727 384.809 37.01C384.589 37.34 384.255 37.604 383.808 37.802C383.36 37.9927 382.81 38.088 382.158 38.088ZM200.684 49.257H198.044V48.3H204.413V49.257H201.773V56H200.684V49.257ZM210.759 56L209.098 53.635C208.893 53.6497 208.731 53.657 208.614 53.657H206.711V56H205.611V48.3H208.614C209.611 48.3 210.396 48.5383 210.968 49.015C211.54 49.4917 211.826 50.148 211.826 50.984C211.826 51.578 211.679 52.084 211.386 52.502C211.093 52.92 210.675 53.2243 210.132 53.415L211.958 56H210.759ZM208.581 52.722C209.278 52.722 209.809 52.5717 210.176 52.271C210.543 51.9703 210.726 51.5413 210.726 50.984C210.726 50.4267 210.543 50.0013 210.176 49.708C209.809 49.4073 209.278 49.257 208.581 49.257H206.711V52.722H208.581ZM218.509 54.075H214.417L213.57 56H212.437L215.924 48.3H217.013L220.511 56H219.356L218.509 54.075ZM218.124 53.195L216.463 49.422L214.802 53.195H218.124ZM228.282 48.3V56H227.38L222.76 50.258V56H221.66V48.3H222.562L227.182 54.042V48.3H228.282ZM232.831 56.088C232.251 56.088 231.69 56 231.148 55.824C230.612 55.6407 230.191 55.406 229.883 55.12L230.29 54.262C230.583 54.526 230.957 54.7423 231.412 54.911C231.874 55.0723 232.347 55.153 232.831 55.153C233.469 55.153 233.945 55.0467 234.261 54.834C234.576 54.614 234.734 54.3243 234.734 53.965C234.734 53.701 234.646 53.4883 234.47 53.327C234.301 53.1583 234.088 53.03 233.832 52.942C233.582 52.854 233.227 52.755 232.765 52.645C232.185 52.5057 231.716 52.3663 231.357 52.227C231.005 52.0877 230.7 51.875 230.444 51.589C230.194 51.2957 230.07 50.9033 230.07 50.412C230.07 50.0013 230.176 49.631 230.389 49.301C230.609 48.971 230.939 48.707 231.379 48.509C231.819 48.311 232.365 48.212 233.018 48.212C233.472 48.212 233.92 48.2707 234.36 48.388C234.8 48.5053 235.177 48.674 235.493 48.894L235.13 49.774C234.807 49.5687 234.462 49.4147 234.096 49.312C233.729 49.202 233.37 49.147 233.018 49.147C232.394 49.147 231.925 49.2607 231.61 49.488C231.302 49.7153 231.148 50.0087 231.148 50.368C231.148 50.632 231.236 50.8483 231.412 51.017C231.588 51.1783 231.804 51.3067 232.061 51.402C232.325 51.49 232.68 51.5853 233.128 51.688C233.707 51.8273 234.173 51.9667 234.525 52.106C234.877 52.2453 235.177 52.458 235.427 52.744C235.683 53.03 235.812 53.415 235.812 53.899C235.812 54.3023 235.702 54.6727 235.482 55.01C235.262 55.34 234.928 55.604 234.481 55.802C234.033 55.9927 233.483 56.088 232.831 56.088ZM240.422 48.3C241.419 48.3 242.204 48.5383 242.776 49.015C243.348 49.4917 243.634 50.148 243.634 50.984C243.634 51.82 243.348 52.4763 242.776 52.953C242.204 53.4297 241.419 53.668 240.422 53.668H238.519V56H237.419V48.3H240.422ZM240.389 52.711C241.085 52.711 241.617 52.5643 241.984 52.271C242.35 51.9703 242.534 51.5413 242.534 50.984C242.534 50.4267 242.35 50.0013 241.984 49.708C241.617 49.4073 241.085 49.257 240.389 49.257H238.519V52.711H240.389ZM249.769 54.075H245.677L244.83 56H243.697L247.184 48.3H248.273L251.771 56H250.616L249.769 54.075ZM249.384 53.195L247.723 49.422L246.062 53.195H249.384ZM258.068 56L256.407 53.635C256.201 53.6497 256.04 53.657 255.923 53.657H254.02V56H252.92V48.3H255.923C256.92 48.3 257.705 48.5383 258.277 49.015C258.849 49.4917 259.135 50.148 259.135 50.984C259.135 51.578 258.988 52.084 258.695 52.502C258.401 52.92 257.983 53.2243 257.441 53.415L259.267 56H258.068ZM255.89 52.722C256.586 52.722 257.118 52.5717 257.485 52.271C257.851 51.9703 258.035 51.5413 258.035 50.984C258.035 50.4267 257.851 50.0013 257.485 49.708C257.118 49.4073 256.586 49.257 255.89 49.257H254.02V52.722H255.89ZM266.5 55.043V56H260.912V48.3H266.346V49.257H262.012V51.622H265.873V52.557H262.012V55.043H266.5ZM274.903 48.3V56H274.001L269.381 50.258V56H268.281V48.3H269.183L273.803 54.042V48.3H274.903ZM280.651 56.088C279.881 56.088 279.184 55.9193 278.561 55.582C277.945 55.2373 277.461 54.768 277.109 54.174C276.757 53.5727 276.581 52.898 276.581 52.15C276.581 51.402 276.757 50.731 277.109 50.137C277.461 49.5357 277.948 49.0663 278.572 48.729C279.195 48.3843 279.892 48.212 280.662 48.212C281.263 48.212 281.813 48.3147 282.312 48.52C282.81 48.718 283.236 49.015 283.588 49.411L282.873 50.104C282.293 49.4953 281.571 49.191 280.706 49.191C280.134 49.191 279.617 49.3193 279.155 49.576C278.693 49.8327 278.33 50.1883 278.066 50.643C277.809 51.0903 277.681 51.5927 277.681 52.15C277.681 52.7073 277.809 53.2133 278.066 53.668C278.33 54.1153 278.693 54.4673 279.155 54.724C279.617 54.9807 280.134 55.109 280.706 55.109C281.564 55.109 282.286 54.801 282.873 54.185L283.588 54.878C283.236 55.274 282.807 55.5747 282.301 55.78C281.802 55.9853 281.252 56.088 280.651 56.088ZM287.976 53.338V56H286.887V53.316L283.829 48.3H285.006L287.47 52.359L289.945 48.3H291.034L287.976 53.338ZM295.104 48.3H296.204V56H295.104V48.3ZM305.131 48.3V56H304.229L299.609 50.258V56H298.509V48.3H299.411L304.031 54.042V48.3H305.131ZM307.436 48.3H308.536V56H307.436V48.3ZM312.371 49.257H309.731V48.3H316.1V49.257H313.46V56H312.371V49.257ZM317.298 48.3H318.398V56H317.298V48.3ZM325.609 54.075H321.517L320.67 56H319.537L323.024 48.3H324.113L327.611 56H326.456L325.609 54.075ZM325.224 53.195L323.563 49.422L321.902 53.195H325.224ZM329.902 49.257H327.262V48.3H333.631V49.257H330.991V56H329.902V49.257ZM334.829 48.3H335.929V56H334.829V48.3ZM344.847 48.3L341.47 56H340.381L336.993 48.3H338.181L340.953 54.625L343.747 48.3H344.847ZM351.417 55.043V56H345.829V48.3H351.263V49.257H346.929V51.622H350.79V52.557H346.929V55.043H351.417Z" fill="black"/>
</svg>
