<svg width="36" height="36" viewBox="0 0 36 36" fill="none" xmlns="http://www.w3.org/2000/svg">
<path d="M9 0C7.7625 0 6.75 1.0125 6.75 2.25V33.75C6.75 34.9875 7.7625 36 9 36H31.5C32.7375 36 33.75 34.9875 33.75 33.75V9L24.75 0H9Z" fill="#E2E5E7"/>
<path d="M27 9H33.75L24.75 0V6.75C24.75 7.9875 25.7625 9 27 9Z" fill="#B0B7BD"/>
<path d="M33.75 15.75L27 9H33.75V15.75Z" fill="#CAD1D8"/>
<path d="M29.25 29.25C29.25 29.8688 28.7438 30.375 28.125 30.375H3.375C2.75625 30.375 2.25 29.8688 2.25 29.25V18C2.25 17.3812 2.75625 16.875 3.375 16.875H28.125C28.7438 16.875 29.25 17.3812 29.25 18V29.25Z" fill="#F15642"/>
<path d="M7.15381 21.3153C7.15381 21.0183 7.38781 20.6943 7.76468 20.6943H9.84256C11.0126 20.6943 12.0656 21.4773 12.0656 22.9781C12.0656 24.4001 11.0126 25.1921 9.84256 25.1921H8.34068V26.3801C8.34068 26.7761 8.08868 27 7.76468 27C7.46768 27 7.15381 26.7761 7.15381 26.3801V21.3153V21.3153ZM8.34068 21.8272V24.0682H9.84256C10.4456 24.0682 10.9226 23.5361 10.9226 22.9781C10.9226 22.3492 10.4456 21.8272 9.84256 21.8272H8.34068Z" fill="white"/>
<path d="M13.8271 27C13.5301 27 13.2061 26.838 13.2061 26.4431V21.3333C13.2061 21.0105 13.5301 20.7753 13.8271 20.7753H15.8869C19.9977 20.7753 19.9077 27 15.9679 27H13.8271V27ZM14.3941 21.8733V25.9031H15.8869C18.3158 25.9031 18.4238 21.8733 15.8869 21.8733H14.3941V21.8733Z" fill="white"/>
<path d="M21.3657 21.9454V23.3752H23.6596C23.9836 23.3752 24.3076 23.6992 24.3076 24.0131C24.3076 24.3101 23.9836 24.5531 23.6596 24.5531H21.3657V26.442C21.3657 26.757 21.1418 26.9989 20.8268 26.9989C20.4308 26.9989 20.189 26.757 20.189 26.442V21.3322C20.189 21.0094 20.432 20.7742 20.8268 20.7742H23.9847C24.3807 20.7742 24.6147 21.0094 24.6147 21.3322C24.6147 21.6202 24.3807 21.9442 23.9847 21.9442H21.3657V21.9454Z" fill="white"/>
<path d="M28.125 30.375H6.75V31.5H28.125C28.7438 31.5 29.25 30.9938 29.25 30.375V29.25C29.25 29.8688 28.7438 30.375 28.125 30.375Z" fill="#CAD1D8"/>
</svg>
