<svg width="36" height="36" viewBox="0 0 36 36" fill="none" xmlns="http://www.w3.org/2000/svg">
<path d="M9 0C7.7625 0 6.75 1.0125 6.75 2.25V33.75C6.75 34.9875 7.7625 36 9 36H31.5C32.7375 36 33.75 34.9875 33.75 33.75V9L24.75 0H9Z" fill="#E2E5E7"/>
<path d="M27 9H33.75L24.75 0V6.75C24.75 7.9875 25.7625 9 27 9Z" fill="#B0B7BD"/>
<path d="M33.75 15.75L27 9H33.75V15.75Z" fill="#CAD1D8"/>
<path d="M29.25 29.25C29.25 29.8688 28.7438 30.375 28.125 30.375H3.375C2.75625 30.375 2.25 29.8688 2.25 29.25V18C2.25 17.3812 2.75625 16.875 3.375 16.875H28.125C28.7438 16.875 29.25 17.3812 29.25 18V29.25Z" fill="#576D7E"/>
<path d="M9.33642 21.9004H7.76254C6.97954 21.9004 6.97954 20.7495 7.76254 20.7495H12.0173C12.8183 20.7495 12.8183 21.9004 12.0173 21.9004H10.5233V26.442C10.5233 27.2239 9.33529 27.243 9.33529 26.442V21.9004H9.33642Z" fill="white"/>
<path d="M15.779 22.9342L17.345 20.9733C17.813 20.3625 18.7209 21.1443 18.209 21.7293C17.669 22.3683 17.1031 23.0613 16.562 23.7701L18.398 26.0549C18.8919 26.7299 17.903 27.3779 17.417 26.7119L15.7621 24.5891L14.1342 26.7569C13.6752 27.4128 12.6582 26.6759 13.1724 26.0639L14.9791 23.7701C14.4132 23.0602 13.8642 22.3683 13.3152 21.7293C12.7482 21.0543 13.8012 20.3625 14.2141 20.9925L15.779 22.9342Z" fill="white"/>
<path d="M20.973 21.9004H19.4002C18.6172 21.9004 18.6172 20.7495 19.4002 20.7495H23.6539C24.4549 20.7495 24.4549 21.9004 23.6539 21.9004H22.161V26.442C22.161 27.2239 20.973 27.243 20.973 26.442V21.9004V21.9004Z" fill="white"/>
<path d="M28.125 30.375H6.75V31.5H28.125C28.7438 31.5 29.25 30.9938 29.25 30.375V29.25C29.25 29.8688 28.7438 30.375 28.125 30.375Z" fill="#CAD1D8"/>
</svg>
