<svg width="36" height="36" viewBox="0 0 36 36" fill="none" xmlns="http://www.w3.org/2000/svg">
<path d="M9 0C7.7625 0 6.75 1.0125 6.75 2.25V33.75C6.75 34.9875 7.7625 36 9 36H31.5C32.7375 36 33.75 34.9875 33.75 33.75V9L24.75 0H9Z" fill="#E2E5E7"/>
<path d="M27 9H33.75L24.75 0V6.75C24.75 7.9875 25.7625 9 27 9Z" fill="#B0B7BD"/>
<path d="M33.75 15.75L27 9H33.75V15.75Z" fill="#CAD1D8"/>
<path d="M29.25 29.25C29.25 29.8688 28.7438 30.375 28.125 30.375H3.375C2.75625 30.375 2.25 29.8688 2.25 29.25V18C2.25 17.3812 2.75625 16.875 3.375 16.875H28.125C28.7438 16.875 29.25 17.3812 29.25 18V29.25Z" fill="#84BD5A"/>
<path d="M10.1489 22.9354L11.7137 20.9745C12.1817 20.3625 13.0907 21.1444 12.5777 21.7294C12.0389 22.3684 11.4719 23.0614 10.9319 23.7713L12.7667 26.0561C13.2617 26.7311 12.2729 27.378 11.7869 26.712L10.1309 24.5891L8.50299 26.7581C8.04399 27.414 7.02699 26.6771 7.53999 26.0651L9.34787 23.7713C8.78087 23.0603 8.23187 22.3684 7.68399 21.7294C7.11812 21.0544 8.16999 20.3625 8.58399 20.9936L10.1489 22.9354Z" fill="white"/>
<path d="M13.8774 21.3154C13.8774 21.0184 14.1294 20.7664 14.4444 20.7664C14.7324 20.7664 14.9754 21.0195 14.9754 21.3154V25.8221H17.4223C18.3032 25.8221 18.3223 27 17.4223 27H14.4456C14.1306 27 13.8786 26.7761 13.8786 26.4521V21.3154H13.8774V21.3154Z" fill="white"/>
<path d="M19.1269 22.1254C19.3339 20.3794 21.9687 20.0655 23.2107 21.0195C23.8227 21.5134 23.1747 22.2964 22.6347 21.9004C21.9687 21.4785 20.4578 21.2805 20.2688 22.2142C20.0258 23.6902 23.9385 22.8454 23.8755 25.2382C23.8125 27.5231 20.5028 27.576 19.2608 26.5511C18.9627 26.3081 18.9728 25.9132 19.1348 25.6691C19.3688 25.4362 19.6287 25.3552 19.9358 25.6072C20.6727 26.1101 22.5717 26.4881 22.7055 25.2101C22.5897 23.8804 18.8479 24.6802 19.1269 22.1254Z" fill="white"/>
<path d="M28.125 30.375H6.75V31.5H28.125C28.7438 31.5 29.25 30.9938 29.25 30.375V29.25C29.25 29.8688 28.7438 30.375 28.125 30.375Z" fill="#CAD1D8"/>
</svg>
