<svg width="36" height="36" viewBox="0 0 36 36" fill="none" xmlns="http://www.w3.org/2000/svg">
<path d="M9 0C7.7625 0 6.75 1.0125 6.75 2.25V33.75C6.75 34.9875 7.7625 36 9 36H31.5C32.7375 36 33.75 34.9875 33.75 33.75V9L24.75 0H9Z" fill="#E2E5E7"/>
<path d="M27 9H33.75L24.75 0V6.75C24.75 7.9875 25.7625 9 27 9Z" fill="#B0B7BD"/>
<path d="M33.75 15.75L27 9H33.75V15.75Z" fill="#CAD1D8"/>
<path d="M29.25 29.25C29.25 29.8688 28.7438 30.375 28.125 30.375H3.375C2.75625 30.375 2.25 29.8688 2.25 29.25V18C2.25 17.3812 2.75625 16.875 3.375 16.875H28.125C28.7438 16.875 29.25 17.3812 29.25 18V29.25Z" fill="#84BD5A"/>
<path d="M9.32621 26.9999C8.75921 26.9999 8.53421 26.4521 8.85821 26.0651L12.0611 21.8103H9.40609C8.62421 21.8103 8.68721 20.7056 9.40609 20.7056H13.032C13.7148 20.7056 13.9128 21.3513 13.428 21.8744L10.3601 25.8581H13.284C14.004 25.8581 14.094 27.0011 13.2131 27.0011H9.32621V26.9999Z" fill="white"/>
<path d="M14.9097 21.3153C14.9097 20.5773 16.0977 20.5503 16.0977 21.3153V26.4509C16.0977 27.1968 14.9097 27.2159 14.9097 26.4509V21.3153Z" fill="white"/>
<path d="M17.6919 21.3153C17.6919 21.0183 17.9259 20.6943 18.3039 20.6943H20.3818C21.5518 20.6943 22.6048 21.4773 22.6048 22.9781C22.6048 24.4001 21.5518 25.1921 20.3818 25.1921H18.8799V26.3801C18.8799 26.7761 18.6279 27 18.3039 27C18.0069 27 17.6919 26.7761 17.6919 26.3801V21.3153ZM18.8788 21.8272V24.0682H20.3806C20.9836 24.0682 21.4606 23.5361 21.4606 22.9781C21.4606 22.3492 20.9836 21.8272 20.3806 21.8272H18.8788Z" fill="white"/>
<path d="M28.125 30.375H6.75V31.5H28.125C28.7438 31.5 29.25 30.9938 29.25 30.375V29.25C29.25 29.8688 28.7438 30.375 28.125 30.375Z" fill="#CAD1D8"/>
</svg>
