<svg width="30" height="30" viewBox="0 0 30 30" fill="none" xmlns="http://www.w3.org/2000/svg">
<g clip-path="url(#clip0)">
<g clip-path="url(#clip1)">
<path d="M9.78516 17.6514L6.2501 17.6514C4.78454 17.6514 3.59786 16.4647 3.59833 14.9999C3.59833 13.5353 4.78513 12.3485 6.24946 12.3485L13.3208 12.3485C14.7852 12.3485 15.972 13.5353 15.9719 14.9996C15.9719 15.4878 16.3677 15.8835 16.8558 15.8835C17.344 15.8835 17.7397 15.4878 17.7397 14.9996C17.7397 12.5589 15.7615 10.5807 13.3208 10.5807L6.24952 10.5807C3.80883 10.5807 1.8306 12.5589 1.8306 14.9996C1.8298 17.4408 3.80818 19.4192 6.25016 19.4192H9.78522C10.2734 19.4192 10.6691 19.0234 10.6691 18.5353C10.6691 18.0471 10.2733 17.6514 9.78516 17.6514Z" fill="black"/>
<path d="M28.1693 14.9995C28.1693 12.5588 26.1904 10.5799 23.7497 10.5799L19.5084 10.5799C19.0203 10.5799 18.6245 10.9756 18.6245 11.4638C18.6245 11.9519 19.0202 12.3477 19.5084 12.3477L23.7497 12.3477C25.2141 12.3477 26.4015 13.5351 26.4015 14.9995C26.4015 16.4638 25.2147 17.6506 23.7503 17.6506L15.9727 17.6506C14.5083 17.6506 13.3216 16.4639 13.3216 14.9995C13.3216 14.5113 12.9259 14.1156 12.4377 14.1156C11.9496 14.1156 11.5538 14.5113 11.5538 14.9995C11.5538 17.4402 13.532 19.4184 15.9727 19.4184L23.7503 19.4184C26.191 19.4184 28.1693 17.4402 28.1693 14.9995Z" fill="black"/>
</g>
</g>
<defs>
<clipPath id="clip0">
<rect width="30" height="30" fill="white"/>
</clipPath>
<clipPath id="clip1">
<rect width="21.2133" height="21.2133" fill="white" transform="translate(15) rotate(45)"/>
</clipPath>
</defs>
</svg>
