<svg width="64" height="64" viewBox="0 0 64 64" fill="none" xmlns="http://www.w3.org/2000/svg">
<path d="M26.9005 21.314L21.9515 16.364C21.764 16.1765 21.5097 16.0712 21.2445 16.0712C20.9794 16.0712 20.7251 16.1765 20.5375 16.364L18.4155 18.485C18.137 18.7636 17.8062 18.9846 17.4422 19.1354C17.0782 19.2862 16.688 19.3638 16.294 19.3638C15.9 19.3638 15.5099 19.2862 15.1459 19.1354C14.7819 18.9846 14.4511 18.7636 14.1725 18.485L13.9305 18.243C13.6519 17.9644 13.4309 17.6336 13.2801 17.2696C13.1293 16.9056 13.0517 16.5155 13.0517 16.1215C13.0517 15.7274 13.1293 15.3373 13.2801 14.9733C13.4309 14.6093 13.6519 14.2785 13.9305 14L16.0515 11.878C16.239 11.6904 16.3443 11.4361 16.3443 11.171C16.3443 10.9058 16.239 10.6515 16.0515 10.464L11.1005 5.51495C10.913 5.32748 10.6587 5.22217 10.3935 5.22217C10.1284 5.22217 9.87406 5.32748 9.68654 5.51495L7.56554 7.63595C5.88013 9.32508 4.93359 11.6138 4.93359 14C4.93359 16.3861 5.88013 18.6748 7.56554 20.364L12.0505 24.849C13.7397 26.5344 16.0284 27.4809 18.4145 27.4809C20.8007 27.4809 23.0894 26.5344 24.7785 24.849L26.9005 22.728C27.088 22.5404 27.1933 22.2861 27.1933 22.021C27.1933 21.7558 27.088 21.5015 26.9005 21.314ZM21.2445 18.485L24.7795 22.021L24.0725 22.728L20.5375 19.192L21.2445 18.485ZM10.3945 7.63595L13.9295 11.171L13.2225 11.879L9.68654 8.34295L10.3945 7.63595ZM13.4645 23.436L8.97954 18.95C7.79135 17.7585 7.07122 16.1795 6.95061 14.5012C6.82999 12.8228 7.31693 11.1571 8.32254 9.80795L11.8785 13.364C11.2448 14.3261 10.9621 15.4774 11.0781 16.6237C11.1941 17.77 11.7018 18.8413 12.5155 19.657L12.7575 19.899C13.5735 20.7122 14.6447 21.2195 15.7909 21.3355C16.937 21.4515 18.0882 21.1692 19.0505 20.536L22.6065 24.092C21.2573 25.0974 19.5916 25.5842 17.9134 25.4636C16.2351 25.343 14.6561 24.623 13.4645 23.435V23.436Z" fill="white"/>
<path d="M27 32H5C4.20435 32 3.44129 31.6839 2.87868 31.1213C2.31607 30.5587 2 29.7956 2 29V5C2 4.20435 2.31607 3.44129 2.87868 2.87868C3.44129 2.31607 4.20435 2 5 2H27C27.7956 2 28.5587 2.31607 29.1213 2.87868C29.6839 3.44129 30 4.20435 30 5V29C30 29.7956 29.6839 30.5587 29.1213 31.1213C28.5587 31.6839 27.7956 32 27 32ZM5 4C4.73478 4 4.48043 4.10536 4.29289 4.29289C4.10536 4.48043 4 4.73478 4 5V29C4 29.2652 4.10536 29.5196 4.29289 29.7071C4.48043 29.8946 4.73478 30 5 30H27C27.2652 30 27.5196 29.8946 27.7071 29.7071C27.8946 29.5196 28 29.2652 28 29V5C28 4.73478 27.8946 4.48043 27.7071 4.29289C27.5196 4.10536 27.2652 4 27 4H5Z" fill="white"/>
<path d="M27 62H5C4.20435 62 3.44129 61.6839 2.87868 61.1213C2.31607 60.5587 2 59.7956 2 59V37C2 36.2044 2.31607 35.4413 2.87868 34.8787C3.44129 34.3161 4.20435 34 5 34H27C27.7956 34 28.5587 34.3161 29.1213 34.8787C29.6839 35.4413 30 36.2044 30 37V59C30 59.7956 29.6839 60.5587 29.1213 61.1213C28.5587 61.6839 27.7956 62 27 62V62ZM5 36C4.73478 36 4.48043 36.1054 4.29289 36.2929C4.10536 36.4804 4 36.7348 4 37V59C4 59.2652 4.10536 59.5196 4.29289 59.7071C4.48043 59.8946 4.73478 60 5 60H27C27.2652 60 27.5196 59.8946 27.7071 59.7071C27.8946 59.5196 28 59.2652 28 59V37C28 36.7348 27.8946 36.4804 27.7071 36.2929C27.5196 36.1054 27.2652 36 27 36H5Z" fill="white"/>
<path d="M25 41H7C6.73478 41 6.48043 41.1054 6.29289 41.2929C6.10536 41.4804 6 41.7348 6 42V54C6 54.2652 6.10536 54.5196 6.29289 54.7071C6.48043 54.8946 6.73478 55 7 55H25C25.2652 55 25.5196 54.8946 25.7071 54.7071C25.8946 54.5196 26 54.2652 26 54V42C26 41.7348 25.8946 41.4804 25.7071 41.2929C25.5196 41.1054 25.2652 41 25 41ZM16 48.65L9.632 43H22.366L16 48.65ZM12.266 48.009L8 51.78V44.225L12.266 48.009ZM13.772 49.346L14.672 50.146C15.0376 50.4773 15.5131 50.6612 16.0065 50.6621C16.4999 50.6631 16.9761 50.4809 17.343 50.151L18.243 49.351L22.361 53H9.639L13.772 49.346ZM19.744 48.009L24 44.225V51.78L19.744 48.009Z" fill="white"/>
<path d="M59 2H37C36.2044 2 35.4413 2.31607 34.8787 2.87868C34.3161 3.44129 34 4.20435 34 5V29C34 29.7956 34.3161 30.5587 34.8787 31.1213C35.4413 31.6839 36.2044 32 37 32H42V44.538L40.83 42.059C40.6137 41.3272 40.1233 40.7071 39.461 40.328C38.7705 39.9296 37.95 39.8217 37.18 40.028L36.259 40.276C35.9962 40.3468 35.7506 40.4706 35.5373 40.6396C35.324 40.8087 35.1475 41.0195 35.0185 41.2591C34.8895 41.4988 34.8107 41.7622 34.7871 42.0334C34.7635 42.3045 34.7954 42.5776 34.881 42.836L39.055 54.96C39.0951 55.0771 39.1568 55.1857 39.237 55.28L41.946 58.48L42 61.021C42.0055 61.2826 42.1133 61.5316 42.3002 61.7146C42.4872 61.8976 42.7384 62.0001 43 62H57C57.2652 62 57.5196 61.8946 57.7071 61.7071C57.8946 61.5196 58 61.2652 58 61V58.3L59.832 55.552C59.9407 55.3883 59.9991 55.1965 60 55V42C60.003 41.608 59.9271 41.2194 59.777 40.8573C59.6268 40.4952 59.4055 40.1669 59.126 39.892C58.7093 39.4812 58.1835 39.1986 57.6109 39.0777C57.0384 38.9568 56.4432 39.0027 55.896 39.21C55.7632 38.7092 55.4971 38.2537 55.126 37.892C54.7092 37.4814 54.1833 37.1989 53.6109 37.0781C53.0384 36.9572 52.4433 37.003 51.896 37.21C51.7632 36.7092 51.4971 36.2537 51.126 35.892C50.7232 35.4936 50.2174 35.2152 49.6653 35.0878C49.1133 34.9605 48.5366 34.9893 48 35.171V32H59C59.7956 32 60.5587 31.6839 61.1213 31.1213C61.6839 30.5587 62 29.7956 62 29V5C62 4.20435 61.6839 3.44129 61.1213 2.87868C60.5587 2.31607 59.7956 2 59 2V2ZM49 37C49.1333 36.9996 49.2653 37.0265 49.3877 37.0791C49.5102 37.1318 49.6206 37.209 49.712 37.306C49.8043 37.3963 49.8775 37.5043 49.927 37.6236C49.9765 37.7428 50.0013 37.8709 50 38V45C50 45.2652 50.1054 45.5196 50.2929 45.7071C50.4804 45.8946 50.7348 46 51 46C51.2652 46 51.5196 45.8946 51.7071 45.7071C51.8946 45.5196 52 45.2652 52 45V40C52 39.7348 52.1054 39.4804 52.2929 39.2929C52.4804 39.1054 52.7348 39 53 39C53.1333 38.9996 53.2653 39.0265 53.3877 39.0791C53.5102 39.1318 53.6206 39.209 53.712 39.306C53.8043 39.3963 53.8775 39.5043 53.927 39.6236C53.9765 39.7428 54.0013 39.8709 54 40V45C54 45.2652 54.1054 45.5196 54.2929 45.7071C54.4804 45.8946 54.7348 46 55 46C55.2652 46 55.5196 45.8946 55.7071 45.7071C55.8946 45.5196 56 45.2652 56 45V42C56 41.7348 56.1054 41.4804 56.2929 41.2929C56.4804 41.1054 56.7348 41 57 41C57.1333 40.9996 57.2653 41.0265 57.3877 41.0791C57.5102 41.1318 57.6206 41.209 57.712 41.306C57.8043 41.3963 57.8775 41.5043 57.927 41.6236C57.9765 41.7428 58.0013 41.8709 58 42V54.7L56.168 57.448C56.0593 57.6117 56.0009 57.8035 56 58V60H43.979L43.938 58.079C43.9335 57.8494 43.8502 57.6284 43.702 57.453L40.884 54.127L36.779 42.2L37.693 41.954C37.9522 41.8848 38.2282 41.9208 38.461 42.054C38.574 42.1184 38.673 42.2046 38.7523 42.3076C38.8316 42.4106 38.8896 42.5283 38.923 42.654C38.938 42.713 42.096 49.417 42.096 49.417C42.1927 49.6216 42.3559 49.7873 42.559 49.8871C42.7621 49.9869 42.993 50.0148 43.214 49.9664C43.435 49.918 43.6331 49.7961 43.7759 49.6206C43.9186 49.445 43.9976 49.2263 44 49V29.112C43.9892 28.8478 44.0755 28.5889 44.2426 28.384C44.4097 28.1791 44.6461 28.0425 44.907 28C45.0552 27.9851 45.2048 28.0044 45.3444 28.0565C45.4839 28.1085 45.6097 28.1918 45.712 28.3C45.8051 28.391 45.8786 28.5 45.9281 28.6203C45.9777 28.7407 46.0021 28.8699 46 29V45C46 45.2652 46.1054 45.5196 46.2929 45.7071C46.4804 45.8946 46.7348 46 47 46C47.2652 46 47.5196 45.8946 47.7071 45.7071C47.8946 45.5196 48 45.2652 48 45V38C48 37.7348 48.1054 37.4804 48.2929 37.2929C48.4804 37.1054 48.7348 37 49 37ZM60 29C60 29.2652 59.8946 29.5196 59.7071 29.7071C59.5196 29.8946 59.2652 30 59 30H48V29C48.003 28.608 47.9271 28.2194 47.777 27.8573C47.6268 27.4952 47.4055 27.1669 47.126 26.892C46.8184 26.5773 46.4446 26.3349 46.0318 26.1825C45.6189 26.0302 45.1773 25.9716 44.739 26.011C43.9787 26.095 43.2769 26.4591 42.7705 27.0324C42.2641 27.6057 41.9894 28.3471 42 29.112V30H37C36.7348 30 36.4804 29.8946 36.2929 29.7071C36.1054 29.5196 36 29.2652 36 29V5C36 4.73478 36.1054 4.48043 36.2929 4.29289C36.4804 4.10536 36.7348 4 37 4H59C59.2652 4 59.5196 4.10536 59.7071 4.29289C59.8946 4.48043 60 4.73478 60 5V29Z" fill="white"/>
<path d="M48 8C45.8783 8 43.8434 8.84285 42.3431 10.3431C40.8429 11.8434 40 13.8783 40 16C40 18.1217 40.8429 20.1566 42.3431 21.6569C43.8434 23.1571 45.8783 24 48 24H52C52.2652 24 52.5196 23.8946 52.7071 23.7071C52.8946 23.5196 53 23.2652 53 23C53 22.7348 52.8946 22.4804 52.7071 22.2929C52.5196 22.1054 52.2652 22 52 22H48C46.8133 22 45.6533 21.6481 44.6666 20.9888C43.6799 20.3295 42.9108 19.3925 42.4567 18.2961C42.0026 17.1997 41.8838 15.9933 42.1153 14.8295C42.3468 13.6656 42.9182 12.5965 43.7574 11.7574C44.5965 10.9182 45.6656 10.3468 46.8295 10.1153C47.9933 9.88378 49.1997 10.0026 50.2961 10.4567C51.3925 10.9108 52.3295 11.6799 52.9888 12.6666C53.6481 13.6533 54 14.8133 54 16V17C54 17.2652 53.8946 17.5196 53.7071 17.7071C53.5196 17.8946 53.2652 18 53 18C52.7348 18 52.4804 17.8946 52.2929 17.7071C52.1054 17.5196 52 17.2652 52 17V16C52.0076 15.0718 51.6948 14.1694 51.1143 13.4451C50.5339 12.7208 49.7213 12.2188 48.8138 12.0239C47.9063 11.8291 46.9593 11.9532 46.1327 12.3754C45.306 12.7976 44.6503 13.4921 44.2762 14.3416C43.9021 15.191 43.8325 16.1436 44.079 17.0384C44.3256 17.9333 44.8733 18.7157 45.6298 19.2537C46.3862 19.7916 47.305 20.0522 48.2312 19.9914C49.1575 19.9306 50.0344 19.5522 50.714 18.92C51.107 19.3938 51.6367 19.7346 52.2308 19.8958C52.8249 20.057 53.4542 20.0307 54.0328 19.8205C54.6113 19.6104 55.1109 19.2266 55.463 18.7218C55.8151 18.2169 56.0027 17.6155 56 17V16C55.9976 13.879 55.154 11.8456 53.6542 10.3458C52.1544 8.846 50.121 8.00238 48 8V8ZM48 18C47.6044 18 47.2178 17.8827 46.8889 17.6629C46.56 17.4432 46.3036 17.1308 46.1522 16.7654C46.0009 16.3999 45.9613 15.9978 46.0384 15.6098C46.1156 15.2219 46.3061 14.8655 46.5858 14.5858C46.8655 14.3061 47.2219 14.1156 47.6098 14.0384C47.9978 13.9613 48.3999 14.0009 48.7654 14.1522C49.1308 14.3036 49.4432 14.56 49.6629 14.8889C49.8827 15.2178 50 15.6044 50 16C50 16.5304 49.7893 17.0391 49.4142 17.4142C49.0391 17.7893 48.5304 18 48 18Z" fill="white"/>
</svg>
