<svg width="64" height="64" viewBox="0 0 64 64" fill="none" xmlns="http://www.w3.org/2000/svg">
<g clip-path="url(#clip0)">
<path d="M54.4 0.133301H9.6C4.30052 0.13903 0.00572917 4.43382 0 9.7333V43.8666C0.00572917 49.1661 4.30052 53.4609 9.6 53.4666H12.2911L8.60885 62.6708C8.44792 63.0786 8.5526 63.5426 8.8724 63.8421C9.19219 64.1416 9.66302 64.2145 10.0589 64.0265L32.2453 53.4666H54.4C59.6995 53.4609 63.9943 49.1661 64 43.8666V9.7333C63.9943 4.43382 59.6995 0.13903 54.4 0.133301ZM61.8667 43.8666C61.862 47.9885 58.5219 51.3286 54.4 51.3333H32C31.8411 51.3343 31.6844 51.3708 31.5411 51.44L11.6031 60.9333L14.8578 52.7979C14.9896 52.4687 14.95 52.0958 14.7516 51.802C14.5526 51.5088 14.2214 51.3328 13.8667 51.3333H9.6C5.47813 51.3286 2.13802 47.9885 2.13333 43.8666V9.7333C2.13802 5.61142 5.47813 2.27132 9.6 2.26663H54.4C58.5219 2.27132 61.862 5.61142 61.8667 9.7333V43.8666Z" fill="white"/>
<path d="M48.4117 19.3333H38.9726C38.5106 19.3333 38.1012 19.0364 37.958 18.5973L35.0419 9.61921C34.6143 8.29942 33.3851 7.40515 31.9976 7.40515C30.6101 7.40515 29.3809 8.29942 28.9533 9.61921L26.0372 18.5973C25.894 19.0364 25.4846 19.3333 25.0226 19.3333H15.5835C14.1971 19.3328 12.9684 20.2255 12.5398 21.5442C12.1111 22.8624 12.5804 24.3072 13.7023 25.1218L21.3382 30.6687C21.7132 30.94 21.87 31.4223 21.7268 31.8624L18.8096 40.8395C18.3809 42.1583 18.8502 43.6025 19.9721 44.4177C21.0934 45.2322 22.6127 45.2322 23.7341 44.4171L31.3705 38.8703C31.7445 38.5984 32.2507 38.5984 32.6247 38.8703L40.2611 44.4171C41.3778 45.2473 42.9065 45.2473 44.0231 44.4171C45.1575 43.6114 45.6299 42.1578 45.1856 40.8395L42.2684 31.8614C42.1257 31.4218 42.2825 30.94 42.657 30.6687L50.2929 25.1218C51.4148 24.3072 51.8841 22.8624 51.4554 21.5442C51.0268 20.2255 49.7981 19.3328 48.4117 19.3333V19.3333ZM49.0387 23.3973L41.4023 28.9437C40.2789 29.7567 39.8085 31.2025 40.2398 32.5203L43.1559 41.4973C43.3002 41.9374 43.145 42.4197 42.771 42.6927C42.3971 42.965 41.8898 42.9656 41.5153 42.6932L33.8794 37.1468C32.758 36.3286 31.2372 36.3286 30.1158 37.1468L22.4799 42.6932C22.1059 42.9645 21.5997 42.964 21.2257 42.6921C20.8523 42.4203 20.696 41.939 20.8393 41.4994L23.7554 32.5239C24.1867 31.2052 23.7169 29.7593 22.5929 28.9463L14.9565 23.3994C14.5799 23.1286 14.421 22.6453 14.5643 22.2041C14.7075 21.763 15.12 21.4645 15.5835 21.4666H25.0226C26.4101 21.4697 27.6403 20.5755 28.0658 19.2552L30.983 10.2786C31.1273 9.84057 31.5356 9.54473 31.9966 9.54473C32.4575 9.54473 32.8658 9.84057 33.0101 10.2786L35.9273 19.2567C36.3539 20.577 37.5846 21.4708 38.9726 21.4666H48.4117C48.8742 21.4661 49.2846 21.7635 49.4278 22.2036C49.5705 22.6437 49.4137 23.126 49.0387 23.3973V23.3973Z" fill="white"/>
</g>
<defs>
<clipPath id="clip0">
<rect width="64" height="64" fill="white"/>
</clipPath>
</defs>
</svg>
