<svg width="64" height="64" viewBox="0 0 64 64" fill="none" xmlns="http://www.w3.org/2000/svg">
<path d="M58.6816 48.415L48.4917 43.3206C47.5307 42.8395 46.9333 41.8731 46.9333 40.7979V37.1915C47.1776 36.8929 47.4347 36.5526 47.7003 36.1771C49.0219 34.3105 50.0811 32.2326 50.8512 29.9915C52.3563 29.3014 53.3333 27.8134 53.3333 26.1334V21.8667C53.3333 20.8395 52.9493 19.8443 52.2667 19.0667V13.3931C52.3264 12.8065 52.5611 9.31421 50.0352 6.43315C47.8443 3.93395 44.2891 2.66675 39.4667 2.66675C34.6443 2.66675 31.0891 3.93395 28.8981 6.43208C27.3675 8.17821 26.8523 10.1451 26.6965 11.5574C24.8683 10.6123 22.7136 10.1334 20.2667 10.1334C9.18507 10.1334 8.53973 19.5787 8.53333 19.7334V24.6177C7.84213 25.3707 7.46667 26.2401 7.46667 27.103V30.7873C7.46667 31.9382 7.98187 33.0113 8.86507 33.7366C9.74507 37.0539 11.9093 39.5606 12.752 40.4406V43.3665C12.752 44.2059 12.2955 44.9761 11.5029 45.4091L4.4064 49.8603C1.68853 51.343 0 54.1878 0 57.2833V61.3334H14.9333H17.0667H64V57.0209C64 53.3537 61.9616 50.0555 58.6816 48.415ZM14.9333 56.8129V59.2001H2.13333V57.2833C2.13333 54.9686 3.39627 52.8417 5.48373 51.7014L12.5792 47.2502C14.0011 46.4747 14.8843 44.9878 14.8843 43.3665V39.5361L14.5451 39.2193C14.5173 39.1937 11.6832 36.5163 10.8459 32.8673L10.7488 32.4449L10.384 32.2102C9.89333 31.8923 9.6 31.3601 9.6 30.7873V27.103C9.6 26.719 9.86133 26.2625 10.3157 25.8507L10.6667 25.5339L10.6645 19.7953C10.6837 19.4891 11.2395 12.2667 20.2667 12.2667C22.8192 12.2667 24.9685 12.8566 26.6667 14.0203V19.0667C25.984 19.8443 25.6 20.8395 25.6 21.8667V26.1334C25.6 26.4577 25.6373 26.7766 25.7077 27.0859C25.7365 27.2097 25.7941 27.3227 25.8336 27.4422C25.8923 27.6214 25.9392 27.8059 26.0213 27.9755C26.0224 27.9777 26.0235 27.9787 26.0245 27.9809C26.2976 28.5441 26.6955 29.0475 27.1968 29.4497C27.2021 29.4699 27.2085 29.4881 27.2139 29.5073C27.2779 29.7515 27.3451 29.9947 27.4176 30.2326L27.504 30.511C27.5189 30.5601 27.5371 30.6102 27.5531 30.6593C27.5904 30.7745 27.6267 30.8886 27.6651 31.0017C27.7291 31.1883 27.7963 31.3814 27.8741 31.5915C27.9072 31.679 27.9435 31.7579 27.9776 31.8443C28.0651 32.0673 28.1525 32.2827 28.2443 32.4961C28.2667 32.5473 28.2859 32.6027 28.3083 32.6529L28.368 32.7873C28.3957 32.8491 28.4245 32.9046 28.4523 32.9654C28.5568 33.1937 28.6592 33.4145 28.7659 33.6278C28.7829 33.6619 28.7989 33.6993 28.816 33.7334C28.8832 33.8667 28.9504 33.9926 29.0176 34.1206C29.1328 34.3403 29.2459 34.5473 29.3589 34.7478C29.4144 34.8459 29.4688 34.9419 29.5232 35.0347C29.6768 35.2971 29.8229 35.5382 29.9648 35.7622C29.9957 35.8102 30.0256 35.8603 30.0555 35.9062C30.3136 36.3062 30.5376 36.6305 30.7232 36.8833C30.7723 36.9505 30.8149 37.0081 30.8565 37.0646C30.88 37.0955 30.912 37.1403 30.9323 37.1681V40.6977C30.9323 41.7302 30.3691 42.6774 29.4635 43.1723L26.6411 44.7115L26.1493 44.6678L25.9488 45.0891L19.9477 48.3627C16.8544 50.0523 14.9333 53.2886 14.9333 56.8129ZM61.8667 59.2001H17.0667V56.8129C17.0667 54.0705 18.5621 51.5499 20.9696 50.2379L30.4853 45.0475C32.0779 44.1782 33.0667 42.511 33.0667 40.6987V36.4129V36.4118L32.8597 36.1643L32.8192 36.1163C32.8171 36.1131 32.7509 36.0331 32.6432 35.8923C32.6368 35.8838 32.6304 35.8753 32.6229 35.8667C32.5664 35.7931 32.5003 35.7046 32.4245 35.599C32.4235 35.5969 32.4224 35.5958 32.4213 35.5937C32.2624 35.3729 32.0629 35.0859 31.8411 34.7403C31.8357 34.7329 31.8315 34.7243 31.8261 34.7169C31.7216 34.5537 31.6107 34.3755 31.4976 34.1867C31.4891 34.1729 31.4805 34.159 31.472 34.1441C31.2309 33.7398 30.9749 33.2822 30.72 32.7755C30.72 32.7755 30.7189 32.7745 30.7189 32.7734C30.5835 32.5014 30.448 32.2155 30.3157 31.9179C30.2976 31.8763 30.2784 31.8358 30.2603 31.7942C30.2016 31.6609 30.1429 31.5211 30.0832 31.3771C30.0619 31.3249 30.0405 31.2705 30.0192 31.2171C29.9637 31.0774 29.9072 30.9366 29.8475 30.7755C29.7387 30.4854 29.6363 30.1825 29.5381 29.8699L29.4795 29.6801C29.4731 29.6587 29.4656 29.6374 29.4592 29.615C29.3589 29.2779 29.2629 28.9334 29.1819 28.5793L29.0848 28.1569L28.7211 27.9222C28.1024 27.5233 27.7333 26.8545 27.7333 26.1334V21.8667C27.7333 21.2683 27.9872 20.7105 28.448 20.2934L28.8 19.9766V13.3334V12.9558L28.7712 12.9334C28.7349 12.1633 28.7808 9.80275 30.5024 7.83901C32.2699 5.82195 35.2864 4.80008 39.4667 4.80008C43.632 4.80008 46.6421 5.81448 48.4117 7.81661C50.4885 10.1643 50.1451 13.1681 50.1429 13.1937L50.1333 19.9766L50.4853 20.2945C50.9461 20.7105 51.2 21.2683 51.2 21.8667V26.1334C51.2 27.0646 50.5899 27.8795 49.6832 28.159L49.152 28.3222L48.9813 28.8502C48.2677 31.0699 47.2512 33.1201 45.9584 34.9441C45.6416 35.3931 45.3333 35.791 45.0656 36.095L44.8 36.3979V40.7979C44.8 42.6859 45.8485 44.383 47.5371 45.2278L57.7269 50.3222C60.2805 51.599 61.8667 54.1654 61.8667 57.0209V59.2001Z" fill="white"/>
</svg>
