<svg width="64" height="64" viewBox="0 0 64 64" fill="none" xmlns="http://www.w3.org/2000/svg">
<path d="M62.3496 20.1409C60.1564 17.9476 56.5878 17.9478 54.3939 20.1414C53.7192 20.8167 49.4111 25.1284 48.7529 25.7871V10.9283C48.7529 9.42575 48.1678 8.01325 47.1053 6.95087L41.8022 1.6475C40.7398 0.585 39.3272 0 37.8247 0H5.62793C2.5263 0 0.00292969 2.52338 0.00292969 5.625V58.375C0.00292969 61.4766 2.5263 64 5.62793 64H43.1279C46.2296 64 48.7529 61.4766 48.7529 58.375V41.7039L62.3494 28.0959C64.5478 25.8976 64.5483 22.3394 62.3496 20.1409ZM37.5031 3.75C37.8573 3.75 38.5399 3.68863 39.1506 4.29913L44.4538 9.6025C45.0488 10.1976 45.0031 10.8497 45.0031 11.25H37.5031V3.75ZM45.0029 58.375C45.0029 59.4089 44.1619 60.25 43.1279 60.25H5.62793C4.59406 60.25 3.75293 59.4089 3.75293 58.375V5.625C3.75293 4.59113 4.59406 3.75 5.62793 3.75H33.7529V13.125C33.7529 14.1605 34.5924 15 35.6279 15H45.0029V29.5404C45.0029 29.5404 39.4712 35.0769 39.4709 35.077L36.8206 37.7275C36.6148 37.9333 36.4596 38.1842 36.3676 38.4604L33.7158 46.4154C33.4912 47.0891 33.6666 47.832 34.1688 48.3341C34.6717 48.837 35.4148 49.0115 36.0876 48.7871L44.0426 46.1355C44.3187 46.0435 44.5697 45.8884 44.7754 45.6825L45.0029 45.455V58.375ZM40.7979 39.0534L43.4496 41.705L42.4367 42.7179L38.4593 44.0436L39.7851 40.0661L40.7979 39.0534ZM46.1007 39.0527L43.4491 36.4011C44.8611 34.988 51.1322 28.7115 52.4622 27.3804L55.1138 30.032L46.1007 39.0527ZM59.6973 25.4447L57.7644 27.3792L55.1128 24.7276L57.0463 22.7925C57.7778 22.0614 58.9671 22.0615 59.6981 22.7925C60.4289 23.5238 60.4328 24.7091 59.6973 25.4447Z" fill="white"/>
<path d="M35.6279 18.75H9.37793C8.34243 18.75 7.50293 19.5895 7.50293 20.625C7.50293 21.6605 8.34243 22.5 9.37793 22.5H35.6279C36.6634 22.5 37.5029 21.6605 37.5029 20.625C37.5029 19.5895 36.6634 18.75 35.6279 18.75Z" fill="white"/>
<path d="M28.1279 26.25H9.37793C8.34243 26.25 7.50293 27.0895 7.50293 28.125C7.50293 29.1605 8.34243 30 9.37793 30H28.1279C29.1634 30 30.0029 29.1605 30.0029 28.125C30.0029 27.0895 29.1634 26.25 28.1279 26.25Z" fill="white"/>
<path d="M28.1279 33.75H9.37793C8.34243 33.75 7.50293 34.5895 7.50293 35.625C7.50293 36.6605 8.34243 37.5 9.37793 37.5H28.1279C29.1634 37.5 30.0029 36.6605 30.0029 35.625C30.0029 34.5895 29.1634 33.75 28.1279 33.75Z" fill="white"/>
<path d="M28.1279 41.25H9.37793C8.34243 41.25 7.50293 42.0895 7.50293 43.125C7.50293 44.1605 8.34243 45 9.37793 45H28.1279C29.1634 45 30.0029 44.1605 30.0029 43.125C30.0029 42.0895 29.1634 41.25 28.1279 41.25Z" fill="white"/>
<path d="M35.627 52.75H24.377C23.3415 52.75 22.502 53.5895 22.502 54.625C22.502 55.6605 23.3415 56.5 24.377 56.5H35.627C36.6625 56.5 37.502 55.6605 37.502 54.625C37.502 53.5895 36.6625 52.75 35.627 52.75Z" fill="white"/>
</svg>
