<svg width="64" height="64" viewBox="0 0 64 64" fill="none" xmlns="http://www.w3.org/2000/svg">
<g clip-path="url(#clip0)">
<path d="M50.7461 12.9268C50.7461 14.8174 52.2842 16.3555 54.1748 16.3555C56.0654 16.3555 57.604 14.8174 57.604 12.9268C57.604 11.0361 56.0654 9.49805 54.1748 9.49805C52.2842 9.49805 50.7461 11.0361 50.7461 12.9268ZM55.7285 12.9268C55.7285 13.7837 55.0317 14.4805 54.1748 14.4805C53.3179 14.4805 52.6206 13.7837 52.6206 12.9268C52.6206 12.0698 53.3179 11.373 54.1748 11.373C55.0317 11.373 55.7285 12.0698 55.7285 12.9268Z" fill="white"/>
<path d="M6.58648 23.1945L6.15533 23.299C5.65191 23.4206 5.34234 23.927 5.46392 24.4299C5.56744 24.8596 5.95123 25.1482 6.37408 25.1482C6.44732 25.1482 6.52105 25.1394 6.59478 25.1218L7.02642 25.0173C7.52984 24.8962 7.83941 24.3899 7.71783 23.8864C7.59625 23.383 7.0899 23.0739 6.58648 23.1945Z" fill="white"/>
<path d="M61.102 15.2037C61.62 15.2037 62.0395 14.7843 62.0395 14.2662V5.93225C62.0395 5.63489 61.8984 5.35559 61.6596 5.17835L54.7348 0.0592042C54.4032 -0.186401 53.9511 -0.186401 53.62 0.0592042L46.6952 5.17835C46.456 5.35559 46.3149 5.63489 46.3149 5.93225V8.10169L15.4931 16.9835C14.9955 17.1266 14.7084 17.6461 14.852 18.1437C14.995 18.6412 15.515 18.9279 16.0121 18.7853L46.3149 10.0529V15.2887C34.8334 18.5973 12.6689 24.984 7.08877 26.5924C5.75625 26.9762 4.35928 26.2042 3.975 24.8717C3.78946 24.2257 3.86563 23.5465 4.19082 22.9581C4.51553 22.3702 5.0502 21.944 5.69571 21.7579L12.8564 19.6945C13.3539 19.5509 13.641 19.0314 13.4975 18.5338C13.3544 18.0363 12.8344 17.7496 12.3373 17.8927L5.17666 19.9562C4.04971 20.2809 3.11709 21.025 2.54971 22.0514C1.98233 23.0778 1.84903 24.2638 2.17373 25.3908C2.72744 27.3121 4.48721 28.566 6.39444 28.5656C6.39981 28.5656 6.40567 28.5651 6.41104 28.5651V62.9376C6.41104 63.4552 6.83096 63.8751 7.34854 63.8751C7.86612 63.8751 8.28604 63.4552 8.28604 62.9376V28.1984L26.142 23.0529L21.39 62.0001H16.9418C16.4242 62.0001 16.0043 62.4196 16.0043 62.9376C16.0043 63.4557 16.4242 63.8751 16.9418 63.8751H51.7988C52.3168 63.8751 52.7363 63.4557 52.7363 62.9376C52.7363 62.4196 52.3168 62.0001 51.7988 62.0001H47.3505L42.0395 18.4723L46.3149 17.2399V19.922C46.3149 20.2194 46.456 20.4992 46.6952 20.6759L53.2397 25.5148V32.0582H51.686C51.1679 32.0582 50.7485 32.4782 50.7485 32.9957V42.172C50.7485 42.6896 51.1679 43.1095 51.686 43.1095H56.6684C57.1864 43.1095 57.6059 42.6896 57.6059 42.172V32.9957C57.6059 32.4782 57.1864 32.0582 56.6684 32.0582H55.1147V25.5148L61.6596 20.6759C61.8984 20.4992 62.0395 20.2194 62.0395 19.922V17.422C62.0395 16.9044 61.62 16.4845 61.102 16.4845C60.5839 16.4845 60.1645 16.9044 60.1645 17.422V19.4493L54.1772 23.8761L48.1899 19.4493V6.4054L54.1772 1.97864L60.1645 6.4054V14.2662C60.1645 14.7843 60.5844 15.2037 61.102 15.2037ZM28.1713 31.6823L34.37 25.4396L40.5693 31.6823H28.1713ZM40.1703 33.5573L34.37 38.2462L28.5702 33.5573H40.1703ZM26.6449 34.4122L32.8788 39.4518L25.2807 45.5944L26.6449 34.4122ZM26.7206 46.841L34.37 40.6569L42.0199 46.841H26.7206ZM41.6069 48.716L34.37 53.6022L27.1332 48.716H41.6069ZM24.8144 49.4127L32.6947 54.7335L23.3993 61.0099L24.8144 49.4127ZM34.37 55.8649L43.4565 62.0001H25.2836L34.37 55.8649ZM36.0453 54.7335L43.9257 49.4132L45.3407 61.0099L36.0453 54.7335ZM35.8612 39.4518L42.0956 34.4122L43.4599 45.5944L35.8612 39.4518ZM35.6913 24.109L40.2748 19.4928L41.5595 30.0187L35.6913 24.109ZM37.286 19.8419L34.37 22.7785L32.7514 21.1486L37.286 19.8419ZM30.6972 21.7404L33.0492 24.109L27.1811 30.0187L28.1 22.4889L30.6972 21.7404ZM55.7309 41.2345H52.6235V33.9332H55.7309V41.2345Z" fill="white"/>
</g>
<defs>
<clipPath id="clip0">
<rect width="64" height="64" fill="white"/>
</clipPath>
</defs>
</svg>
